<svg xmlns="http://www.w3.org/2000/svg" viewBox="0 0 17.67 7.11"><defs><style>.cls-1{fill:#fbb03b;}</style></defs><g id="Layer_2" data-name="Layer 2"><g id="Layer_1-2" data-name="Layer 1"><path class="cls-1" d="M0,0C0,.07.09.34.13.4A11.05,11.05,0,0,0,3.59,3.76a16.33,16.33,0,0,0,4.28,2,13.47,13.47,0,0,0,4.66.65,13.06,13.06,0,0,0,2.17-.33A11.15,11.15,0,0,0,17,5.21c.11,0-.22-.72-.37-.65a12.39,12.39,0,0,1-1.94.76,11.81,11.81,0,0,1-2.23.38,13.07,13.07,0,0,1-4.36-.47A17.11,17.11,0,0,1,3.93,3.5,10.31,10.31,0,0,1,.29.27C.25.21.1,0,0,0Z"/><polygon class="cls-1" points="15.93 7.11 14.47 3.84 17.68 4.54 15.93 7.11"/></g></g></svg>