<svg xmlns="http://www.w3.org/2000/svg" viewBox="0 0 19.55 20.06"><defs><style>.cls-1{fill:#39b54a;}</style></defs><g id="Layer_2" data-name="Layer 2"><g id="Layer_1-2" data-name="Layer 1"><path class="cls-1" d="M.73,15.16Z"/><path class="cls-1" d="M9.47,2.94c.23.47.54,1,.32,1.52S9,5,8.65,5.14a19.82,19.82,0,0,0-2.86.79A1.71,1.71,0,0,0,5,8c.09.44.27.86.33,1.32a1.24,1.24,0,0,1-.75,1.19,5.34,5.34,0,0,1-1.53.42,10,10,0,0,0-1.49.41A2.3,2.3,0,0,0,0,13a2.54,2.54,0,0,0,.15,1.25,3,3,0,0,0,.36.65,1.71,1.71,0,0,0,.2.27s.17.12.17.1c0,.24.36.27.3,0A.38.38,0,0,0,1,15a2,2,0,0,1-.47-.61,1.71,1.71,0,0,1-.07-1.54c.41-.89,1.59-1.18,2.45-1.38a4.46,4.46,0,0,0,2.39-.88A1.86,1.86,0,0,0,5.5,8.63a2.86,2.86,0,0,1-.2-1.5,1.48,1.48,0,0,1,.93-.91A27.8,27.8,0,0,1,9,5.52c.59-.2,1.33-.56,1.28-1.31A3.63,3.63,0,0,0,9.9,3.15c-.1-.26-.3-.53,0-.73a1.22,1.22,0,0,1,.68-.12c.21,0,.06-.43-.13-.43C9.84,1.86,9.12,2.21,9.47,2.94Z"/><polygon class="cls-1" points="8.89 1.27 10.11 0.64 11.33 0 11.27 1.37 11.21 2.75 10.05 2.01 8.89 1.27"/><path class="cls-1" d="M4.68,17.74Z"/><path class="cls-1" d="M13.42,5.52A1.86,1.86,0,0,1,13.74,7c-.18.4-.76.55-1.14.68a20.31,20.31,0,0,0-2.87.79A1.72,1.72,0,0,0,9,10.59c.09.44.27.86.33,1.32a1.24,1.24,0,0,1-.75,1.19A5.34,5.34,0,0,1,7,13.52a9.67,9.67,0,0,0-1.49.41A2.32,2.32,0,0,0,4,15.57a2.67,2.67,0,0,0,.16,1.25,3,3,0,0,0,.36.65,1.26,1.26,0,0,0,.2.27s.17.12.17.1c0,.24.36.27.3,0A.41.41,0,0,0,5,17.54a2,2,0,0,1-.47-.61,1.71,1.71,0,0,1-.07-1.54C4.84,14.5,6,14.21,6.88,14a4.37,4.37,0,0,0,2.39-.87,1.86,1.86,0,0,0,.18-1.92,2.86,2.86,0,0,1-.2-1.5,1.48,1.48,0,0,1,.93-.91,25.22,25.22,0,0,1,2.72-.7c.59-.2,1.33-.56,1.28-1.31a3.54,3.54,0,0,0-.33-1.06c-.11-.26-.3-.53,0-.73a1.22,1.22,0,0,1,.68-.12c.21,0,.06-.43-.13-.43C13.79,4.44,13.07,4.79,13.42,5.52Z"/><polygon class="cls-1" points="12.84 3.85 14.06 3.21 15.28 2.58 15.22 3.95 15.16 5.33 14 4.59 12.84 3.85"/><path class="cls-1" d="M8,19.87Z"/><path class="cls-1" d="M17.28,8a1.74,1.74,0,0,0-1.45.23,1.88,1.88,0,0,0-.38,1.23,18.87,18.87,0,0,1-.11,2.81,1.89,1.89,0,0,1-1.72,1.38c-.42.07-.84,0-1.26.15a1.37,1.37,0,0,0-.93,1.06,5,5,0,0,0-.06,1.5,9,9,0,0,1-.07,1.46,2.52,2.52,0,0,1-1.15,1.94A2.59,2.59,0,0,1,8.32,20,1.52,1.52,0,0,1,8,19.87s-.15-.11-.13-.12c-.23,0-.32-.23,0-.28a.38.38,0,0,1,.29.07,1.44,1.44,0,0,0,.65.22,1.73,1.73,0,0,0,1.41-.46A3.5,3.5,0,0,0,11,16.67a4.39,4.39,0,0,1,.3-2.42,1.92,1.92,0,0,1,1.69-.8,2.8,2.8,0,0,0,1.4-.33A1.62,1.62,0,0,0,15,12a26.25,26.25,0,0,0,.07-2.66c.06-.58.23-1.36.92-1.57a3.23,3.23,0,0,1,1-.06c.25,0,.54.09.65-.25a1.19,1.19,0,0,0,0-.65c0-.19.37-.2.42,0C18.17,7.33,18,8.09,17.28,8Z"/><polygon class="cls-1" points="18.91 7.98 19.23 6.68 19.55 5.39 18.32 5.9 17.09 6.41 18 7.19 18.91 7.98"/></g></g></svg>