<svg xmlns="http://www.w3.org/2000/svg" xmlns:xlink="http://www.w3.org/1999/xlink" viewBox="0 0 6.35 5.57"><defs><style>.cls-1{isolation:isolate;}.cls-2{fill:url(#radial-gradient);}.cls-3{fill:#9c1313;}.cls-3,.cls-6{opacity:0.31;mix-blend-mode:multiply;}.cls-4{fill:url(#radial-gradient-2);}.cls-5{fill:url(#radial-gradient-3);}.cls-6{fill:#3c3c3c;}</style><radialGradient id="radial-gradient" cx="-108.52" cy="78.18" r="2.12" gradientTransform="translate(121 -56.26) rotate(9.57)" gradientUnits="userSpaceOnUse"><stop offset="0" stop-color="#e53030"/><stop offset="0.3" stop-color="#d02020"/><stop offset="0.51" stop-color="#c71919"/><stop offset="0.66" stop-color="#c31818"/><stop offset="0.81" stop-color="#b81717"/><stop offset="0.95" stop-color="#a51414"/><stop offset="1" stop-color="#9c1313"/></radialGradient><radialGradient id="radial-gradient-2" cx="-105.02" cy="78.18" r="2.12" xlink:href="#radial-gradient"/><radialGradient id="radial-gradient-3" cx="-107.27" cy="76.15" r="3.07" gradientTransform="translate(121 -56.26) rotate(9.57)" gradientUnits="userSpaceOnUse"><stop offset="0" stop-color="#656565"/><stop offset="0.25" stop-color="#585858"/><stop offset="0.51" stop-color="#4f4f4f"/><stop offset="0.74" stop-color="#4b4b4b"/><stop offset="0.95" stop-color="#404040"/><stop offset="1" stop-color="#3c3c3c"/></radialGradient></defs><g class="cls-1"><g id="Layer_2" data-name="Layer 2"><g id="Layer_1-2" data-name="Layer 1"><path class="cls-2" d="M2.87,3.79A1.45,1.45,0,1,1,1.69,2.12,1.44,1.44,0,0,1,2.87,3.79Z"/><path class="cls-3" d="M1.69,2.12A1.45,1.45,0,1,0,2.87,3.79,1.44,1.44,0,0,0,1.69,2.12ZM1.16,4.66a1.24,1.24,0,1,1,1.42-1A1.24,1.24,0,0,1,1.16,4.66Z"/><path class="cls-4" d="M6.33,4.37a1.45,1.45,0,0,1-2.86-.48,1.45,1.45,0,1,1,2.86.48Z"/><path class="cls-3" d="M5.14,2.7a1.45,1.45,0,1,0-.48,2.85A1.45,1.45,0,1,0,5.14,2.7ZM4.61,5.24A1.24,1.24,0,0,1,5,2.8a1.24,1.24,0,1,1-.41,2.44Z"/><path class="cls-5" d="M5.29,2.44A2.09,2.09,0,1,1,3.57,0,2.09,2.09,0,0,1,5.29,2.44Z"/><path class="cls-6" d="M3.57,0A2.09,2.09,0,1,0,5.29,2.44,2.09,2.09,0,0,0,3.57,0ZM2.81,3.71A1.79,1.79,0,1,1,4.87,2.24,1.78,1.78,0,0,1,2.81,3.71Z"/></g></g></g></svg>