<svg xmlns="http://www.w3.org/2000/svg" viewBox="0 0 35.88 15.4"><defs><style>.cls-1{fill:#26bae2;}.cls-2{fill:#fff;}.cls-3{fill:#c1d3dd;opacity:0.5;}</style></defs><g id="Layer_2" data-name="Layer 2"><g id="Layer_1-2" data-name="Layer 1"><path class="cls-1" d="M35.65,8.4a2.17,2.17,0,0,0-2.49-.76,2.67,2.67,0,0,0,0-.74,2.89,2.89,0,0,0-1-1.83,4.1,4.1,0,0,0-4.32-.92,2.39,2.39,0,0,0-.48-1.79A4.51,4.51,0,0,0,25,1.15a4,4,0,0,0-2.58.49,2.71,2.71,0,0,0-.61.44A2.24,2.24,0,0,0,20.55.33a4.54,4.54,0,0,0-3-.15,4.37,4.37,0,0,0-3.36,3.28,6.74,6.74,0,0,0-.62-.59,4.5,4.5,0,0,0-2.87-.94A4.46,4.46,0,0,0,6.32,4.42a3.67,3.67,0,0,0-3-.74c-.24,0-.47.09-.7.15C1.4,4.47.27,5.2.05,6.67a3.92,3.92,0,0,0,1.18,3.54,3.37,3.37,0,0,0,2.17.55h0a1.7,1.7,0,0,0,0,.5c.17.85,1.08,1.4,1.79,1.74,1.47.69,4,.94,5.27-.32a.36.36,0,0,1,0,.07,3.43,3.43,0,0,0,1,1.24,7.49,7.49,0,0,0,3,1.3,4.19,4.19,0,0,0,4.84-2.48,2.57,2.57,0,0,0,1.14,1.29,3.5,3.5,0,0,0,2.59.39,3.44,3.44,0,0,0,2.6-2.22c.57,1.11,2.38,1.05,3.42.6a3.18,3.18,0,0,0,1.59-1.46,2.74,2.74,0,0,0,1.68.58,3.8,3.8,0,0,0,2.72-1A2.19,2.19,0,0,0,35.65,8.4Z"/><path class="cls-2" d="M34.6,10.89a3.44,3.44,0,0,1-2.23.62,2.21,2.21,0,0,1-.91-.25c-.23-.12-.35-.33-.56-.42a1.25,1.25,0,0,0-.14-.69,2.83,2.83,0,0,1-.31.79,2.29,2.29,0,0,1-1.53,1.62,3.07,3.07,0,0,1-1.64.18,2.61,2.61,0,0,1-1.5-.81,2.1,2.1,0,0,0-.1-.81,2.43,2.43,0,0,1-.16.85,2.05,2.05,0,0,1-.34.57,2.11,2.11,0,0,1-.35.53,3.39,3.39,0,0,1-1.86,1,3.19,3.19,0,0,1-3.46-1.71,1.46,1.46,0,0,0,.38-.17,1.16,1.16,0,0,0,.59-.64,2.79,2.79,0,0,1-.57.37l-.18.09a1.86,1.86,0,0,1-.49.24l-.39.15a1,1,0,0,0,.42,0,3.84,3.84,0,0,1-1.48,1.85,4.39,4.39,0,0,1-3.06.43,8.36,8.36,0,0,1-2.31-.86,4.06,4.06,0,0,1-1.1-.88,1.83,1.83,0,0,1-.45-1,3.09,3.09,0,0,1-.52.5,4.58,4.58,0,0,1-3.09.85,3.92,3.92,0,0,1-2.65-1,1.76,1.76,0,0,1-.49-.49,2.83,2.83,0,0,1-.47-2,2.45,2.45,0,0,0-.22.73,8.35,8.35,0,0,0-1-.16A2.54,2.54,0,0,1,1,9.41C.26,8.6-.18,6.85.59,5.88a12.16,12.16,0,0,1,1-1,2.91,2.91,0,0,1,1.68-.73,3.31,3.31,0,0,1,2.94.83.14.14,0,0,0,.14,0A4.1,4.1,0,0,1,8,3a4,4,0,0,1,2.4-.64,6.36,6.36,0,0,1,2.21.36,4.14,4.14,0,0,1,1.11.71,2.33,2.33,0,0,1,.86,1.21h0a1.05,1.05,0,0,0-.29-1.09A4.29,4.29,0,0,1,17.53.46a4.58,4.58,0,0,1,2.38.12c1,.31,1.2,1,1.46,1.82a.32.32,0,0,0,.08.13,4,4,0,0,0-.37.64h0a3,3,0,0,1,1.4-1,3.5,3.5,0,0,1,2.17-.45,4.69,4.69,0,0,1,2,.87,2,2,0,0,1,.8,1.87l.27-.11a2.76,2.76,0,0,1,1.94,0,4.11,4.11,0,0,1,.56.25A3.92,3.92,0,0,1,32.28,5.9a.37.37,0,0,1,.15.17,3.67,3.67,0,0,1,.42,2.23,1.07,1.07,0,0,0,.25-.44A2.71,2.71,0,0,1,35,8.38C35.85,9.1,35.31,10.31,34.6,10.89Z"/><path class="cls-3" d="M35,8.38a2.71,2.71,0,0,0-1.91-.52,1.07,1.07,0,0,1-.25.44,3.67,3.67,0,0,0-.42-2.23.37.37,0,0,0-.15-.17,3.92,3.92,0,0,0-2.06-1.39,4.11,4.11,0,0,0-.56-.25,2.76,2.76,0,0,0-1.94,0l-.27.11v0l-.09.12c2.26,0,4.64,3,3.1,5.3a3.33,3.33,0,0,1-4,1,2.51,2.51,0,0,1-.75-.56,3.25,3.25,0,0,1-1.81,1.71c-1.83.73-2.89-.26-3.1-1.61a5.06,5.06,0,0,1-2.9,1.33,2.55,2.55,0,0,1-2.12-.54,3.85,3.85,0,0,1-1,.21,3.18,3.18,0,0,1-3.43-2.11A5.41,5.41,0,0,1,7.19,11c-1.18-.08-2.75-.4-3.11-1.75A2.85,2.85,0,0,1,4,8.35a2.12,2.12,0,0,1-2.4-.57,2.38,2.38,0,0,1-.47-2.47,7,7,0,0,0-.52.57C-.18,6.85.26,8.6,1,9.41a2.54,2.54,0,0,0,1.38.87,8.35,8.35,0,0,1,1,.16,2.45,2.45,0,0,1,.22-.73,2.83,2.83,0,0,0,.47,2,1.76,1.76,0,0,0,.49.49,3.92,3.92,0,0,0,2.65,1,4.58,4.58,0,0,0,3.09-.85,3.09,3.09,0,0,0,.52-.5,1.83,1.83,0,0,0,.45,1,4.06,4.06,0,0,0,1.1.88,8.36,8.36,0,0,0,2.31.86,4.39,4.39,0,0,0,3.06-.43,3.84,3.84,0,0,0,1.48-1.85,1,1,0,0,1-.42,0l.39-.15a1.86,1.86,0,0,0,.49-.24l.18-.09a2.79,2.79,0,0,0,.57-.37,1.16,1.16,0,0,1-.59.64,1.46,1.46,0,0,1-.38.17A3.19,3.19,0,0,0,23,14.08a3.39,3.39,0,0,0,1.86-1,2.11,2.11,0,0,0,.35-.53,2.05,2.05,0,0,0,.34-.57,2.43,2.43,0,0,0,.16-.85,2.1,2.1,0,0,1,.1.81,2.61,2.61,0,0,0,1.5.81,3.07,3.07,0,0,0,1.64-.18,2.29,2.29,0,0,0,1.53-1.62,2.83,2.83,0,0,0,.31-.79,1.25,1.25,0,0,1,.14.69c.21.09.33.3.56.42a2.21,2.21,0,0,0,.91.25,3.44,3.44,0,0,0,2.23-.62C35.31,10.31,35.85,9.1,35,8.38Zm-.75.81A2.21,2.21,0,0,1,33,10.57c-.67.25-1.74,0-1.54-.93.23-1.07,1.29-1.31,2.22-1.39a.16.16,0,0,1,.19.1A.61.61,0,0,1,34.26,9.19Z"/><path class="cls-2" d="M5.51,5.29c0-.87-1.07-1-1.73-.85A2.58,2.58,0,0,0,2.06,5.7a1,1,0,0,0-.15.87c.15,1,1.49.94,2.19.53L4.25,7A1.87,1.87,0,0,0,5.51,5.29Z"/><path class="cls-2" d="M12,4c-.21-1-1.5-1-2.28-.8-.95.17-2.41,1.11-2.31,2.22a1,1,0,0,0,.94,1,2.36,2.36,0,0,0,1.53,0C10.84,6.15,12.24,5.29,12,4Z"/><path class="cls-2" d="M19,1.5a.47.47,0,0,0-.15-.06,2,2,0,0,0-1.45.08l-.31.17a2.18,2.18,0,0,0-.7.58,1.32,1.32,0,0,0-.32,1,1.1,1.1,0,0,0,0,.54c.09.41.59.48.93.43a2.8,2.8,0,0,0,1.07-.41,3,3,0,0,0,1-.61C19.54,2.77,19.78,1.82,19,1.5Z"/></g></g></svg>