<svg xmlns="http://www.w3.org/2000/svg" xmlns:xlink="http://www.w3.org/1999/xlink" viewBox="0 0 184.7 6.63"><defs><style>.cls-1{fill:url(#linear-gradient);}.cls-2{opacity:0.52;}.cls-3{fill:url(#linear-gradient-2);}.cls-4{fill:#177139;}.cls-5{fill:url(#linear-gradient-3);}.cls-6{fill:url(#linear-gradient-4);}.cls-7{fill:url(#linear-gradient-5);}.cls-8{fill:url(#linear-gradient-6);}</style><linearGradient id="linear-gradient" x1="3.49" y1="12.41" x2="3.55" y2="18.7" gradientTransform="translate(29.65 -11.78) rotate(0.27)" gradientUnits="userSpaceOnUse"><stop offset="0.1" stop-color="#c1d837"/><stop offset="0.26" stop-color="#bad638"/><stop offset="0.5" stop-color="#a5cf3c"/><stop offset="0.74" stop-color="#8ac640"/><stop offset="0.8" stop-color="#83c241"/><stop offset="0.88" stop-color="#70b842"/><stop offset="0.98" stop-color="#51a745"/><stop offset="1" stop-color="#4ca446"/></linearGradient><linearGradient id="linear-gradient-2" x1="14.26" y1="12.35" x2="14.32" y2="18.51" gradientTransform="translate(29.65 -11.78) rotate(0.27)" gradientUnits="userSpaceOnUse"><stop offset="0.34" stop-color="#8ac640"/><stop offset="0.49" stop-color="#83c241"/><stop offset="0.7" stop-color="#70b842"/><stop offset="0.96" stop-color="#51a745"/><stop offset="1" stop-color="#4ca446"/></linearGradient><linearGradient id="linear-gradient-3" x1="63.18" y1="12.07" x2="63.24" y2="18.37" xlink:href="#linear-gradient"/><linearGradient id="linear-gradient-4" x1="73.94" y1="12.01" x2="74" y2="18.22" xlink:href="#linear-gradient-2"/><linearGradient id="linear-gradient-5" x1="121.97" y1="11.76" x2="122.03" y2="18.06" xlink:href="#linear-gradient"/><linearGradient id="linear-gradient-6" x1="132.73" y1="11.7" x2="132.79" y2="17.91" xlink:href="#linear-gradient-2"/></defs><g id="Layer_2" data-name="Layer 2"><g id="Layer_1-2" data-name="Layer 1"><path class="cls-1" d="M63.83,1.79a9.55,9.55,0,0,0-1,2.81,3.18,3.18,0,0,0-2.17-3.22c-.24,3.34-2.19,3.74-2.19,3.74C57.71,3,59.76.85,59.76.85a7.12,7.12,0,0,0-5.6,4.76,3.29,3.29,0,0,1,0-3.8,4.55,4.55,0,0,0-2.44,3.08A4.39,4.39,0,0,0,49,1.06c.81,3.28-.77,4.52-.77,4.52a4,4,0,0,1,0-3.73,9.74,9.74,0,0,0-4.55,3.71A8.69,8.69,0,0,1,45.05.78a8.2,8.2,0,0,0-5.52,4A4.63,4.63,0,0,0,37.27.67c1.18,2.7-.09,4.2-.09,4.2a2.69,2.69,0,0,0-1-2.62C36,4,32.73,5.11,32.73,5.11a2.66,2.66,0,0,1,.62-2.26c-4.23.47-5,2.64-5,2.64a4,4,0,0,1,1.29-3.61C25.43,3,25.11,5.47,25.11,5.47c-.44-2.63-3.23-3.56-3.23-3.56a3.65,3.65,0,0,1,0,3.55,4.74,4.74,0,0,1-.45-1.58,4,4,0,0,0-1.66,1.17,5.88,5.88,0,0,1,.76-1.37C17.5,4.25,17,5.43,17,5.43a3.08,3.08,0,0,1,2.36-2.64c-3.47,0-4.69,1.84-4.69,1.84A9.38,9.38,0,0,1,15.78.9c-4.53,1-5,3.72-5,3.72A9.22,9.22,0,0,1,9.68.09C8.53,1.52,8.6,4.41,8.6,4.41c-1.12-3.61-5-2.52-5-2.52A4.89,4.89,0,0,1,7.2,4.1,6.25,6.25,0,0,0,0,3.45C4.66,3,5.72,6.63,5.72,6.63l60.5,0A6.94,6.94,0,0,1,63.83,1.79Z"/><g class="cls-2"><path class="cls-3" d="M43.62,1.67a2.69,2.69,0,0,1,.48-.24A1.69,1.69,0,0,0,43.62,1.67Z"/><path class="cls-4" d="M63.56,3.62a2.44,2.44,0,0,0,.66,2.76c-1.82-.06-1.61-1.19-1.61-1.19-.65,1.31-3.14,1-3.14,1a2.66,2.66,0,0,0,1.64-3.14c-.51,3.33-4.62,3.25-4.62,3.25a4,4,0,0,1,1.26-4.16,5.87,5.87,0,0,0-2.46,4.09h-.91a2.18,2.18,0,0,1-1.54-2.89c-1.06,1.89,0,3,0,3a1.33,1.33,0,0,1-1.1-1.44,1.5,1.5,0,0,1-1.65,1.57,3.67,3.67,0,0,0,.09-3.2c.44,3.16-1.75,3.2-1.75,3.2l-2.49,0a3.14,3.14,0,0,1,.43-2.9,4.44,4.44,0,0,0-2.28,2.89H42.31c-.94-.34-.56-1.92-.56-1.92a4.93,4.93,0,0,1,1.87-2.84c-1.56.91-2.33,2.7-3.16,3.71-1.06,1.3-3.54,1-3.54,1a3,3,0,0,0,1.14-4.48c1.27,4.79-4.35,4.46-4.35,4.46a3.18,3.18,0,0,0,2.2-2.23C34.73,6.45,30,6.33,30,6.33a2.27,2.27,0,0,1,1.41-2.47,2.78,2.78,0,0,0-2.16,2.47h-.75C25.6,6.39,27,3.78,27,3.78c-1.35,1.45-.77,2.63-.77,2.63h-3a1.85,1.85,0,0,0,0-2.34c0,2.24-2.5,2.22-2.5,2.22a1.68,1.68,0,0,1,0-1.62,4.24,4.24,0,0,0-1.06,1.62c-.7-.11-.25-.81-.25-.81-.73.86-2.29,1.15-1.1-.13s.94-.93-.28,0-1.42.9-1-.14h0a1.21,1.21,0,0,0-.15.21,3,3,0,0,1,2.28-2.62,3.13,3.13,0,0,0-2.42,1.88c-.61,1.48-1.34,1.57-1.34,1.57a2.78,2.78,0,0,1,1.35-2.67A4.25,4.25,0,0,0,14.5,6a3,3,0,0,1,1.13-2.25,3.62,3.62,0,0,0-1,.92l.06-.47-.36.72c-.46,1.24-2.78,1.36-2.78,1.36a6,6,0,0,1,2.79-4.46,7,7,0,0,0-3.75,4.45C9.35,5.34,9.3,2.94,9.3,2.94A5.79,5.79,0,0,0,9.29,6c-1.18-2.81-3-3.36-3-3.36A4,4,0,0,1,8,5.63C4.72,2.18,0,3.45,0,3.45,4.66,3,5.72,6.63,5.72,6.63l60.5,0A2.54,2.54,0,0,1,63.56,3.62Z"/></g><path class="cls-5" d="M123.51,1.74a9.52,9.52,0,0,0-1,2.81,3.19,3.19,0,0,0-2.17-3.22c-.24,3.34-2.2,3.74-2.2,3.74-.75-2.15,1.3-4.27,1.3-4.27a7.14,7.14,0,0,0-5.61,4.76,3.28,3.28,0,0,1,0-3.8,4.54,4.54,0,0,0-2.45,3.08A4.39,4.39,0,0,0,108.65,1c.82,3.29-.77,4.52-.77,4.52a4,4,0,0,1,0-3.73,9.68,9.68,0,0,0-4.53,3.71A8.6,8.6,0,0,1,104.73.73a8.2,8.2,0,0,0-5.52,4A4.6,4.6,0,0,0,97,.63c1.18,2.69-.08,4.19-.08,4.19a2.73,2.73,0,0,0-1.05-2.63c-.15,1.77-3.4,2.88-3.4,2.88A2.62,2.62,0,0,1,93,2.81c-4.23.47-5,2.63-5,2.63a4,4,0,0,1,1.3-3.6C85.11,2.93,84.8,5.42,84.8,5.42c-.44-2.63-3.24-3.56-3.24-3.56a3.61,3.61,0,0,1,0,3.55,4.87,4.87,0,0,1-.44-1.58A4.08,4.08,0,0,0,79.44,5a5.6,5.6,0,0,1,.76-1.37c-3,.57-3.55,1.76-3.55,1.76A3.08,3.08,0,0,1,79,2.74c-3.47-.05-4.68,1.84-4.68,1.84A9.19,9.19,0,0,1,75.46.86c-4.53,1-5,3.71-5,3.71A9.25,9.25,0,0,1,69.36,0c-1.14,1.44-1.08,4.33-1.08,4.33-1.11-3.61-5-2.52-5-2.52a4.91,4.91,0,0,1,3.65,2.22,6.27,6.27,0,0,0-7.21-.66c4.67-.49,5.72,3.17,5.72,3.17l60.51,0A7,7,0,0,1,123.51,1.74Z"/><g class="cls-2"><path class="cls-6" d="M103.29,1.62a3.85,3.85,0,0,1,.5-.24A1.92,1.92,0,0,0,103.29,1.62Z"/><path class="cls-4" d="M123.24,3.58a2.42,2.42,0,0,0,.67,2.75c-1.83-.06-1.62-1.19-1.62-1.19-.65,1.31-3.13,1-3.13,1A2.63,2.63,0,0,0,120.79,3c-.5,3.33-4.61,3.25-4.61,3.25a4,4,0,0,1,1.26-4.16A5.9,5.9,0,0,0,115,6.22h-.91a2.19,2.19,0,0,1-1.53-2.9c-1.07,1.9,0,2.95,0,2.95a1.31,1.31,0,0,1-1.11-1.43,1.5,1.5,0,0,1-1.65,1.57,3.65,3.65,0,0,0,.09-3.19c.44,3.15-1.75,3.18-1.75,3.18h-2.49A3.18,3.18,0,0,1,106,3.49a4.47,4.47,0,0,0-2.28,2.9l-1.77,0c-.94-.33-.56-1.91-.56-1.91a5,5,0,0,1,1.86-2.84c-1.54.91-2.32,2.7-3.14,3.71-1.07,1.3-3.55,1-3.55,1a3.05,3.05,0,0,0,1.15-4.48C99,6.63,93.39,6.3,93.39,6.3a3.15,3.15,0,0,0,2.2-2.23c-1.18,2.33-5.93,2.21-5.93,2.21a2.27,2.27,0,0,1,1.41-2.47A2.79,2.79,0,0,0,88.9,6.28h-.75c-2.87.07-1.46-2.54-1.46-2.54-1.35,1.46-.77,2.63-.77,2.63h-3A1.85,1.85,0,0,0,83,4c0,2.24-2.49,2.22-2.49,2.22a1.7,1.7,0,0,1,0-1.62,4.3,4.3,0,0,0-1,1.62c-.71-.1-.25-.81-.25-.81-.74.86-2.3,1.15-1.11-.13s.94-.93-.28,0-1.42.91-1-.14h0a.76.76,0,0,0-.14.22,3,3,0,0,1,2.27-2.63,3.12,3.12,0,0,0-2.41,1.89c-.62,1.47-1.35,1.56-1.35,1.56a2.82,2.82,0,0,1,1.35-2.67,4.3,4.3,0,0,0-2.34,2.37,3,3,0,0,1,1.14-2.24,3.55,3.55,0,0,0-1,.91c0-.16,0-.32.05-.47L74,4.83c-.46,1.25-2.78,1.36-2.78,1.36A6,6,0,0,1,74,1.73a7.07,7.07,0,0,0-3.76,4.46C69,5.3,69,2.89,69,2.89a5.79,5.79,0,0,0,0,3c-1.17-2.8-3-3.35-3-3.35a4,4,0,0,1,1.74,3C64.41,2.12,59.68,3.4,59.68,3.4c4.67-.49,5.72,3.17,5.72,3.17l60.51,0A2.55,2.55,0,0,1,123.24,3.58Z"/></g><path class="cls-7" d="M182.31,1.7a9.37,9.37,0,0,0-1,2.82c-.14-2.76-2.17-3.22-2.17-3.22-.25,3.33-2.2,3.73-2.2,3.73-.75-2.15,1.29-4.27,1.29-4.27a7.14,7.14,0,0,0-5.6,4.77,3.28,3.28,0,0,1,0-3.8c-1.85,1.14-2.34,2.34-2.44,3.08A4.41,4.41,0,0,0,167.45,1c.81,3.28-.78,4.52-.78,4.52a4,4,0,0,1,0-3.74,9.79,9.79,0,0,0-4.54,3.72A8.65,8.65,0,0,1,163.52.69a8.23,8.23,0,0,0-5.52,4A4.6,4.6,0,0,0,155.74.59c1.19,2.7-.08,4.2-.08,4.2a2.73,2.73,0,0,0-1-2.63C154.46,3.93,151.21,5,151.21,5a2.63,2.63,0,0,1,.61-2.26c-4.23.47-5,2.63-5,2.63a4,4,0,0,1,1.3-3.6c-4.23,1.1-4.54,3.59-4.54,3.59-.44-2.63-3.23-3.56-3.23-3.56a3.61,3.61,0,0,1,0,3.54,4.78,4.78,0,0,1-.44-1.57A4,4,0,0,0,138.23,5,5.79,5.79,0,0,1,139,3.6c-3,.56-3.56,1.74-3.56,1.74a3.08,3.08,0,0,1,2.35-2.64c-3.47-.05-4.69,1.85-4.69,1.85A9.3,9.3,0,0,1,134.25.82c-4.53,1-5,3.71-5,3.71A9.16,9.16,0,0,1,128.15,0c-1.14,1.43-1.08,4.32-1.08,4.32-1.11-3.61-5-2.51-5-2.51A4.88,4.88,0,0,1,125.68,4a6.26,6.26,0,0,0-7.2-.66c4.66-.48,5.72,3.18,5.72,3.18l60.5,0A6.94,6.94,0,0,1,182.31,1.7Z"/><g class="cls-2"><path class="cls-8" d="M162.09,1.59l.49-.25A1.85,1.85,0,0,0,162.09,1.59Z"/><path class="cls-4" d="M182,3.54a2.43,2.43,0,0,0,.67,2.75c-1.83-.06-1.62-1.19-1.62-1.19-.65,1.31-3.13,1-3.13,1A2.64,2.64,0,0,0,179.58,3C179.07,6.34,175,6.26,175,6.26a4,4,0,0,1,1.27-4.16,5.88,5.88,0,0,0-2.47,4.09h-.9a2.18,2.18,0,0,1-1.54-2.89c-1.06,1.9,0,3,0,3a1.3,1.3,0,0,1-1.1-1.43,1.51,1.51,0,0,1-1.66,1.57,3.67,3.67,0,0,0,.09-3.2c.44,3.15-1.75,3.19-1.75,3.19H164.4a3.17,3.17,0,0,1,.43-2.9,4.4,4.4,0,0,0-2.27,2.89h-1.78c-.94-.34-.56-1.91-.56-1.91a5,5,0,0,1,1.87-2.84c-1.55.91-2.33,2.69-3.15,3.71-1.06,1.3-3.55,1-3.55,1a3,3,0,0,0,1.15-4.48c1.27,4.79-4.35,4.46-4.35,4.46A3.17,3.17,0,0,0,154.38,4c-1.18,2.33-5.93,2.21-5.93,2.21a2.28,2.28,0,0,1,1.41-2.48,2.79,2.79,0,0,0-2.16,2.47h-.76c-2.87.07-1.46-2.55-1.46-2.55-1.35,1.46-.77,2.63-.77,2.63h-3a1.83,1.83,0,0,0,0-2.33c0,2.23-2.5,2.22-2.5,2.22a1.71,1.71,0,0,1,0-1.62A4.3,4.3,0,0,0,138.2,6.2c-.71-.11-.25-.82-.25-.82-.73.86-2.3,1.15-1.1-.13s.94-.92-.28,0-1.42.9-1-.14h0a1.17,1.17,0,0,0-.14.2,3,3,0,0,1,2.28-2.62,3.15,3.15,0,0,0-2.42,1.89C134.68,6.08,134,6.17,134,6.17a2.78,2.78,0,0,1,1.35-2.66A4.22,4.22,0,0,0,133,5.88a3,3,0,0,1,1.14-2.25,3.6,3.6,0,0,0-1,.92c0-.17,0-.32.07-.48l-.37.72C132.35,6.05,130,6.16,130,6.16a6,6,0,0,1,2.78-4.47,7.07,7.07,0,0,0-3.75,4.46c-1.24-.89-1.28-3.3-1.28-3.3a5.83,5.83,0,0,0,0,3.05c-1.18-2.81-3-3.36-3-3.36a4,4,0,0,1,1.74,3c-3.32-3.46-8-2.19-8-2.19,4.66-.48,5.72,3.18,5.72,3.18l60.5,0A2.54,2.54,0,0,1,182,3.54Z"/></g></g></g></svg>