<svg xmlns="http://www.w3.org/2000/svg" xmlns:xlink="http://www.w3.org/1999/xlink" viewBox="0 0 6.38 4.71"><defs><style>.cls-1{isolation:isolate;}.cls-2{fill:url(#radial-gradient);}.cls-3{fill:#273577;}.cls-3,.cls-6{opacity:0.31;mix-blend-mode:multiply;}.cls-4{fill:url(#radial-gradient-2);}.cls-5{fill:url(#radial-gradient-3);}.cls-6{fill:#9c1313;}</style><radialGradient id="radial-gradient" cx="0.89" cy="2.53" r="2.18" gradientUnits="userSpaceOnUse"><stop offset="0" stop-color="#1abcef"/><stop offset="0.11" stop-color="#1ea1dc"/><stop offset="0.28" stop-color="#237bc0"/><stop offset="0.42" stop-color="#2763af"/><stop offset="0.51" stop-color="#285aa9"/><stop offset="0.65" stop-color="#2857a5"/><stop offset="0.79" stop-color="#284f9a"/><stop offset="0.92" stop-color="#274187"/><stop offset="1" stop-color="#273577"/></radialGradient><radialGradient id="radial-gradient-2" cx="4.29" cy="2.43" r="2.18" xlink:href="#radial-gradient"/><radialGradient id="radial-gradient-3" cx="2.34" cy="1.1" r="3.01" gradientUnits="userSpaceOnUse"><stop offset="0" stop-color="#e53030"/><stop offset="0.3" stop-color="#d02020"/><stop offset="0.51" stop-color="#c71919"/><stop offset="0.66" stop-color="#c31818"/><stop offset="0.81" stop-color="#b81717"/><stop offset="0.95" stop-color="#a51414"/><stop offset="1" stop-color="#9c1313"/></radialGradient></defs><g class="cls-1"><g id="Layer_2" data-name="Layer 2"><g id="Layer_1-2" data-name="Layer 1"><path class="cls-2" d="M3,3.22A1.49,1.49,0,1,1,1.49,1.73,1.49,1.49,0,0,1,3,3.22Z"/><path class="cls-3" d="M1.49,1.73A1.49,1.49,0,1,0,3,3.22,1.49,1.49,0,0,0,1.49,1.73ZM1.39,4.4A1.28,1.28,0,1,1,2.66,3.13,1.27,1.27,0,0,1,1.39,4.4Z"/><path class="cls-4" d="M6.38,3.12A1.49,1.49,0,1,1,4.89,1.63,1.49,1.49,0,0,1,6.38,3.12Z"/><path class="cls-3" d="M4.89,1.63A1.49,1.49,0,1,0,6.38,3.12,1.49,1.49,0,0,0,4.89,1.63ZM4.79,4.3A1.28,1.28,0,1,1,6.06,3,1.28,1.28,0,0,1,4.79,4.3Z"/><path class="cls-5" d="M5.22,2.05A2.06,2.06,0,1,1,3.16,0,2.06,2.06,0,0,1,5.22,2.05Z"/><path class="cls-6" d="M3.16,0A2.06,2.06,0,1,0,5.22,2.05,2.05,2.05,0,0,0,3.16,0ZM3,3.68A1.76,1.76,0,1,1,4.78,1.93,1.75,1.75,0,0,1,3,3.68Z"/></g></g></g></svg>