<svg xmlns="http://www.w3.org/2000/svg" xmlns:xlink="http://www.w3.org/1999/xlink" viewBox="0 0 4.8 3.42"><defs><style>.cls-1{isolation:isolate;}.cls-2{fill:url(#radial-gradient);}.cls-3{fill:#9c1313;opacity:0.31;mix-blend-mode:multiply;}.cls-4{fill:url(#radial-gradient-2);}</style><radialGradient id="radial-gradient" cx="-117.39" cy="464.05" r="1.84" gradientTransform="matrix(0.66, 0.76, -0.76, 0.66, 428.73, -215.1)" gradientUnits="userSpaceOnUse"><stop offset="0" stop-color="#e53030"/><stop offset="0.3" stop-color="#d02020"/><stop offset="0.51" stop-color="#c71919"/><stop offset="0.66" stop-color="#c31818"/><stop offset="0.81" stop-color="#b81717"/><stop offset="0.95" stop-color="#a51414"/><stop offset="1" stop-color="#9c1313"/></radialGradient><radialGradient id="radial-gradient-2" cx="-115.21" cy="462.91" r="1.84" xlink:href="#radial-gradient"/></defs><g class="cls-1"><g id="Layer_2" data-name="Layer 2"><g id="Layer_1-2" data-name="Layer 1"><path class="cls-2" d="M2.08,2.21A1.26,1.26,0,0,1,.43.31,1.26,1.26,0,0,1,2.21.43,1.27,1.27,0,0,1,2.08,2.21Z"/><path class="cls-3" d="M2.21.43A1.26,1.26,0,0,0,.31,2.08a1.26,1.26,0,0,0,1.77.13A1.27,1.27,0,0,0,2.21.43ZM.45,1.84A1.07,1.07,0,1,1,2,2,1.07,1.07,0,0,1,.45,1.84Z"/><path class="cls-4" d="M4.37,3.11a1.26,1.26,0,1,1,.12-1.77A1.25,1.25,0,0,1,4.37,3.11Z"/><path class="cls-3" d="M4.49,1.34a1.25,1.25,0,1,0-.12,1.77A1.25,1.25,0,0,0,4.49,1.34ZM2.74,2.75A1.07,1.07,0,1,1,4.36,1.34,1.07,1.07,0,0,1,2.74,2.75Z"/></g></g></g></svg>