<svg xmlns="http://www.w3.org/2000/svg" viewBox="0 0 173.34 28.54"><defs><style>.cls-1{isolation:isolate;}.cls-2,.cls-3{fill:#b3905c;}.cls-3,.cls-8,.cls-9{opacity:0.5;}.cls-3,.cls-8{mix-blend-mode:multiply;}.cls-4{opacity:0.6;}.cls-5{fill:#7c4d14;}.cls-6{fill:#55361f;}.cls-7{fill:#8f612f;}.cls-9{fill:#fff;}</style></defs><g class="cls-1"><g id="Layer_2" data-name="Layer 2"><g id="Layer_1-2" data-name="Layer 1"><path class="cls-2" d="M173.33,1.16c-.08,0-2.54.12-4.83,0s-5.78.31-7.36.21a29,29,0,0,0-4.77,0,47,47,0,0,1-7.76-.14c-1.37-.24-4.9.19-6.51.18s-6-.17-7.74,0a21.31,21.31,0,0,1-4,0c-.94-.08-5.48-.1-7.47,0s-2.88-.06-5,.07a32,32,0,0,1-5.2-.23c-1.06-.09-9.26.25-11.31.17s-5.5.17-7.76,0a59,59,0,0,0-6.37.16,41.14,41.14,0,0,0-4.16-.17,50.4,50.4,0,0,1-6.18,0c-.82-.09-3.29.13-4.68.17S69.73,1.43,67,1.5s-7.92-.38-10.21-.17-5.12,0-7,.1a46.25,46.25,0,0,1-6.35,0,50.69,50.69,0,0,0-7.41.07,39.16,39.16,0,0,1-5.71-.13c-1.19-.07-6,0-6.85,0l-5.85-.07c-.68,0-1.65.11-2.54.21s-3.27.1-3.8.11S8.48,1.6,8,1.52a9.93,9.93,0,0,0-2-.08c-1.21,0-3.94-.11-4.43-.07S0,1.44,0,1.44v27.1H173.33Z"/><path class="cls-3" d="M167.34,1.9l.2.07a.38.38,0,0,0,.13,0c.17-.1.28-.08.37,0a.55.55,0,0,1,.33-.12.34.34,0,0,1,.14,0c.14.1.08,0,.22,0s.21-.13.32-.07.2.21.25.14a.32.32,0,0,1,.27-.16c.1,0,.27.16.36.09a.37.37,0,0,1,.31-.1c.14,0,.14.2.32.12a.44.44,0,0,1,.32-.06c.14.07.2-.09.34-.14a.26.26,0,0,1,.12,0c.14,0,.16,0,.34,0s.14-.06.21,0a4.13,4.13,0,0,1,.94-.3,4.33,4.33,0,0,1,.5-.08v0c-.08,0-2.54.12-4.83,0s-5.78.31-7.36.21a29,29,0,0,0-4.77,0,47,47,0,0,1-7.76-.14c-1.37-.24-4.9.19-6.51.18s-6-.17-7.74,0a21.31,21.31,0,0,1-4,0c-.94-.08-5.48-.1-7.47,0s-2.88-.06-5,.07a32,32,0,0,1-5.2-.23c-1.06-.09-9.26.25-11.31.17s-5.5.17-7.76,0a59,59,0,0,0-6.37.16,41.14,41.14,0,0,0-4.16-.17,50.4,50.4,0,0,1-6.18,0c-.82-.09-3.29.13-4.68.17S69.73,1.43,67,1.5s-7.92-.38-10.21-.17-5.12,0-7,.1a46.25,46.25,0,0,1-6.35,0,50.69,50.69,0,0,0-7.41.07,39.16,39.16,0,0,1-5.71-.13c-1.19-.07-6,0-6.85,0l-5.85-.07c-.68,0-1.65.11-2.54.21s-3.27.1-3.8.11S8.48,1.6,8,1.52a9.93,9.93,0,0,0-2-.08c-1.21,0-3.94-.11-4.43-.07S0,1.44,0,1.44v.28l.05,0c.11-.07.21-.08.32-.15a.09.09,0,0,1,.12,0,.82.82,0,0,0,.59.18.09.09,0,0,1,.11,0c.14.17.15.07.33.1s.33-.07.52-.11.22.07.41,0a.35.35,0,0,1,.33,0,.39.39,0,0,0,.44,0,.35.35,0,0,1,.12-.07.45.45,0,0,1,.23,0c.11.05.13.18.35.05A.16.16,0,0,1,4,1.76a.26.26,0,0,1,.23,0c.08.05.16.14.26.07a.32.32,0,0,1,.09,0,.3.3,0,0,1,.19.08c.13.1.33,0,.46,0a.49.49,0,0,1,.21,0,1.06,1.06,0,0,0,.3.1C5.9,2,5.87,2,6,1.92a.32.32,0,0,1,.27,0c.15.08.41,0,.57,0s.27.1.45.08.32-.09.41,0a.7.7,0,0,0,.44.08c.12,0,.28.1.38.08a.73.73,0,0,1,.3-.07c.12,0,.22.09.33,0a.32.32,0,0,1,.09,0,.65.65,0,0,1,.33.06c.14,0,.21-.16.44-.06s.37,0,.6,0a.33.33,0,0,1,.24,0c.11.09.3,0,.43,0a1.2,1.2,0,0,1,.33.06c.22,0,.39-.15.6-.15a1.78,1.78,0,0,0,.46,0c.16,0,.28,0,.45,0a1.55,1.55,0,0,1,.43,0,1.6,1.6,0,0,1,.58.15l.07,0,.07,0a.35.35,0,0,1,.26.07.61.61,0,0,0,.32.13c.09,0,.12.11.14.17a1.89,1.89,0,0,0,.2.46.42.42,0,0,1,.29-.12.25.25,0,0,1,.15.06c.14.1.37,0,.25-.14s0-.08.07-.08c.44,0,.35-.17.55-.37A3.67,3.67,0,0,1,16.93,2c.14-.11.29,0,.42,0s.39-.13.53-.12a.57.57,0,0,1,.23.08c.26.11.24,0,.38-.06a.53.53,0,0,1,.33,0l.07,0,.76-.07h0a.92.92,0,0,1,.37,0h.19a1.26,1.26,0,0,1,.55-.12c.18,0,.28.09.49.05a1.54,1.54,0,0,1,.3,0,3.39,3.39,0,0,0,.44.08,1.57,1.57,0,0,1,.3,0,.64.64,0,0,1,.27.07.56.56,0,0,0,.55,0,.6.6,0,0,1,.51,0l.09,0L24,2a.81.81,0,0,1,.39-.05.52.52,0,0,1,.21.07.5.5,0,0,0,.55-.07.52.52,0,0,1,.35-.06c.16,0,.18.2.25.28s.46-.09.59,0,.38.11.47,0A.57.57,0,0,1,27,2a.52.52,0,0,1,.25,0,1.34,1.34,0,0,0,.49,0,.65.65,0,0,1,.24,0,2.43,2.43,0,0,1,.2.14l.09,0a.2.2,0,0,0,.11,0c.14,0,.34-.09.46,0s.14.29.19.46.37.27.62.37c.17-.19.33,0,.54.06a2.83,2.83,0,0,0,.34-.51.19.19,0,0,1,.19-.13c.16,0,.18-.13.32-.13s.22.07.37,0a1.5,1.5,0,0,1,.94-.11c.26,0,.35-.1.61,0a3.84,3.84,0,0,1,.36.14l.1,0a.36.36,0,0,1,.21,0c.32,0,.4,0,.62-.19a.31.31,0,0,1,.25,0l0,0h.05l.1,0A1.27,1.27,0,0,1,34.89,2c.21-.05.36.1.6,0a.58.58,0,0,1,.32-.06A.44.44,0,0,1,36,2c.13.08.22,0,.3-.07a.41.41,0,0,1,.29,0c.1,0,.17.1.24.15.26.18.36-.11.54-.14s.23,0,.3,0,.3,0,.47,0a.48.48,0,0,1,.29,0s.08.07.12.1.22,0,.29-.07c.32-.14.52.23.77.1s.6.14.86,0a.57.57,0,0,1,.35-.09c.2,0,.32.17.54.16a1.77,1.77,0,0,1,.4,0,1.79,1.79,0,0,1,.45.19c.06,0,.36-.13.44-.15a.42.42,0,0,1,.27,0,.65.65,0,0,0,.62,0,.61.61,0,0,1,.33,0c.08,0,.14.06.21.09a.94.94,0,0,0,.49-.05.53.53,0,0,1,.31.06c.11.06.14.27.34.21a.39.39,0,0,1,.3,0,.38.38,0,0,1,.14.11c.14.14.19.09.34.11s.39.2.67.22.33.18.43.33a.72.72,0,0,1,.86,0,4.53,4.53,0,0,0,.67-.39,3.5,3.5,0,0,0,.54-.32l-.2-.06c-.1,0-.1-.12,0-.11a1.38,1.38,0,0,1,.32.07.71.71,0,0,0,.15-.15s.11,0,.14,0,.09.16.14.24a1.15,1.15,0,0,0,.2-.16.41.41,0,0,1,.29-.05c.08,0,.14.13.25.06l.12-.06c.08,0,.23-.08.31,0s.19.12.22.09l.16-.14c.15-.11.27,0,.35.08A.49.49,0,0,1,52,2.18c.28,0,.21-.15.4-.19s.19,0,.24.07.58,0,.6,0c.23,0,.34-.17.56-.11s.16.18.37.07a.62.62,0,0,1,.22-.1.48.48,0,0,1,.39,0,.48.48,0,0,0,.48.07,1,1,0,0,1,.17,0,.47.47,0,0,1,.41.14S56.3,2,56.39,2s.28.23.59.16a.77.77,0,0,1,.45,0c.18.06.23.28.44.16a.44.44,0,0,1,.37,0,5,5,0,0,1,.81.2,1.07,1.07,0,0,0,.49.19h.05s.13,0,.15,0a3,3,0,0,1,.55-.13.48.48,0,0,1,.31.17.74.74,0,0,1,.16-.2.1.1,0,0,1,.13,0,.71.71,0,0,0,.07.09.22.22,0,0,1,.2-.08c.17,0,.26.13.4,0s.37,0,.45.13a.66.66,0,0,1,.43-.17c.09,0,.07.1.19,0a.27.27,0,0,1,.16-.08.13.13,0,0,1,.11,0,.25.25,0,0,0,.22.07.58.58,0,0,1,.23,0c.15,0,.2-.12.25-.17.26-.25.52.12.68,0a2,2,0,0,1,.5-.13,1.58,1.58,0,0,1,.31-.09c.12,0,.18.08.32-.05a.23.23,0,0,1,.27-.07c.11,0,.09.17.32,0,0,0,.12-.08.18-.08a2.08,2.08,0,0,1,.61,0c.14,0,.19.11.35.1s.29.18.43.27a1,1,0,0,0,.56.17.23.23,0,0,1,.14.07,5.41,5.41,0,0,0,.8.28,1.68,1.68,0,0,1,.39.3.32.32,0,0,1,.4,0c.18-.25.29-.46.62-.26,0-.11.07-.27.24-.3a.44.44,0,0,1,.35.12,1.15,1.15,0,0,1,.11-.29s.07,0,.11,0a.71.71,0,0,1,.18.08c.06,0,0,0,.1-.07a.81.81,0,0,1,.24-.17c.11-.06.21,0,.28.09.07-.1.15-.23.29-.24a.52.52,0,0,1,.42.17.37.37,0,0,1,.29-.19c.13,0,.17.19.35,0a.15.15,0,0,1,.11-.06c.16,0,.19,0,.28.07s.37-.12.6-.11a.83.83,0,0,1,.27.07c.16.07.36,0,.5-.07a.49.49,0,0,1,.46.14c.12.1.19-.06.35,0s.41.17.64,0a.35.35,0,0,1,.37,0c.25.11.23.13.44,0a.29.29,0,0,1,.3,0c.09.06.24.31.39.24s.18-.11.27-.15a.57.57,0,0,1,.46,0c.15.06.16.15.36.11l.39-.11a2,2,0,0,0,.48-.05l.14,0a.34.34,0,0,1,.29.13.38.38,0,0,1,.2-.1c.15,0,.22.12.39,0a.71.71,0,0,1,.33-.1c.19,0,.23.1.47,0a.39.39,0,0,1,.4.06l.12,0h0a.21.21,0,0,1,.13,0l.18,0c.17,0,.24.14.42.11a.1.1,0,0,1,.09,0c.06.07,0,.12.09.19s.34.17.51,0a.24.24,0,0,1,.12,0,.32.32,0,0,0,.26-.14c.18-.16.32-.16.45,0,.15-.11.32-.29.53-.27a.23.23,0,0,1,.2.13c.1.15.25,0,.31-.09s.3,0,.4.05c.26.17.36-.15.61-.15s.37.32.52.19a.31.31,0,0,1,.42,0s0,.07.07.11.25-.07.3-.1a.36.36,0,0,1,.17-.07.46.46,0,0,1,.21.05c.07,0,.19.24.31.17s.38,0,.6.07.72-.13,1,.08.22,0,.35,0a.64.64,0,0,1,.21.14c.06.09.1.19.17.28s.31,0,.45,0,.41.13.53.22l.4.29c.14.09.13.06.29,0a1,1,0,0,1,.7.27c0-.11,0-.21,0-.29s.09-.08.14,0a1.19,1.19,0,0,1-.08-.2s.07-.07.12,0l.12,0c0-.16-.08-.31,0-.46a.09.09,0,0,1,.13,0l.13.05c.18-.21.29-.22.57-.08.15-.23.35-.53.59-.27a.48.48,0,0,1,.27-.25c.1,0,.32.1.37,0s.19-.23.35-.22a.46.46,0,0,1,.36.19c.08-.11.2-.26.37-.22s.19.14.24.25c.2-.15.44-.27.66,0-.06-.06.32-.19.37-.19a.26.26,0,0,1,.17,0,1,1,0,0,0,.45,0c.17,0,.27.34.42.26a.71.71,0,0,1,.45-.11c.12,0,.18.12.27.15a1.45,1.45,0,0,0,.42-.25.11.11,0,0,1,.11,0c.12.08.25-.07.37,0l.11,0,.09,0c.12-.08.24-.11.33,0a.31.31,0,0,1,.27-.09.15.15,0,0,1,.08,0,.65.65,0,0,0,.21-.05.59.59,0,0,1,.22,0c.14,0,.25,0,.38,0a.29.29,0,0,1,.17-.06c.12,0,.26.18.31.16a.89.89,0,0,1,.43-.08c.07,0,.13.2.27.13a.76.76,0,0,1,.18-.09.56.56,0,0,1,.45.12c.14.08.3-.07.43,0a.42.42,0,0,0,.48.07.29.29,0,0,1,.22.07c.14.1.26.19.43.06a.4.4,0,0,1,.21-.09.24.24,0,0,1,.22.06c.08.1.35-.15.44-.2a.18.18,0,0,1,.16,0c.15.06.25,0,.37-.11a.41.41,0,0,1,.29,0c.23.1.31-.07.51-.06a.9.9,0,0,1,.33.09c.25.11.4-.06.62-.06s.11.16.4,0A.46.46,0,0,1,109.6,2a1.74,1.74,0,0,1,.39.05.51.51,0,0,0,.28-.07.27.27,0,0,1,.23,0c.17.12.19,0,.34,0a.69.69,0,0,1,.32.08c.16.06.41,0,.54.07a.43.43,0,0,0,.37,0,.88.88,0,0,1,.28,0c.12.08.16,0,.27-.08a.32.32,0,0,1,.22,0,.47.47,0,0,0,.35,0,.31.31,0,0,1,.28,0s0,.05.06.08.33,0,.44,0a.66.66,0,0,1,.28,0c.19.07.22.1.41,0a.28.28,0,0,1,.25,0c.19.11.25,0,.4-.08s.33.1.42.21l0,0c0-.06.08-.08.13,0s.16,0,.21,0a.06.06,0,0,1,0,.1c.26-.19.51-.15.64,0a.62.62,0,0,1,.33-.13c.16,0,.3.07.45,0,.37-.11.44.23.8.14h.15a.53.53,0,0,1,.33,0,1.77,1.77,0,0,1,.17.12c.2.13.28-.06.34-.13s.32,0,.43.07c.26.11.42-.22.67-.07l.06.06a.23.23,0,0,0,.22-.08l.17-.08a.71.71,0,0,1,.29,0c.22.05.31-.21.56-.16a.26.26,0,0,1,.17.15c.11.25.31.14.51,0a.26.26,0,0,1,.38.07c.11-.07.28-.18.41-.15s.29.26.53.12.37-.12.52.05c.14-.07.35-.2.48-.08s.48-.07.72-.07c.06,0,.1,0,.15,0a.87.87,0,0,0,.36-.05h.26c.12,0,.16.16.2.25.3-.15.64-.46,1-.15.16.14.46-.11.66-.11s.3.29.56.1a.49.49,0,0,1,.41-.13.48.48,0,0,1,.23.13c.1.1.18.06.31,0a.47.47,0,0,1,.39.05c.23.21.45,0,.71,0a.6.6,0,0,1,.18.09c.11.07.39,0,.54.06s.28.4.42.3a.36.36,0,0,1,.36-.06c.2.05.07.25.35.17a.66.66,0,0,1,.28,0c.09,0,.17.13.28.05s.43,0,.71-.08.26-.17.46-.1a.22.22,0,0,0,.15,0,1.23,1.23,0,0,1,.18-.28c.19-.22.3-.14.49,0a.94.94,0,0,1,.24-.25.12.12,0,0,1,.13,0,.39.39,0,0,0,.08.1c.29-.15.44-.24.73-.08.13-.13.35-.33.53-.14s.35-.12.47-.12a.21.21,0,0,1,.17.11c.16-.08.29-.15.4,0a.62.62,0,0,1,.53-.07c.1,0,.09.1.24,0a.31.31,0,0,1,.21,0c.11,0,.18.14.31.09a2.25,2.25,0,0,1,.35-.09.29.29,0,0,1,.31.09c.12-.09.17,0,.34,0s.1.09.15.07.22-.15.35-.2a.09.09,0,0,1,.12,0,.43.43,0,0,0,0,.07.08.08,0,0,1,.09,0,.36.36,0,0,1,0,.09.71.71,0,0,1,.18-.12.09.09,0,0,1,.11,0l.09.12.06,0a.09.09,0,0,1,.13,0l0,.12a.09.09,0,0,1,.12,0l0,0a.3.3,0,0,1,.18-.08c.15,0,.12.15.34,0s.47-.23.65-.17l.09,0s.22,0,.27-.05a.73.73,0,0,1,.39,0l.09,0c.11.07.25-.11.3-.15a.37.37,0,0,1,.23-.1.3.3,0,0,1,.2.07,1.34,1.34,0,0,1,.11.14c0,.05.23-.1.25-.12a.76.76,0,0,1,.41-.1.61.61,0,0,1,.46,0l.12,0,.12,0c.16-.12.27-.21.45,0,.27-.17.37-.28.57,0a.51.51,0,0,1,.43-.08c.11,0,.16.1.29,0a.27.27,0,0,1,.2,0A.15.15,0,0,1,148,2c0,.14.12,0,.21,0a.37.37,0,0,1,.46.18c.26-.09.41-.12.48.09h0a.09.09,0,0,1,.13,0l.05.08c.1-.05.22-.12.31-.09s.16.21.36.12.36.09.43.24c.18-.13.45-.33.64-.09a1.28,1.28,0,0,1,.11.2c.06.11.22.15.31.23s.08.26.08.39c.19-.05.42-.1.52.07a.87.87,0,0,0,.12.14c.19-.22.45-.37.64-.1.1-.12.21-.29.4-.25s.26.05.38-.09a.5.5,0,0,1,.17-.11c.11,0,.35,0,.4.07v0A.44.44,0,0,0,154.4,3a.26.26,0,0,1,.16-.06.51.51,0,0,1,.27.06s0,0,0,0c.23-.06.26-.13.49-.08s.24.14.4,0a.39.39,0,0,1,.23-.14.45.45,0,0,1,.23,0,.54.54,0,0,0,.52-.08c.1-.06.31-.1.38,0s.12.28.21.19a1.31,1.31,0,0,1,.27-.12.49.49,0,0,1,.29,0c.22.05.29.15.51,0a.52.52,0,0,1,.51,0c.39.2.37,0,.69,0s.37.13.6-.06.29-.19.43-.08.33-.12.49-.24a.07.07,0,0,1,.09,0l.18.1c.11-.11.25-.33.43-.32a.29.29,0,0,1,.17.06s0,0,.05,0a1.83,1.83,0,0,1,.5-.16.76.76,0,0,1,.3,0l0,0a.41.41,0,0,1,.22,0l.11.08c.09.07.13,0,.25,0s.6-.16.74,0,.51,0,.56,0a.34.34,0,0,1,.26,0c.08,0,.19,0,.29,0a1.35,1.35,0,0,0,.45,0A.42.42,0,0,1,166,2c.18.1.26,0,.4-.11a.39.39,0,0,1,.28,0C166.92,1.92,167.14,1.84,167.34,1.9Z"/><g class="cls-4"><path class="cls-5" d="M3.81,5.59a.29.29,0,0,0-.28.11.17.17,0,0,0,.05.23h0a.29.29,0,0,0,.27,0h0c.07,0,.12-.1.11-.18A.19.19,0,0,0,3.81,5.59Z"/><path class="cls-5" d="M3.27,4.46c-.09-.23-.51-.2-.63,0h0a.22.22,0,0,0,.15.39h.14A.37.37,0,0,0,3.2,4.7s0,0,0,0A.21.21,0,0,0,3.27,4.46Z"/><path class="cls-5" d="M2.32,5.61a.49.49,0,0,0-.14-.19.79.79,0,0,0-.84,0,.53.53,0,0,0-.28.42h0c-.16.26,0,.55.38.62a.73.73,0,0,0,.46-.08l.09,0c.28-.06.48-.25.47-.47A.35.35,0,0,0,2.32,5.61Z"/><path class="cls-5" d="M4,7.07a.2.2,0,0,0-.15-.15h0a.77.77,0,0,0-.31-.12.6.6,0,0,0-.66.35c0,.2.12.36.35.44a.67.67,0,0,0,.54,0h.06c.12,0,.25-.08.27-.19A.3.3,0,0,0,4,7.07Z"/><path class="cls-5" d="M15.33,2.76a.25.25,0,0,0-.11-.14.62.62,0,0,0-.3-.16l-.08,0a.68.68,0,0,0-.62.09.4.4,0,0,0-.14.45.36.36,0,0,0,.18.35.68.68,0,0,0,.24.08,1.16,1.16,0,0,0,.37,0,.61.61,0,0,0,.55-.33A.36.36,0,0,0,15.33,2.76Z"/><path class="cls-5" d="M16.36,4.13a.37.37,0,0,0-.1-.26.49.49,0,0,0-.38-.27.54.54,0,0,0-.4.1l0,0a.46.46,0,0,0-.25.64h0a.49.49,0,0,0,.52.33.68.68,0,0,0,.38-.15.64.64,0,0,0,.16-.17A.41.41,0,0,0,16.36,4.13Z"/><path class="cls-5" d="M17.83,3.15a.3.3,0,0,0-.32-.07.47.47,0,0,0-.29.21,0,0,0,0,0,0,0v0a.11.11,0,0,0,0,.05.29.29,0,0,0,0,.16c0,.07.09.1.16.12a.36.36,0,0,0,.21,0,.41.41,0,0,0,.36-.26A.3.3,0,0,0,17.83,3.15Z"/><path class="cls-5" d="M18.36,2h0a.51.51,0,0,0-.17,0H18.1a.45.45,0,0,0-.23,0,.43.43,0,0,0-.36.26c-.05.18.06.31.25.38a.09.09,0,0,0,.06,0,.31.31,0,0,0,.19,0,.66.66,0,0,0,.46-.15A.28.28,0,0,0,18.36,2Z"/><path class="cls-5" d="M27.79,2.57a.19.19,0,0,0-.09,0v0a.27.27,0,0,0-.28-.14.61.61,0,0,0-.25.08A.25.25,0,0,0,27,2.8a.28.28,0,0,0,.13.09.41.41,0,0,0,.31.09.47.47,0,0,0,.37-.2A.18.18,0,0,0,27.79,2.57Z"/><path class="cls-5" d="M30.52,2.52A.65.65,0,0,0,30,2.36a1.34,1.34,0,0,0-.75.08.38.38,0,0,0-.25.44.4.4,0,0,0,.16.18.67.67,0,0,0,.76.2l.08,0A1,1,0,0,0,30.51,3,.33.33,0,0,0,30.52,2.52Z"/><path class="cls-5" d="M30.93,4.74a.23.23,0,0,0-.12.06.08.08,0,0,0,0,0c-.05.06,0,.14.07.17s.31-.06.3-.17S31,4.71,30.93,4.74Z"/><path class="cls-5" d="M29,3.88a.53.53,0,0,0-.31-.15.55.55,0,0,0-.61.31.28.28,0,0,0,0,.18.27.27,0,0,0,0,.12l.05.07,0,0h0a.67.67,0,0,0,.31.1.83.83,0,0,0,.59-.16C29.33,4.22,29.24,4,29,3.88Z"/><path class="cls-5" d="M47.1,2.69a.48.48,0,0,0-.22-.08,1,1,0,0,0-.53,0,.48.48,0,0,0-.42.45s0,0,0,0a.16.16,0,0,0,.08.13.27.27,0,0,0,.12.09l.09,0a.63.63,0,0,0,.36,0,1.63,1.63,0,0,0,.28-.07C47.15,3.17,47.35,2.9,47.1,2.69Z"/><path class="cls-5" d="M48.13,4.65h0a.16.16,0,0,0,0-.07v0A.29.29,0,0,0,48,4.21.59.59,0,0,0,47.63,4a.82.82,0,0,0-.72.22.36.36,0,0,0-.11.14.23.23,0,0,0,0,.24.72.72,0,0,0,.6.31.9.9,0,0,0,.71-.18l.05-.06Z"/><path class="cls-5" d="M52.41,2.56v0a.47.47,0,0,0-.48-.17c-.25,0-.46.18-.44.38a.4.4,0,0,0,.43.31c.23,0,.49-.08.54-.27A.23.23,0,0,0,52.41,2.56Z"/><path class="cls-5" d="M56.64,3.88a.37.37,0,0,0-.4-.2h0a.53.53,0,0,0-.28.07c-.11.06-.18.17-.13.27s0,0,0,0a.29.29,0,0,0,.22.21.54.54,0,0,0,.57-.15A.23.23,0,0,0,56.64,3.88Z"/><path class="cls-5" d="M54.72,6.67a.78.78,0,0,0-.56-.07.85.85,0,0,0-.32,0,.45.45,0,0,0-.34.56.62.62,0,0,0,.44.4.87.87,0,0,0,.91-.24A.44.44,0,0,0,54.72,6.67Z"/><path class="cls-5" d="M53.08,5.07c0-.09-.06-.15-.16-.18a.25.25,0,0,0-.19,0,.42.42,0,0,0-.24.09.18.18,0,0,0-.07.17.25.25,0,0,0,0,.07.21.21,0,0,0,.15.12.42.42,0,0,0,.33,0A.27.27,0,0,0,53.08,5.07Z"/><path class="cls-5" d="M54,5.32v0a.16.16,0,0,0-.13-.15.29.29,0,0,0-.31.09.67.67,0,0,0-.06.12.19.19,0,0,0,.24.2l.12,0C54,5.51,54,5.4,54,5.32Z"/><polygon class="cls-5" points="62.54 7.34 62.54 7.34 62.54 7.34 62.54 7.34"/><path class="cls-5" d="M62.54,7.34h0v0a.11.11,0,0,0,0-.08.27.27,0,0,0-.14-.14.45.45,0,0,0-.5,0,.25.25,0,0,0,0,.34.4.4,0,0,0,.28.17.36.36,0,0,0,.42-.24v0Z"/><path class="cls-5" d="M62.54,7.36v0h0Z"/><path class="cls-5" d="M66.67,4.23a1.13,1.13,0,0,0-.29-.15,1.14,1.14,0,0,0-1.08.13.52.52,0,0,0-.19.46h0c-.23.37.34.63.77.64h.23a1,1,0,0,0,.59-.24.76.76,0,0,0,.19-.21l0-.1a0,0,0,0,0,0,0A.44.44,0,0,0,66.67,4.23Z"/><path class="cls-5" d="M74.47,2.44a.84.84,0,0,0-.66,0c-.32,0-.62.21-.67.46s.09.39.36.47a.58.58,0,0,0,.19,0l.06,0a.64.64,0,0,0,.6-.1A.75.75,0,0,0,74.76,3C74.88,2.79,74.73,2.56,74.47,2.44Z"/><path class="cls-5" d="M71.64,2.64l-.14.07a.33.33,0,0,0-.17.2c0,.15.14.26.33.21a.55.55,0,0,0,.22-.1A.24.24,0,0,0,72,2.8C72,2.68,71.79,2.6,71.64,2.64Z"/><path class="cls-5" d="M76.14,3.11A.38.38,0,0,0,75.9,3a.53.53,0,0,0-.47.21.23.23,0,0,0,.08.33.42.42,0,0,0,.25.06l.1,0,.08,0c-.1.05.09,0,.06,0l.06,0a.33.33,0,0,0,.14-.18A.25.25,0,0,0,76.14,3.11Z"/><path class="cls-5" d="M73.61,5.2c.08.06-.06,0,0,0h0a.33.33,0,0,0-.4,0s0,0,0,0l0,0c-.07.08-.1.17,0,.25a.3.3,0,0,0,.26.08h0a.36.36,0,0,0,.31-.13A.18.18,0,0,0,73.61,5.2Z"/><path class="cls-5" d="M77.51,6a.4.4,0,0,0-.15-.17l-.08,0a.33.33,0,0,0-.19,0c-.22,0-.43.12-.43.31s.14.21.28.24a.56.56,0,0,0,.44,0A.24.24,0,0,0,77.51,6Z"/><path class="cls-5" d="M81.75,2.16a1,1,0,0,0-.66.06.8.8,0,0,0-.16.08h0l0,0v0h0a.34.34,0,0,0-.11.36A.42.42,0,0,0,81,3h0l0,0a.66.66,0,0,0,.28,0h.09l.08,0h.1l.06,0h0a.56.56,0,0,0,.38-.4A.38.38,0,0,0,81.75,2.16Z"/><path class="cls-5" d="M82.3,5.2A.35.35,0,0,0,82.09,5a.5.5,0,0,0-.21,0c-.09,0-.16.09-.16.17a.11.11,0,0,0,0,.07.17.17,0,0,0,.09.14.38.38,0,0,0,.37,0C82.28,5.35,82.34,5.27,82.3,5.2Z"/><path class="cls-5" d="M89.24,2.55c0-.23-.38-.3-.66-.26a1,1,0,0,0-.68.11c-.31.2-.37.55,0,.76a.64.64,0,0,0,.24.1,1,1,0,0,0,1-.18.48.48,0,0,0,.13-.21A.58.58,0,0,0,89.24,2.55Z"/><path class="cls-5" d="M87.91,4.49a.13.13,0,0,0-.06-.07.27.27,0,0,0-.28-.14c-.15,0-.28.12-.27.24a.35.35,0,0,0,.17.27.31.31,0,0,0,.4-.08A.25.25,0,0,0,87.91,4.49Z"/><path class="cls-5" d="M90.81,2.83l-.07-.05a.24.24,0,0,0-.26,0,.12.12,0,0,0,0,.14.09.09,0,0,0,0,.13.28.28,0,0,0,.33,0A.12.12,0,0,0,90.81,2.83Z"/><path class="cls-5" d="M92,4.84a.44.44,0,0,0-.2-.23h0a.65.65,0,0,0-.57-.09l-.05,0-.17,0c-.33.09-.54.32-.46.58s.33.32.58.36C91.57,5.61,92.14,5.18,92,4.84Z"/><path class="cls-5" d="M99.86,2.84c-1-.17-1.51.79-.87,1.27a1.2,1.2,0,0,0,1.56-.42A.77.77,0,0,0,99.86,2.84Z"/><path class="cls-5" d="M104.8,2.94a.36.36,0,0,0,0-.47.66.66,0,0,0-.64-.13.54.54,0,0,0-.28.19c-.17.08-.29.21-.26.36a.47.47,0,0,0,.54.29l.07,0a.41.41,0,0,0,.36-.08.23.23,0,0,0,.1-.12Z"/><path class="cls-5" d="M105.37,5.3h0a.3.3,0,0,0-.08-.2.42.42,0,0,0-.59,0l-.1.07a.28.28,0,0,0-.08.33c.08.21.41.24.61.13h0a.38.38,0,0,0,.13-.09.27.27,0,0,0,.09-.22Z"/><path class="cls-5" d="M108,3.31c-.22,0-.22.27,0,.27S108.23,3.31,108,3.31Z"/><path class="cls-5" d="M96.49,3.06A.22.22,0,0,0,96.34,3h0a.33.33,0,0,0-.19,0h0a.22.22,0,0,0-.12.13.18.18,0,0,0,.19.22.49.49,0,0,0,.21,0C96.51,3.26,96.57,3.15,96.49,3.06Z"/><path class="cls-5" d="M96.31,5.23c-.37,0-.37.45,0,.45S96.71,5.23,96.31,5.23Z"/><path class="cls-5" d="M113.28,5.25a.51.51,0,0,0-.63-.1l0,0-.07,0a.26.26,0,0,0-.12.31l0,.05a.36.36,0,0,0,0,.11.43.43,0,0,0,.4.12.57.57,0,0,0,.36-.15A.28.28,0,0,0,113.28,5.25Z"/><path class="cls-5" d="M115.72,2.81a.76.76,0,0,0-.8-.38.86.86,0,0,0-.44.21.24.24,0,0,0-.08.06.29.29,0,0,0,0,.4h0a.48.48,0,0,0,.27.27,1,1,0,0,0,.45.1.7.7,0,0,0,.37-.1A.47.47,0,0,0,115.72,2.81Z"/><path class="cls-5" d="M120.83,6.72a.56.56,0,0,0-.52-.1l-.1,0a.41.41,0,0,0-.26.2h0a.32.32,0,0,0,0,.25c0,.1.13.16.24.22a.58.58,0,0,0,.41,0,.33.33,0,0,0,.14-.12A.32.32,0,0,0,120.83,6.72Z"/><path class="cls-5" d="M124.24,2.85a.27.27,0,0,0-.27.24c0,.12.14.18.29.18a.26.26,0,0,0,.27-.23C124.53,2.91,124.39,2.85,124.24,2.85Z"/><path class="cls-5" d="M129.31,3a.38.38,0,0,0-.22-.19.36.36,0,0,0-.23,0h-.13a.46.46,0,0,0-.44.32.35.35,0,0,0,.27.42h.05a.58.58,0,0,0,.58-.14l.08-.12A.29.29,0,0,0,129.31,3Z"/><path class="cls-5" d="M133.85,6.19a.6.6,0,0,0-.2-.08h-.15l-.15,0a.6.6,0,0,0-.36.22c-.14.24,0,.52.4.54a.66.66,0,0,0,.67-.34A.32.32,0,0,0,133.85,6.19Z"/><path class="cls-5" d="M138.76,2.94a.76.76,0,0,0-.3,0,1,1,0,0,0-.56.23.45.45,0,0,0-.17.53l0,0a.35.35,0,0,0,.05.08.62.62,0,0,0,.51.19h.16a1,1,0,0,0,.71-.42C139.33,3.3,139.15,3,138.76,2.94Z"/><path class="cls-5" d="M139.86,4.3a.27.27,0,0,0-.39.12c0,.1.07.19.19.2h.14a.23.23,0,0,0,.14-.13A.15.15,0,0,0,139.86,4.3Z"/><path class="cls-5" d="M145.78,2.47a.45.45,0,0,0-.28-.24.72.72,0,0,0-.48,0c-.34.07-.57.31-.51.57s.45.37.75.27h0a.45.45,0,0,0,.16,0C145.71,2.92,145.85,2.7,145.78,2.47Z"/><path class="cls-5" d="M148.91,4.07l-.08,0a.32.32,0,0,0-.27,0,.22.22,0,0,0-.08.37.29.29,0,0,0,.3.07c.15-.06.26-.12.27-.26A.19.19,0,0,0,148.91,4.07Z"/><path class="cls-5" d="M147.65,5.51a.57.57,0,0,0-.46,0l-.07,0,0,0h0l-.12.07a.33.33,0,0,0-.1.17.2.2,0,0,0,0,.13c0,.13.12.22.27.24l.13,0a.76.76,0,0,0,.42-.09.47.47,0,0,0,.25-.34A.31.31,0,0,0,147.65,5.51Z"/><path class="cls-5" d="M159.55,6.08a.37.37,0,0,0-.11-.19.17.17,0,0,0-.06-.06.91.91,0,0,0-.88,0,.4.4,0,0,0-.27.32l0,0a.21.21,0,0,0,0,.26.56.56,0,0,0,.33.18.62.62,0,0,0,.7-.08A.4.4,0,0,0,159.55,6.08Z"/><path class="cls-5" d="M159.06,2.88a.28.28,0,0,0-.27-.06.26.26,0,0,0-.16.15.14.14,0,0,0,0,.14.17.17,0,0,0,.17.11.31.31,0,0,0,.19,0,.19.19,0,0,0,.11-.08A.17.17,0,0,0,159.06,2.88Z"/><path class="cls-5" d="M163.24,3.29a.29.29,0,0,0-.29-.13c-.31,0-.48.27-.32.46a.28.28,0,0,0,.24.09.66.66,0,0,0,.27-.1.43.43,0,0,0,.1-.09A.24.24,0,0,0,163.24,3.29Z"/><path class="cls-5" d="M166,3.16c-.27,0-.27.33,0,.33S166.24,3.16,166,3.16Z"/><path class="cls-5" d="M169,4.49a.28.28,0,0,0-.17-.11l-.05,0h0l-.08,0h-.1a.5.5,0,0,0-.37.11h0c-.16.11-.29.25-.24.42a.3.3,0,0,0,.18.15l.1,0a.7.7,0,0,0,.45,0,.5.5,0,0,0,.28-.22A.29.29,0,0,0,169,4.49Z"/><path class="cls-5" d="M159.77,8.17c0-.16-.18-.26-.37-.28l-.13,0a.53.53,0,0,0-.43.14l0,0a.31.31,0,0,0-.2.31c0,.14.13.23.29.29a.66.66,0,0,0,.46,0l.13-.06.09-.06A.48.48,0,0,0,159.77,8.17Z"/><path class="cls-5" d="M3.81,23.83a.32.32,0,0,0-.28.11.15.15,0,0,0,.05.22h0a.29.29,0,0,0,.27,0h0C4,24.12,4,24.07,4,24A.19.19,0,0,0,3.81,23.83Z"/><path class="cls-5" d="M3.27,22.7c-.09-.23-.51-.2-.63,0h0a.22.22,0,0,0,.15.39h.14a.37.37,0,0,0,.27-.15.1.1,0,0,0,0,0A.19.19,0,0,0,3.27,22.7Z"/><path class="cls-5" d="M2.32,23.85a.49.49,0,0,0-.14-.19.79.79,0,0,0-.84,0,.53.53,0,0,0-.28.42h0c-.16.26,0,.55.38.62a.73.73,0,0,0,.46-.08l.09,0c.28-.06.48-.25.47-.47A.35.35,0,0,0,2.32,23.85Z"/><path class="cls-5" d="M4,25.31a.2.2,0,0,0-.15-.15h0A.77.77,0,0,0,3.48,25a.6.6,0,0,0-.66.35c0,.2.12.36.35.44a.67.67,0,0,0,.54,0h.06c.12,0,.25-.08.27-.19A.3.3,0,0,0,4,25.31Z"/><path class="cls-5" d="M15.33,21a.25.25,0,0,0-.11-.14.72.72,0,0,0-.3-.17h-.08a.68.68,0,0,0-.62.09.4.4,0,0,0-.14.45.36.36,0,0,0,.18.35.68.68,0,0,0,.24.08,1.16,1.16,0,0,0,.37,0,.61.61,0,0,0,.55-.33A.36.36,0,0,0,15.33,21Z"/><path class="cls-5" d="M16.36,22.37a.36.36,0,0,0-.1-.26.49.49,0,0,0-.38-.27.59.59,0,0,0-.4.1l0,0a.46.46,0,0,0-.25.64h0a.49.49,0,0,0,.52.33.68.68,0,0,0,.38-.15.64.64,0,0,0,.16-.17A.41.41,0,0,0,16.36,22.37Z"/><path class="cls-5" d="M17.83,21.39a.3.3,0,0,0-.32-.07.47.47,0,0,0-.29.21v0a.11.11,0,0,0,0,.05.29.29,0,0,0,0,.16.19.19,0,0,0,.16.12.36.36,0,0,0,.21,0,.41.41,0,0,0,.36-.26A.3.3,0,0,0,17.83,21.39Z"/><path class="cls-5" d="M18.36,20.25h0a.51.51,0,0,0-.17,0H18.1a.45.45,0,0,0-.23,0,.43.43,0,0,0-.36.26c-.05.18.06.31.25.38,0,0,0,0,.06,0a.31.31,0,0,0,.19,0,.66.66,0,0,0,.46-.15A.28.28,0,0,0,18.36,20.25Z"/><path class="cls-5" d="M27.79,20.82a.15.15,0,0,0-.09-.06v0a.27.27,0,0,0-.28-.14.61.61,0,0,0-.25.08A.25.25,0,0,0,27,21a.28.28,0,0,0,.13.09.41.41,0,0,0,.31.09.5.5,0,0,0,.37-.2A.16.16,0,0,0,27.79,20.82Z"/><path class="cls-5" d="M30.52,20.77A.62.62,0,0,0,30,20.6a1.34,1.34,0,0,0-.75.08.38.38,0,0,0-.25.44.46.46,0,0,0,.16.18.67.67,0,0,0,.76.2l.08,0a1,1,0,0,0,.47-.23A.32.32,0,0,0,30.52,20.77Z"/><path class="cls-5" d="M30.93,23a.23.23,0,0,0-.12.06l0,0c-.05.06,0,.14.07.17s.31-.06.3-.17S31,23,30.93,23Z"/><path class="cls-5" d="M31,23.71a.49.49,0,0,0-.32-.16.55.55,0,0,0-.6.31.27.27,0,0,0,0,.18.21.21,0,0,0,0,.12.12.12,0,0,0,.05.07.1.1,0,0,0,0,0h0a.61.61,0,0,0,.31.11.79.79,0,0,0,.58-.17C31.35,24.05,31.26,23.83,31,23.71Z"/><path class="cls-5" d="M47.1,20.93a.48.48,0,0,0-.22-.08,1,1,0,0,0-.53,0,.48.48,0,0,0-.42.45s0,0,0,0a.16.16,0,0,0,.08.13.27.27,0,0,0,.12.09l.09,0a.55.55,0,0,0,.36,0,1.06,1.06,0,0,0,.28-.06C47.15,21.41,47.35,21.14,47.1,20.93Z"/><path class="cls-5" d="M48.13,22.89h0a.25.25,0,0,0,0-.07s0,0,0,0v0a.29.29,0,0,0-.14-.32.59.59,0,0,0-.41-.23.82.82,0,0,0-.72.22.36.36,0,0,0-.11.14.23.23,0,0,0,0,.24.72.72,0,0,0,.6.31.9.9,0,0,0,.71-.18l.05-.06Z"/><path class="cls-5" d="M52.41,20.8v0a.45.45,0,0,0-.48-.17c-.25,0-.46.18-.44.38a.4.4,0,0,0,.43.31c.23,0,.49-.08.54-.27A.23.23,0,0,0,52.41,20.8Z"/><path class="cls-5" d="M56.64,22.12a.37.37,0,0,0-.4-.2h0A.53.53,0,0,0,56,22c-.11.06-.18.17-.13.27l0,0a.29.29,0,0,0,.22.21.54.54,0,0,0,.57-.15A.24.24,0,0,0,56.64,22.12Z"/><path class="cls-5" d="M56,23a.81.81,0,0,0-.55-.07.89.89,0,0,0-.33,0,.47.47,0,0,0-.34.56.65.65,0,0,0,.44.41.87.87,0,0,0,.92-.25A.43.43,0,0,0,56,23Z"/><path class="cls-5" d="M53.08,23.31c0-.09-.06-.15-.16-.19a.31.31,0,0,0-.19,0,.36.36,0,0,0-.24.09.16.16,0,0,0-.07.16.24.24,0,0,0,0,.08.21.21,0,0,0,.15.12.42.42,0,0,0,.33,0A.27.27,0,0,0,53.08,23.31Z"/><path class="cls-5" d="M54,23.56v0a.16.16,0,0,0-.13-.15.29.29,0,0,0-.31.09.67.67,0,0,0-.06.12.19.19,0,0,0,.24.2l.12,0C54,23.75,54,23.65,54,23.56Z"/><polygon class="cls-5" points="62.54 25.58 62.54 25.58 62.54 25.58 62.54 25.58"/><path class="cls-5" d="M62.54,25.58h0s0,0,0,0a.11.11,0,0,0,0-.08.32.32,0,0,0-.14-.14.45.45,0,0,0-.5,0,.25.25,0,0,0,0,.34.4.4,0,0,0,.28.17.37.37,0,0,0,.42-.24v-.05Z"/><path class="cls-5" d="M62.54,25.6v0h0Z"/><path class="cls-5" d="M66.67,22.47a1.13,1.13,0,0,0-.29-.15,1.14,1.14,0,0,0-1.08.13.52.52,0,0,0-.19.46h0c-.23.37.34.63.77.64h.23a1,1,0,0,0,.59-.24.76.76,0,0,0,.19-.21l0-.1v0A.44.44,0,0,0,66.67,22.47Z"/><path class="cls-5" d="M74.47,20.68a.84.84,0,0,0-.66,0c-.32,0-.62.21-.67.45s.09.4.36.48a.58.58,0,0,0,.19,0l.06,0a.64.64,0,0,0,.6-.1.75.75,0,0,0,.41-.29C74.88,21,74.73,20.8,74.47,20.68Z"/><path class="cls-5" d="M71.64,20.88,71.5,21a.33.33,0,0,0-.17.2c0,.15.14.26.33.21a.44.44,0,0,0,.22-.1A.24.24,0,0,0,72,21C72,20.92,71.79,20.84,71.64,20.88Z"/><path class="cls-5" d="M76.14,21.35a.33.33,0,0,0-.24-.1.53.53,0,0,0-.47.21.23.23,0,0,0,.08.33.42.42,0,0,0,.25.06l.1,0,.08,0c-.1.05.09,0,.06,0l.06,0a.33.33,0,0,0,.14-.18A.25.25,0,0,0,76.14,21.35Z"/><path class="cls-5" d="M73.61,23.44c.08.06-.06-.06,0,0h0a.33.33,0,0,0-.4,0l0,0,0,0c-.07.08-.1.17,0,.25a.3.3,0,0,0,.26.08h0a.36.36,0,0,0,.31-.13A.18.18,0,0,0,73.61,23.44Z"/><path class="cls-5" d="M77.51,24.2a.4.4,0,0,0-.15-.17l-.08,0a.33.33,0,0,0-.19,0c-.22,0-.43.12-.43.31s.14.21.28.24a.56.56,0,0,0,.44,0A.24.24,0,0,0,77.51,24.2Z"/><path class="cls-5" d="M81.75,20.4a1.12,1.12,0,0,0-.66.05l-.16.09h0l0,0v0h0a.34.34,0,0,0-.11.36.42.42,0,0,0,.25.29h0l0,0a.87.87,0,0,0,.28,0h.27l.06,0h0a.56.56,0,0,0,.38-.4A.38.38,0,0,0,81.75,20.4Z"/><path class="cls-5" d="M82.3,23.44a.35.35,0,0,0-.21-.16.5.5,0,0,0-.21,0c-.09,0-.16.09-.16.17a.11.11,0,0,0,0,.07.17.17,0,0,0,.09.14.35.35,0,0,0,.37,0C82.28,23.59,82.34,23.51,82.3,23.44Z"/><path class="cls-5" d="M89.24,20.79c0-.23-.38-.3-.66-.26a1,1,0,0,0-.68.11c-.31.2-.37.55,0,.76a.64.64,0,0,0,.24.1,1,1,0,0,0,1-.18.48.48,0,0,0,.13-.21A.58.58,0,0,0,89.24,20.79Z"/><path class="cls-5" d="M87.91,22.73a.13.13,0,0,0-.06-.07.27.27,0,0,0-.28-.14c-.15,0-.28.12-.27.23a.36.36,0,0,0,.17.28.31.31,0,0,0,.4-.08A.25.25,0,0,0,87.91,22.73Z"/><path class="cls-5" d="M90.81,21.07,90.74,21a.24.24,0,0,0-.26,0,.12.12,0,0,0,0,.14.09.09,0,0,0,0,.13.28.28,0,0,0,.33,0A.12.12,0,0,0,90.81,21.07Z"/><path class="cls-5" d="M92,23.08a.44.44,0,0,0-.2-.23h0a.65.65,0,0,0-.57-.09l-.05,0-.17,0c-.33.09-.54.32-.46.58s.33.32.58.36C91.57,23.85,92.14,23.42,92,23.08Z"/><path class="cls-5" d="M99.86,21.08c-1-.17-1.51.79-.87,1.27a1.2,1.2,0,0,0,1.56-.42A.77.77,0,0,0,99.86,21.08Z"/><path class="cls-5" d="M104.8,21.18a.36.36,0,0,0,0-.47.66.66,0,0,0-.64-.13.54.54,0,0,0-.28.19.35.35,0,0,0-.26.36.47.47,0,0,0,.54.29l.07,0a.38.38,0,0,0,.36-.07.23.23,0,0,0,.1-.12Z"/><path class="cls-5" d="M105.37,23.54h0a.29.29,0,0,0-.08-.2.42.42,0,0,0-.59,0l-.1.07a.28.28,0,0,0-.08.33c.08.21.41.24.61.13h0a.38.38,0,0,0,.13-.09.27.27,0,0,0,.09-.22Z"/><path class="cls-5" d="M108,21.55c-.22,0-.22.27,0,.27S108.23,21.55,108,21.55Z"/><path class="cls-5" d="M96.49,21.3a.22.22,0,0,0-.15-.08h0a.33.33,0,0,0-.19,0h0a.22.22,0,0,0-.12.13.18.18,0,0,0,.19.22.49.49,0,0,0,.21,0C96.51,21.5,96.57,21.39,96.49,21.3Z"/><path class="cls-5" d="M96.31,23.47c-.37,0-.37.45,0,.45S96.71,23.47,96.31,23.47Z"/><path class="cls-5" d="M113.28,23.49a.51.51,0,0,0-.63-.1l0,0-.07,0a.26.26,0,0,0-.12.31l0,0a.36.36,0,0,0,0,.11.45.45,0,0,0,.4.12.52.52,0,0,0,.36-.15A.28.28,0,0,0,113.28,23.49Z"/><path class="cls-5" d="M115.72,21.05a.76.76,0,0,0-.8-.38.86.86,0,0,0-.44.21.24.24,0,0,0-.08.06.29.29,0,0,0,0,.4h0a.48.48,0,0,0,.27.27,1,1,0,0,0,.45.1.7.7,0,0,0,.37-.1A.47.47,0,0,0,115.72,21.05Z"/><path class="cls-5" d="M120.83,25a.56.56,0,0,0-.52-.1l-.1,0a.41.41,0,0,0-.26.2h0a.31.31,0,0,0,0,.25.39.39,0,0,0,.24.21.53.53,0,0,0,.41,0,.33.33,0,0,0,.14-.12A.32.32,0,0,0,120.83,25Z"/><path class="cls-5" d="M124.24,21.09a.27.27,0,0,0-.27.24c0,.12.14.18.29.18a.26.26,0,0,0,.27-.24C124.53,21.15,124.39,21.09,124.24,21.09Z"/><path class="cls-5" d="M129.31,21.24a.35.35,0,0,0-.22-.19.44.44,0,0,0-.23,0,.56.56,0,0,0-.13,0,.46.46,0,0,0-.44.32.35.35,0,0,0,.27.42h.05a.63.63,0,0,0,.58-.14l.08-.12A.29.29,0,0,0,129.31,21.24Z"/><path class="cls-5" d="M133.85,24.43a.43.43,0,0,0-.2-.07h-.15l-.15.05a.6.6,0,0,0-.36.22c-.14.24,0,.52.4.54a.66.66,0,0,0,.67-.34A.32.32,0,0,0,133.85,24.43Z"/><path class="cls-5" d="M138.76,21.18a.76.76,0,0,0-.3,0,1,1,0,0,0-.56.23.45.45,0,0,0-.17.53l0,0a.35.35,0,0,0,.05.08.62.62,0,0,0,.51.19h.16a1,1,0,0,0,.71-.42C139.33,21.54,139.15,21.24,138.76,21.18Z"/><path class="cls-5" d="M139.86,22.54a.27.27,0,0,0-.39.12c0,.1.07.19.19.2a.33.33,0,0,0,.14,0,.23.23,0,0,0,.14-.13A.15.15,0,0,0,139.86,22.54Z"/><path class="cls-5" d="M145.78,20.71a.45.45,0,0,0-.28-.24.79.79,0,0,0-.48,0c-.34.08-.57.32-.51.58s.45.37.75.27h0a.45.45,0,0,0,.16,0C145.71,21.16,145.85,20.94,145.78,20.71Z"/><path class="cls-5" d="M148.91,22.31l-.08,0a.36.36,0,0,0-.27,0,.23.23,0,0,0-.08.38.29.29,0,0,0,.3.07c.15-.06.26-.12.27-.26A.19.19,0,0,0,148.91,22.31Z"/><path class="cls-5" d="M147.65,23.75a.61.61,0,0,0-.46,0l-.07,0,0,0h0l-.12.07a.33.33,0,0,0-.1.17.2.2,0,0,0,0,.13c0,.13.12.22.27.24l.13,0a.76.76,0,0,0,.42-.09.47.47,0,0,0,.25-.34A.31.31,0,0,0,147.65,23.75Z"/><path class="cls-5" d="M157.18,23.29a.32.32,0,0,0-.1-.19L157,23a.94.94,0,0,0-.88-.06.43.43,0,0,0-.27.33s0,0,0,0a.21.21,0,0,0,0,.26.56.56,0,0,0,.33.18.63.63,0,0,0,.71-.08C157.08,23.6,157.21,23.46,157.18,23.29Z"/><path class="cls-5" d="M159.06,21.12a.28.28,0,0,0-.27-.06.26.26,0,0,0-.16.15.14.14,0,0,0,0,.14.18.18,0,0,0,.17.11.41.41,0,0,0,.19,0,.2.2,0,0,0,.11-.09A.16.16,0,0,0,159.06,21.12Z"/><path class="cls-5" d="M163.24,21.53a.29.29,0,0,0-.29-.13c-.31,0-.48.27-.32.46a.28.28,0,0,0,.24.09.66.66,0,0,0,.27-.1.43.43,0,0,0,.1-.09A.24.24,0,0,0,163.24,21.53Z"/><path class="cls-5" d="M166,21.4c-.27,0-.27.33,0,.33S166.24,21.4,166,21.4Z"/><path class="cls-5" d="M169,22.73a.28.28,0,0,0-.17-.11l-.05,0h0l-.08,0h-.1a.46.46,0,0,0-.37.11h0c-.16.11-.29.25-.24.42a.3.3,0,0,0,.18.15l.1.05a.7.7,0,0,0,.45,0,.5.5,0,0,0,.28-.22A.29.29,0,0,0,169,22.73Z"/><path class="cls-5" d="M159.77,26.41c0-.16-.18-.26-.37-.28l-.13-.05a.5.5,0,0,0-.43.15s0,0,0,0a.31.31,0,0,0-.2.31c0,.14.13.23.29.29a.66.66,0,0,0,.46,0l.13-.06.09-.06A.48.48,0,0,0,159.77,26.41Z"/><path class="cls-5" d="M166.25,18.7a.32.32,0,0,1,.28.12.16.16,0,0,1-.06.22h0a.31.31,0,0,1-.28,0h0a.18.18,0,0,1,.08-.34Z"/><path class="cls-5" d="M166.84,17.79l0,0a.32.32,0,0,0,.26.14h.15a.22.22,0,0,0,.15-.4h0c-.13-.19-.55-.21-.63,0A.19.19,0,0,0,166.84,17.79Z"/><path class="cls-5" d="M167.73,18.72a.5.5,0,0,1,.15-.18.79.79,0,0,1,.84,0,.5.5,0,0,1,.28.41h0c.16.26,0,.55-.39.62a.67.67,0,0,1-.46-.08h-.09a.54.54,0,0,1-.47-.47A.4.4,0,0,1,167.73,18.72Z"/><path class="cls-5" d="M166.09,20.18a.26.26,0,0,1,.16-.15h0a.73.73,0,0,1,.31-.13.6.6,0,0,1,.65.36c0,.19-.12.35-.35.44a.67.67,0,0,1-.54,0h-.05c-.12,0-.26-.09-.27-.2A.33.33,0,0,1,166.09,20.18Z"/><path class="cls-5" d="M154.73,15.87a.26.26,0,0,1,.1-.14.72.72,0,0,1,.3-.16l.08,0a.71.71,0,0,1,.62.09.4.4,0,0,1,.15.46.36.36,0,0,1-.19.34.85.85,0,0,1-.24.09,1.11,1.11,0,0,1-.36,0,.59.59,0,0,1-.55-.33A.34.34,0,0,1,154.73,15.87Z"/><path class="cls-5" d="M153.7,17.25a.38.38,0,0,1,.09-.26.51.51,0,0,1,.38-.27.52.52,0,0,1,.41.1h0a.47.47,0,0,1,.26.65h0a.49.49,0,0,1-.52.33.63.63,0,0,1-.38-.15.55.55,0,0,1-.17-.17A.43.43,0,0,1,153.7,17.25Z"/><path class="cls-5" d="M152.23,16.27a.33.33,0,0,1,.32-.08.45.45,0,0,1,.29.22s0,0,0,0,0,0,0,0a.07.07,0,0,1,0,.05.26.26,0,0,1,0,.15.2.2,0,0,1-.17.12.35.35,0,0,1-.2,0,.44.44,0,0,1-.37-.27A.29.29,0,0,1,152.23,16.27Z"/><path class="cls-5" d="M151.7,15.12h0a.37.37,0,0,1,.18,0h0a.39.39,0,0,1,.24,0,.44.44,0,0,1,.36.25c0,.18-.07.32-.26.39l0,0a.62.62,0,0,1-.19,0,.75.75,0,0,1-.46-.15A.28.28,0,0,1,151.7,15.12Z"/><path class="cls-5" d="M142.27,15.69a.24.24,0,0,1,.08-.06v0a.27.27,0,0,1,.28-.13.66.66,0,0,1,.25.07.24.24,0,0,1,.17.37.27.27,0,0,1-.12.09.48.48,0,0,1-.32.09.46.46,0,0,1-.36-.21A.15.15,0,0,1,142.27,15.69Z"/><path class="cls-5" d="M139.54,15.64a.7.7,0,0,1,.48-.17,1.35,1.35,0,0,1,.75.08A.37.37,0,0,1,141,16a.4.4,0,0,1-.15.19.68.68,0,0,1-.77.19l-.07,0a.81.81,0,0,1-.47-.23A.31.31,0,0,1,139.54,15.64Z"/><path class="cls-5" d="M138.92,18a.21.21,0,0,0,.29.17.11.11,0,0,0,.08-.17s0,0,0,0a.27.27,0,0,0-.12-.06C139,17.83,138.92,17.87,138.92,18Z"/><path class="cls-5" d="M139,18.58a.48.48,0,0,1,.31-.15.55.55,0,0,1,.61.31.37.37,0,0,1,0,.18.27.27,0,0,1,0,.12l0,.07-.05,0v0h0a.8.8,0,0,1-.32.1.86.86,0,0,1-.58-.16C138.71,18.92,138.8,18.7,139,18.58Z"/><path class="cls-5" d="M123,15.81a.36.36,0,0,1,.21-.08,1,1,0,0,1,.54,0,.5.5,0,0,1,.42.46v0a.21.21,0,0,1-.07.14.43.43,0,0,1-.13.09l-.09,0a.73.73,0,0,1-.36,0,1.91,1.91,0,0,1-.28-.07C122.91,16.29,122.71,16,123,15.81Z"/><path class="cls-5" d="M121.93,17.77h0a.43.43,0,0,1,0-.07v0h0a.32.32,0,0,1,.14-.33.64.64,0,0,1,.41-.23.85.85,0,0,1,.72.23.37.37,0,0,1,.12.13.25.25,0,0,1,0,.25.72.72,0,0,1-.61.3.8.8,0,0,1-.7-.18.12.12,0,0,1,0-.05Z"/><path class="cls-5" d="M117.59,15.91c.06.19.31.27.55.27a.4.4,0,0,0,.42-.32c0-.2-.18-.34-.43-.38a.49.49,0,0,0-.48.17v0A.3.3,0,0,0,117.59,15.91Z"/><path class="cls-5" d="M113.42,17a.36.36,0,0,1,.39-.21h0a.49.49,0,0,1,.28.07.22.22,0,0,1,.13.26s0,0,0,0a.34.34,0,0,1-.22.22.55.55,0,0,1-.58-.16A.22.22,0,0,1,113.42,17Z"/><path class="cls-5" d="M114,17.89a.75.75,0,0,1,.55-.07.85.85,0,0,1,.32,0,.45.45,0,0,1,.34.56.62.62,0,0,1-.44.4.87.87,0,0,1-.91-.24A.43.43,0,0,1,114,17.89Z"/><path class="cls-5" d="M117,18.18a.22.22,0,0,1,.16-.18.45.45,0,0,1,.2,0,.59.59,0,0,1,.24.09.26.26,0,0,1,.05.24.21.21,0,0,1-.15.12.4.4,0,0,1-.34,0A.27.27,0,0,1,117,18.18Z"/><path class="cls-5" d="M116.21,18.65l.12,0c.17,0,.26-.1.24-.21a.54.54,0,0,0,0-.11.29.29,0,0,0-.32-.1.16.16,0,0,0-.12.16v0C116,18.52,116.11,18.62,116.21,18.65Z"/><path class="cls-5" d="M107.51,20.46Z"/><polygon class="cls-5" points="107.52 20.46 107.52 20.45 107.52 20.46 107.52 20.46"/><path class="cls-5" d="M107.51,20.46h0v0a.31.31,0,0,1,0-.08.47.47,0,0,1,.14-.14.45.45,0,0,1,.51,0,.24.24,0,0,1,0,.33.38.38,0,0,1-.69-.07v0Z"/><path class="cls-5" d="M107.52,20.48v0h0Z"/><path class="cls-5" d="M103.39,17.34a1.22,1.22,0,0,1,.28-.14,1.11,1.11,0,0,1,1.08.13.54.54,0,0,1,.2.45h0c.23.37-.34.62-.77.64a1,1,0,0,1-.24,0,1,1,0,0,1-.59-.24.61.61,0,0,1-.18-.21.3.3,0,0,1,0-.1v0A.45.45,0,0,1,103.39,17.34Z"/><path class="cls-5" d="M95.58,15.55a.8.8,0,0,1,.66,0c.32,0,.63.2.68.45a.42.42,0,0,1-.36.47l-.19,0-.07,0a.59.59,0,0,1-.59-.1.66.66,0,0,1-.41-.28C95.18,15.9,95.32,15.68,95.58,15.55Z"/><path class="cls-5" d="M98.42,15.76a.27.27,0,0,1,.13.07.25.25,0,0,1,.17.2c0,.15-.14.25-.32.21a.6.6,0,0,1-.23-.1.25.25,0,0,1-.07-.23C98.1,15.79,98.27,15.71,98.42,15.76Z"/><path class="cls-5" d="M93.91,16.23a.38.38,0,0,1,.24-.11.56.56,0,0,1,.48.21.25.25,0,0,1-.08.34.51.51,0,0,1-.25,0l-.11,0-.08,0,0,0-.06,0a.28.28,0,0,1-.14-.19A.19.19,0,0,1,93.91,16.23Z"/><path class="cls-5" d="M96.45,18.31c-.08.06,0,0,0,0h0a.32.32,0,0,1,.4,0l0,0s0,0,0,0a.18.18,0,0,1,0,.25.28.28,0,0,1-.26.07h0a.33.33,0,0,1-.3-.13C96.33,18.47,96.36,18.38,96.45,18.31Z"/><path class="cls-5" d="M92.55,19.07a.38.38,0,0,1,.15-.16.2.2,0,0,1,.08,0,.24.24,0,0,1,.19,0c.21,0,.43.12.43.31s-.14.21-.28.24a.6.6,0,0,1-.44,0C92.56,19.28,92.51,19.19,92.55,19.07Z"/><path class="cls-5" d="M88.31,15.27a1.06,1.06,0,0,1,.66.06.51.51,0,0,1,.16.09h0l0,0h0a.37.37,0,0,1,.12.37.47.47,0,0,1-.26.28h0l-.05,0a.8.8,0,0,1-.27,0H88.5l0,0-.07,0h0a.56.56,0,0,1-.38-.4A.39.39,0,0,1,88.31,15.27Z"/><path class="cls-5" d="M87.75,18.32a.29.29,0,0,1,.22-.16.34.34,0,0,1,.2,0c.1,0,.17.1.16.17a.09.09,0,0,1,0,.07.15.15,0,0,1-.09.15.35.35,0,0,1-.37,0C87.77,18.46,87.71,18.39,87.75,18.32Z"/><path class="cls-5" d="M80.82,15.67c.05-.24.38-.31.65-.27a1,1,0,0,1,.69.11c.31.2.37.56,0,.76a.72.72,0,0,1-.24.1,1,1,0,0,1-1-.18.52.52,0,0,1-.13-.2A.5.5,0,0,1,80.82,15.67Z"/><path class="cls-5" d="M82.15,17.61a.22.22,0,0,1,0-.08.29.29,0,0,1,.29-.14c.15,0,.27.12.26.24a.32.32,0,0,1-.17.27.31.31,0,0,1-.4-.08A.23.23,0,0,1,82.15,17.61Z"/><path class="cls-5" d="M79.24,16.14a.29.29,0,0,0,.33.05.12.12,0,0,0,.05-.13.11.11,0,0,0,0-.14.23.23,0,0,0-.26,0l-.07,0A.12.12,0,0,0,79.24,16.14Z"/><path class="cls-5" d="M78.11,18a.37.37,0,0,1,.19-.22h0a.64.64,0,0,1,.58-.09h.05l.17,0c.33.08.54.32.46.58s-.34.31-.58.36C78.48,18.72,77.92,18.3,78.11,18Z"/><path class="cls-5" d="M70.2,16c1-.17,1.51.79.86,1.27a.9.9,0,0,1-.61.14.86.86,0,0,1-.94-.56A.76.76,0,0,1,70.2,16Z"/><path class="cls-5" d="M65.26,16.05a.34.34,0,0,1-.05-.47.63.63,0,0,1,.64-.12.54.54,0,0,1,.28.19.34.34,0,0,1,.25.36.45.45,0,0,1-.53.28l-.07,0a.4.4,0,0,1-.37-.07l-.1-.12A.22.22,0,0,1,65.26,16.05Z"/><path class="cls-5" d="M64.69,18.41h0a.27.27,0,0,1,.08-.2.37.37,0,0,1,.33-.12.45.45,0,0,1,.26.12l.1.06a.3.3,0,0,1,.08.34c-.08.2-.41.24-.62.12h0a.5.5,0,0,1-.12-.08.31.31,0,0,1-.09-.23Z"/><path class="cls-5" d="M62.07,16.43c.22,0,.22.27,0,.27S61.83,16.43,62.07,16.43Z"/><path class="cls-5" d="M73.57,16.17a.24.24,0,0,1,.15-.07h0a.32.32,0,0,1,.19,0h0a.22.22,0,0,1,.12.13.18.18,0,0,1-.19.21.36.36,0,0,1-.21,0C73.54,16.38,73.49,16.26,73.57,16.17Z"/><path class="cls-5" d="M73.75,18.35c.37,0,.37.45,0,.45S73.35,18.35,73.75,18.35Z"/><path class="cls-5" d="M56.78,18.37a.47.47,0,0,1,.62-.1l.05,0,.06,0a.24.24,0,0,1,.12.31.14.14,0,0,1,0,.06.24.24,0,0,1,0,.1.46.46,0,0,1-.4.13.63.63,0,0,1-.36-.16A.28.28,0,0,1,56.78,18.37Z"/><path class="cls-5" d="M54.33,15.92a.82.82,0,0,1,1.24-.17l.09.06a.28.28,0,0,1,0,.4h0a.45.45,0,0,1-.27.27.9.9,0,0,1-.44.11.81.81,0,0,1-.37-.11A.46.46,0,0,1,54.33,15.92Z"/><path class="cls-5" d="M49.23,19.84a.53.53,0,0,1,.52-.1l.09,0a.42.42,0,0,1,.26.2h0a.31.31,0,0,1,0,.25.48.48,0,0,1-.25.21.51.51,0,0,1-.4,0,.42.42,0,0,1-.15-.11A.31.31,0,0,1,49.23,19.84Z"/><path class="cls-5" d="M45.81,16a.26.26,0,0,1,.27.24c0,.13-.14.19-.29.19a.27.27,0,0,1-.27-.24C45.53,16,45.66,16,45.81,16Z"/><path class="cls-5" d="M40.79,16.39a.36.36,0,0,0,.08.12.61.61,0,0,0,.58.15h0a.37.37,0,0,0,.28-.43.49.49,0,0,0-.44-.32h-.14a.46.46,0,0,0-.23,0,.36.36,0,0,0-.21.19A.28.28,0,0,0,40.79,16.39Z"/><path class="cls-5" d="M36,19.71a.69.69,0,0,0,.68.33c.36,0,.54-.29.4-.53a.65.65,0,0,0-.36-.23l-.15-.05a.86.86,0,0,0-.16,0,.54.54,0,0,0-.19.07A.34.34,0,0,0,36,19.71Z"/><path class="cls-5" d="M31.29,16.05a1.07,1.07,0,0,1,.31,0,.93.93,0,0,1,.55.24.46.46,0,0,1,.18.53s0,0,0,0a.24.24,0,0,1-.06.08.59.59,0,0,1-.51.19h-.15a1,1,0,0,1-.72-.43C30.72,16.41,30.91,16.12,31.29,16.05Z"/><path class="cls-5" d="M30.11,17.6a.2.2,0,0,0,.15.13h.14c.12,0,.21-.1.18-.2a.28.28,0,0,0-.39-.12A.17.17,0,0,0,30.11,17.6Z"/><path class="cls-5" d="M24.28,15.59a.48.48,0,0,1,.27-.25.82.82,0,0,1,.49,0c.33.08.57.31.5.57s-.45.37-.75.28h0l-.16,0C24.35,16,24.21,15.82,24.28,15.59Z"/><path class="cls-5" d="M21.14,17.19l.09,0a.32.32,0,0,1,.27,0,.23.23,0,0,1,.08.37.29.29,0,0,1-.3.07c-.15-.05-.27-.12-.27-.25A.17.17,0,0,1,21.14,17.19Z"/><path class="cls-5" d="M22.41,18.62a.62.62,0,0,1,.46.05l.07,0h0l.11.08a.33.33,0,0,1,.11.16.33.33,0,0,1,0,.14c0,.12-.13.21-.28.23l-.12,0a.72.72,0,0,1-.42-.08.43.43,0,0,1-.25-.35A.32.32,0,0,1,22.41,18.62Z"/><path class="cls-5" d="M12.88,18.16A.35.35,0,0,1,13,18l.06-.06a.91.91,0,0,1,.88-.05.39.39,0,0,1,.27.33h0a.21.21,0,0,1,0,.26.57.57,0,0,1-.33.18.63.63,0,0,1-.71-.08A.39.39,0,0,1,12.88,18.16Z"/><path class="cls-5" d="M11,16a.26.26,0,0,1,.26-.06.23.23,0,0,1,.16.14.19.19,0,0,1,0,.15c0,.05-.1.1-.17.11a.38.38,0,0,1-.19,0,.27.27,0,0,1-.12-.09A.16.16,0,0,1,11,16Z"/><path class="cls-5" d="M6.82,16.41a.27.27,0,0,1,.29-.14c.3,0,.47.27.32.47a.29.29,0,0,1-.25.08.55.55,0,0,1-.26-.1.22.22,0,0,1-.1-.09A.2.2,0,0,1,6.82,16.41Z"/><path class="cls-5" d="M4.11,16.28c.27,0,.27.33,0,.33S3.82,16.28,4.11,16.28Z"/><path class="cls-5" d="M1.08,18a.45.45,0,0,0,.29.22.73.73,0,0,0,.44,0l.1-.06A.22.22,0,0,0,2.09,18c.05-.16-.07-.31-.24-.41v0a.51.51,0,0,0-.37-.11H1.36l-.07,0h0l-.05,0a.33.33,0,0,0-.18.11A.29.29,0,0,0,1.08,18Z"/><path class="cls-5" d="M10.29,21.29c0-.17.17-.26.37-.29l.13,0a.53.53,0,0,1,.43.14l0,0a.31.31,0,0,1,.21.31c0,.14-.14.23-.3.29a.72.72,0,0,1-.46,0l-.12-.07-.09-.05A.46.46,0,0,1,10.29,21.29Z"/><path class="cls-5" d="M3.81,13.16a.3.3,0,0,0-.28.12.15.15,0,0,0,.05.22h0a.29.29,0,0,0,.27,0h0A.18.18,0,0,0,4,13.33.19.19,0,0,0,3.81,13.16Z"/><path class="cls-5" d="M3.27,12c-.09-.22-.51-.2-.63,0h0a.22.22,0,0,0,.15.4h.14a.33.33,0,0,0,.27-.14v0A.21.21,0,0,0,3.27,12Z"/><path class="cls-5" d="M2.32,13.18A.47.47,0,0,0,2.18,13a.79.79,0,0,0-.84,0,.5.5,0,0,0-.28.41h0c-.16.27,0,.55.38.62a.62.62,0,0,0,.46-.08H2c.28-.06.48-.25.47-.47A.37.37,0,0,0,2.32,13.18Z"/><path class="cls-5" d="M4,14.64q0-.09-.15-.15h0a.79.79,0,0,0-.31-.13.62.62,0,0,0-.66.36c0,.19.12.36.35.44a.67.67,0,0,0,.54,0h.06c.12,0,.25-.09.27-.19A.32.32,0,0,0,4,14.64Z"/><path class="cls-5" d="M15.33,10.33a.23.23,0,0,0-.11-.13.55.55,0,0,0-.3-.17h-.08a.68.68,0,0,0-.62.08.42.42,0,0,0-.14.46.35.35,0,0,0,.18.34.7.7,0,0,0,.24.09,1.54,1.54,0,0,0,.37,0,.6.6,0,0,0,.55-.34A.36.36,0,0,0,15.33,10.33Z"/><path class="cls-5" d="M16.36,11.71a.34.34,0,0,0-.1-.26.49.49,0,0,0-.38-.27.5.5,0,0,0-.4.1h0a.46.46,0,0,0-.25.65h0a.47.47,0,0,0,.52.33.68.68,0,0,0,.38-.15.44.44,0,0,0,.16-.17A.38.38,0,0,0,16.36,11.71Z"/><path class="cls-5" d="M17.83,10.73a.33.33,0,0,0-.32-.08.48.48,0,0,0-.29.22v.05a.09.09,0,0,0,0,.05.3.3,0,0,0,0,.16.23.23,0,0,0,.16.12.46.46,0,0,0,.21,0,.42.42,0,0,0,.36-.27A.28.28,0,0,0,17.83,10.73Z"/><path class="cls-5" d="M18.36,9.58h0a.33.33,0,0,0-.17,0H18.1a.45.45,0,0,0-.23,0,.41.41,0,0,0-.36.26c-.05.17.06.31.25.38l.06,0a.58.58,0,0,0,.19,0,.71.71,0,0,0,.46-.15A.28.28,0,0,0,18.36,9.58Z"/><path class="cls-5" d="M27.79,10.15a.2.2,0,0,0-.09-.06v0a.27.27,0,0,0-.28-.13.61.61,0,0,0-.25.07.25.25,0,0,0-.18.37.38.38,0,0,0,.13.09.46.46,0,0,0,.31.09.48.48,0,0,0,.37-.21A.17.17,0,0,0,27.79,10.15Z"/><path class="cls-5" d="M30.52,10.1A.7.7,0,0,0,30,9.93a1.26,1.26,0,0,0-.75.09.37.37,0,0,0-.25.43.49.49,0,0,0,.16.19.67.67,0,0,0,.76.19l.08,0a.84.84,0,0,0,.47-.23A.32.32,0,0,0,30.52,10.1Z"/><path class="cls-5" d="M30.93,12.31a.23.23,0,0,0-.12.06l0,.05c-.05.06,0,.14.07.17s.31-.07.3-.18S31,12.29,30.93,12.31Z"/><path class="cls-5" d="M31,13a.53.53,0,0,0-.32-.15.55.55,0,0,0-.6.31.28.28,0,0,0,0,.18.27.27,0,0,0,0,.12.15.15,0,0,0,.05.07l0,0h0a.6.6,0,0,0,.31.1.79.79,0,0,0,.58-.16C31.35,13.38,31.26,13.16,31,13Z"/><path class="cls-5" d="M47.1,10.27a.39.39,0,0,0-.22-.08.87.87,0,0,0-.53,0,.48.48,0,0,0-.42.45s0,0,0,0a.19.19,0,0,0,.08.13.27.27,0,0,0,.12.09l.09,0a.73.73,0,0,0,.36,0,1.7,1.7,0,0,0,.28-.06C47.15,10.75,47.35,10.47,47.1,10.27Z"/><path class="cls-5" d="M48.13,12.23h0l0-.08v0a.31.31,0,0,0-.14-.33.58.58,0,0,0-.41-.22.82.82,0,0,0-.72.22.33.33,0,0,0-.11.13.25.25,0,0,0,0,.25.71.71,0,0,0,.6.3.86.86,0,0,0,.71-.17l.05-.06Z"/><path class="cls-5" d="M52.41,10.13h0a.47.47,0,0,0-.48-.18c-.25,0-.46.18-.44.38a.4.4,0,0,0,.43.32c.23,0,.49-.08.54-.27A.25.25,0,0,0,52.41,10.13Z"/><path class="cls-5" d="M56.64,11.46a.35.35,0,0,0-.4-.2h0a.53.53,0,0,0-.28.07c-.11.06-.18.16-.13.26l0,0a.32.32,0,0,0,.22.22.53.53,0,0,0,.57-.16A.22.22,0,0,0,56.64,11.46Z"/><path class="cls-5" d="M56,12.35a.76.76,0,0,0-.55-.07.89.89,0,0,0-.33,0,.47.47,0,0,0-.34.56.62.62,0,0,0,.44.4.87.87,0,0,0,.92-.24A.43.43,0,0,0,56,12.35Z"/><path class="cls-5" d="M53.08,12.64c0-.08-.06-.14-.16-.18a.41.41,0,0,0-.19,0,.43.43,0,0,0-.24.1.15.15,0,0,0-.07.16.19.19,0,0,0,0,.07.21.21,0,0,0,.15.12.38.38,0,0,0,.33,0A.27.27,0,0,0,53.08,12.64Z"/><path class="cls-5" d="M54,12.9v0a.17.17,0,0,0-.13-.16.28.28,0,0,0-.31.1.45.45,0,0,0-.06.12.2.2,0,0,0,.24.2l.12,0C54,13.09,54,13,54,12.9Z"/><polygon class="cls-5" points="62.54 14.92 62.54 14.91 62.54 14.92 62.54 14.92"/><path class="cls-5" d="M62.54,14.92h0s0,0,0,0a.16.16,0,0,0,0-.08.3.3,0,0,0-.14-.13.42.42,0,0,0-.5,0,.24.24,0,0,0,0,.33.4.4,0,0,0,.7-.06v-.05Z"/><path class="cls-5" d="M62.54,14.94v0h0Z"/><path class="cls-5" d="M66.67,11.8a1.57,1.57,0,0,0-.29-.14,1.12,1.12,0,0,0-1.08.13.51.51,0,0,0-.19.46h0c-.23.37.34.62.77.64h.23a1,1,0,0,0,.59-.24.67.67,0,0,0,.19-.22l0-.1s0,0,0,0A.46.46,0,0,0,66.67,11.8Z"/><path class="cls-5" d="M74.47,10a.89.89,0,0,0-.66,0,.71.71,0,0,0-.67.45.41.41,0,0,0,.36.47l.19,0,.06,0a.61.61,0,0,0,.6-.1.69.69,0,0,0,.41-.28C74.88,10.36,74.73,10.14,74.47,10Z"/><path class="cls-5" d="M71.64,10.22l-.14.07a.3.3,0,0,0-.17.2c0,.15.14.26.33.21a.55.55,0,0,0,.22-.1.26.26,0,0,0,.08-.23C72,10.25,71.79,10.17,71.64,10.22Z"/><path class="cls-5" d="M76.14,10.69a.33.33,0,0,0-.24-.1.55.55,0,0,0-.47.2.24.24,0,0,0,.08.34.42.42,0,0,0,.25,0l.1,0,.08,0c-.1,0,.09,0,.06,0l.06,0a.32.32,0,0,0,.14-.19A.23.23,0,0,0,76.14,10.69Z"/><path class="cls-5" d="M73.61,12.77l0,0h0a.32.32,0,0,0-.4,0l0,0,0,0a.18.18,0,0,0,0,.25.33.33,0,0,0,.26.08h0a.36.36,0,0,0,.31-.12A.19.19,0,0,0,73.61,12.77Z"/><path class="cls-5" d="M77.51,13.53a.38.38,0,0,0-.15-.16l-.08,0a.32.32,0,0,0-.19,0c-.22,0-.43.12-.43.31s.14.21.28.24a.6.6,0,0,0,.44,0A.23.23,0,0,0,77.51,13.53Z"/><path class="cls-5" d="M81.75,9.74a1,1,0,0,0-.66,0,.51.51,0,0,0-.16.09h0l0,0h0a.36.36,0,0,0-.11.37.4.4,0,0,0,.25.28h0l0,0a.87.87,0,0,0,.28.05h.27l.06,0h0a.57.57,0,0,0,.38-.41A.38.38,0,0,0,81.75,9.74Z"/><path class="cls-5" d="M82.3,12.78a.29.29,0,0,0-.21-.16.5.5,0,0,0-.21,0,.19.19,0,0,0-.16.16.13.13,0,0,0,0,.08.18.18,0,0,0,.09.14.35.35,0,0,0,.37,0C82.28,12.93,82.34,12.85,82.3,12.78Z"/><path class="cls-5" d="M89.24,10.13c0-.24-.38-.31-.66-.27a1,1,0,0,0-.68.12.42.42,0,0,0,0,.76,1.33,1.33,0,0,0,.24.1,1.07,1.07,0,0,0,1-.19.46.46,0,0,0,.13-.2A.58.58,0,0,0,89.24,10.13Z"/><path class="cls-5" d="M87.91,12.07a.16.16,0,0,0-.06-.08.27.27,0,0,0-.28-.14c-.15,0-.28.13-.27.24a.34.34,0,0,0,.17.27.3.3,0,0,0,.4-.08A.23.23,0,0,0,87.91,12.07Z"/><path class="cls-5" d="M90.81,10.4l-.07,0a.21.21,0,0,0-.26,0,.11.11,0,0,0,0,.14.1.1,0,0,0,0,.13.28.28,0,0,0,.33,0A.13.13,0,0,0,90.81,10.4Z"/><path class="cls-5" d="M92,12.42a.41.41,0,0,0-.2-.23h0a.62.62,0,0,0-.57-.09h-.05l-.17,0c-.33.08-.54.32-.46.58s.33.31.58.36C91.57,13.18,92.14,12.76,92,12.42Z"/><path class="cls-5" d="M99.86,10.42c-1-.18-1.51.78-.87,1.26a.91.91,0,0,0,.61.14.87.87,0,0,0,1-.55A.76.76,0,0,0,99.86,10.42Z"/><path class="cls-5" d="M104.8,10.51a.35.35,0,0,0,0-.47.65.65,0,0,0-.64-.12.54.54,0,0,0-.28.19.35.35,0,0,0-.26.36c0,.2.29.31.54.29l.07,0a.38.38,0,0,0,.36-.07.35.35,0,0,0,.1-.12Z"/><path class="cls-5" d="M105.37,12.87h0a.27.27,0,0,0-.08-.2.39.39,0,0,0-.33-.12.42.42,0,0,0-.26.12l-.1.06a.3.3,0,0,0-.08.34c.08.2.41.24.61.12h0a.57.57,0,0,0,.13-.08.3.3,0,0,0,.09-.22Z"/><path class="cls-5" d="M108,10.89c-.22,0-.22.27,0,.27S108.23,10.89,108,10.89Z"/><path class="cls-5" d="M96.49,10.63a.26.26,0,0,0-.15-.07h0a.32.32,0,0,0-.19,0h0a.19.19,0,0,0-.12.13.18.18,0,0,0,.19.21.31.31,0,0,0,.21,0C96.51,10.84,96.57,10.73,96.49,10.63Z"/><path class="cls-5" d="M96.31,12.81c-.37,0-.37.45,0,.45S96.71,12.81,96.31,12.81Z"/><path class="cls-5" d="M113.28,12.83a.48.48,0,0,0-.63-.1l0,0-.07,0a.25.25,0,0,0-.12.31l0,.05a.49.49,0,0,0,0,.11.49.49,0,0,0,.4.12.57.57,0,0,0,.36-.16A.27.27,0,0,0,113.28,12.83Z"/><path class="cls-5" d="M115.72,10.38a.75.75,0,0,0-.8-.37.79.79,0,0,0-.44.21l-.08,0a.29.29,0,0,0,0,.4h0a.46.46,0,0,0,.27.26,1,1,0,0,0,.45.11.81.81,0,0,0,.37-.11A.46.46,0,0,0,115.72,10.38Z"/><path class="cls-5" d="M120.83,14.3a.53.53,0,0,0-.52-.1.19.19,0,0,0-.1,0,.38.38,0,0,0-.26.2h0a.31.31,0,0,0,0,.25.39.39,0,0,0,.24.21.53.53,0,0,0,.41,0,.26.26,0,0,0,.14-.11A.33.33,0,0,0,120.83,14.3Z"/><path class="cls-5" d="M124.24,10.43a.27.27,0,0,0-.27.23c0,.13.14.19.29.19a.26.26,0,0,0,.27-.24C124.53,10.49,124.39,10.43,124.24,10.43Z"/><path class="cls-5" d="M129.31,10.57a.42.42,0,0,0-.22-.19.36.36,0,0,0-.23,0h-.13a.48.48,0,0,0-.44.32.36.36,0,0,0,.27.43h.05a.61.61,0,0,0,.58-.15.44.44,0,0,0,.08-.11A.31.31,0,0,0,129.31,10.57Z"/><path class="cls-5" d="M133.85,13.76a.59.59,0,0,0-.2-.07h-.15a.34.34,0,0,0-.15.06A.56.56,0,0,0,133,14c-.14.24,0,.51.4.54a.68.68,0,0,0,.67-.34A.33.33,0,0,0,133.85,13.76Z"/><path class="cls-5" d="M138.76,10.51a1,1,0,0,0-.3,0,.91.91,0,0,0-.56.23.45.45,0,0,0-.17.53l0,0a.41.41,0,0,0,.05.09.58.58,0,0,0,.51.18h.16a1,1,0,0,0,.71-.43C139.33,10.87,139.15,10.58,138.76,10.51Z"/><path class="cls-5" d="M139.86,11.87a.29.29,0,0,0-.39.12c0,.1.07.19.19.21h.14a.19.19,0,0,0,.14-.13A.15.15,0,0,0,139.86,11.87Z"/><path class="cls-5" d="M145.78,10.05a.5.5,0,0,0-.28-.25.79.79,0,0,0-.48,0c-.34.08-.57.31-.51.58s.45.36.75.27h0l.16,0C145.71,10.49,145.85,10.28,145.78,10.05Z"/><path class="cls-5" d="M148.91,11.65l-.08,0a.32.32,0,0,0-.27,0,.23.23,0,0,0-.08.38.29.29,0,0,0,.3.06c.15-.05.26-.12.27-.25A.19.19,0,0,0,148.91,11.65Z"/><path class="cls-5" d="M147.65,13.08a.61.61,0,0,0-.46.05l-.07,0h-.05l-.12.08a.31.31,0,0,0-.1.16.25.25,0,0,0,0,.14c0,.12.12.21.27.23a.28.28,0,0,0,.13,0,.76.76,0,0,0,.42-.08.46.46,0,0,0,.25-.35A.33.33,0,0,0,147.65,13.08Z"/><path class="cls-5" d="M157.18,12.62a.29.29,0,0,0-.1-.18l-.07-.07a.91.91,0,0,0-.88,0,.43.43,0,0,0-.27.33v0a.2.2,0,0,0,0,.25.57.57,0,0,0,.33.19.65.65,0,0,0,.71-.09A.39.39,0,0,0,157.18,12.62Z"/><path class="cls-5" d="M159.06,10.46a.28.28,0,0,0-.27-.06.25.25,0,0,0-.16.14.16.16,0,0,0,0,.15c0,.05.09.1.17.11a.41.41,0,0,0,.19,0,.2.2,0,0,0,.11-.09A.16.16,0,0,0,159.06,10.46Z"/><path class="cls-5" d="M163.24,10.87a.28.28,0,0,0-.29-.14c-.31,0-.48.27-.32.47a.27.27,0,0,0,.24.08.55.55,0,0,0,.27-.1.39.39,0,0,0,.1-.08A.24.24,0,0,0,163.24,10.87Z"/><path class="cls-5" d="M166,10.74c-.27,0-.27.33,0,.33S166.24,10.74,166,10.74Z"/><path class="cls-5" d="M169,12.06a.34.34,0,0,0-.17-.11l-.05,0h0l-.08,0h-.1a.5.5,0,0,0-.37.11l0,0c-.16.1-.29.25-.24.41a.25.25,0,0,0,.18.15l.1.06a.77.77,0,0,0,.45,0,.43.43,0,0,0,.28-.22A.29.29,0,0,0,169,12.06Z"/><path class="cls-5" d="M159.77,15.75c0-.17-.18-.26-.37-.28l-.13-.05a.53.53,0,0,0-.43.14l0,0a.31.31,0,0,0-.2.31c0,.14.13.23.29.29a.73.73,0,0,0,.46,0l.13-.07.09,0A.5.5,0,0,0,159.77,15.75Z"/><path class="cls-5" d="M166.25,8a.31.31,0,0,1,.28.11.15.15,0,0,1-.06.22h0a.31.31,0,0,1-.28,0h0a.22.22,0,0,1-.12-.18A.21.21,0,0,1,166.25,8Z"/><path class="cls-5" d="M166.84,7.13l0,0a.33.33,0,0,0,.26.15h.15a.22.22,0,0,0,.15-.39h0c-.13-.19-.55-.22-.63,0A.19.19,0,0,0,166.84,7.13Z"/><path class="cls-5" d="M167.73,8.06a.53.53,0,0,1,.15-.19.79.79,0,0,1,.84,0,.53.53,0,0,1,.28.41h0c.16.27,0,.56-.39.63a.73.73,0,0,1-.46-.08l-.09,0a.54.54,0,0,1-.47-.47A.38.38,0,0,1,167.73,8.06Z"/><path class="cls-5" d="M166.09,9.52a.24.24,0,0,1,.16-.15h0a.72.72,0,0,1,.31-.12.59.59,0,0,1,.65.35c0,.2-.12.36-.35.44a.67.67,0,0,1-.54,0h-.05c-.12,0-.26-.08-.27-.19A.32.32,0,0,1,166.09,9.52Z"/><path class="cls-5" d="M154.73,5.21a.23.23,0,0,1,.1-.14.87.87,0,0,1,.3-.17h.08a.68.68,0,0,1,.62.09.39.39,0,0,1,.15.45.37.37,0,0,1-.19.35.62.62,0,0,1-.24.08,1.12,1.12,0,0,1-.36,0,.61.61,0,0,1-.55-.33A.34.34,0,0,1,154.73,5.21Z"/><path class="cls-5" d="M153.7,6.58a.39.39,0,0,1,.09-.26.51.51,0,0,1,.38-.27.56.56,0,0,1,.41.1l0,0a.46.46,0,0,1,.26.64h0a.49.49,0,0,1-.52.33A.63.63,0,0,1,154,7a.69.69,0,0,1-.17-.17A.46.46,0,0,1,153.7,6.58Z"/><path class="cls-5" d="M152.23,5.6a.3.3,0,0,1,.32-.07.47.47,0,0,1,.29.21,0,0,0,0,0,0,0s0,0,0,0a.11.11,0,0,1,0,0,.29.29,0,0,1,0,.16.2.2,0,0,1-.17.12.34.34,0,0,1-.2,0,.43.43,0,0,1-.37-.26A.31.31,0,0,1,152.23,5.6Z"/><path class="cls-5" d="M151.7,4.46h0a.57.57,0,0,1,.18,0h0a.48.48,0,0,1,.24,0,.45.45,0,0,1,.36.26c0,.18-.07.31-.26.38a.09.09,0,0,1,0,0,.31.31,0,0,1-.19,0,.64.64,0,0,1-.46-.15A.27.27,0,0,1,151.7,4.46Z"/><path class="cls-5" d="M142.27,5l.08,0V5a.27.27,0,0,1,.28-.14.67.67,0,0,1,.25.08c.18.05.27.23.17.36a.22.22,0,0,1-.12.09.44.44,0,0,1-.32.09.48.48,0,0,1-.36-.2A.17.17,0,0,1,142.27,5Z"/><path class="cls-5" d="M139.54,5a.62.62,0,0,1,.48-.17,1.35,1.35,0,0,1,.75.08.37.37,0,0,1,.24.44.38.38,0,0,1-.15.18.68.68,0,0,1-.77.2l-.07,0a1,1,0,0,1-.47-.23A.31.31,0,0,1,139.54,5Z"/><path class="cls-5" d="M138.92,7.29c0,.11.14.22.29.17s.13-.11.08-.17,0,0,0,0a.27.27,0,0,0-.12-.06C139,7.16,138.92,7.2,138.92,7.29Z"/><path class="cls-5" d="M139,7.92a.49.49,0,0,1,.31-.16.55.55,0,0,1,.61.31.36.36,0,0,1,0,.18.21.21,0,0,1,0,.12.18.18,0,0,1,0,.07l-.05,0h0a.68.68,0,0,1-.32.11.82.82,0,0,1-.58-.17C138.71,8.26,138.8,8,139,7.92Z"/><path class="cls-5" d="M123,5.14a.44.44,0,0,1,.21-.08,1,1,0,0,1,.54,0,.48.48,0,0,1,.42.45v0a.17.17,0,0,1-.07.13.3.3,0,0,1-.13.09l-.09,0a.55.55,0,0,1-.36,0,1.15,1.15,0,0,1-.28-.06C122.91,5.62,122.71,5.35,123,5.14Z"/><path class="cls-5" d="M121.93,7.1h0l0-.07V7a.31.31,0,0,1,.14-.32.64.64,0,0,1,.41-.23.81.81,0,0,1,.72.22.39.39,0,0,1,.12.14.23.23,0,0,1,0,.24.72.72,0,0,1-.61.31.87.87,0,0,1-.7-.18l0-.06Z"/><path class="cls-5" d="M117.59,5.24c.06.19.31.28.55.27a.39.39,0,0,0,.42-.31c0-.2-.18-.35-.43-.38a.47.47,0,0,0-.48.17V5A.28.28,0,0,0,117.59,5.24Z"/><path class="cls-5" d="M113.42,6.33a.35.35,0,0,1,.39-.2h0a.58.58,0,0,1,.28.07.23.23,0,0,1,.13.27l0,0a.31.31,0,0,1-.22.21.57.57,0,0,1-.58-.15A.24.24,0,0,1,113.42,6.33Z"/><path class="cls-5" d="M114,7.22a.8.8,0,0,1,.55-.07.85.85,0,0,1,.32,0,.45.45,0,0,1,.34.56.65.65,0,0,1-.44.41.85.85,0,0,1-.91-.25A.43.43,0,0,1,114,7.22Z"/><path class="cls-5" d="M117,7.52a.21.21,0,0,1,.16-.18.28.28,0,0,1,.2,0,.48.48,0,0,1,.24.09.16.16,0,0,1,.06.17.2.2,0,0,1,0,.07.21.21,0,0,1-.15.12.44.44,0,0,1-.34,0A.27.27,0,0,1,117,7.52Z"/><path class="cls-5" d="M116.21,8l.12,0a.19.19,0,0,0,.24-.2.61.61,0,0,0,0-.12.3.3,0,0,0-.32-.09.15.15,0,0,0-.12.15v0C116,7.86,116.11,8,116.21,8Z"/><polygon class="cls-5" points="107.52 9.79 107.52 9.79 107.52 9.79 107.52 9.79"/><path class="cls-5" d="M107.51,9.79h0v0a.19.19,0,0,1,0-.08.38.38,0,0,1,.14-.14.47.47,0,0,1,.51,0,.25.25,0,0,1,0,.34.38.38,0,0,1-.27.17.35.35,0,0,1-.42-.24V9.79Z"/><path class="cls-5" d="M107.52,9.81v0h0Z"/><path class="cls-5" d="M103.39,6.68a1.25,1.25,0,0,1,.28-.15,1.14,1.14,0,0,1,1.08.13.56.56,0,0,1,.2.46h0c.23.37-.34.63-.77.64h-.24a1.08,1.08,0,0,1-.59-.24.72.72,0,0,1-.18-.21l0-.1a0,0,0,0,0,0,0A.44.44,0,0,1,103.39,6.68Z"/><path class="cls-5" d="M95.58,4.89a.8.8,0,0,1,.66,0c.32,0,.63.2.68.44a.43.43,0,0,1-.36.48.63.63,0,0,1-.19,0l-.07,0a.62.62,0,0,1-.59-.1.72.72,0,0,1-.41-.29C95.18,5.24,95.32,5,95.58,4.89Z"/><path class="cls-5" d="M98.42,5.09a.4.4,0,0,1,.13.07.28.28,0,0,1,.17.2c0,.15-.14.26-.32.21a.6.6,0,0,1-.23-.1.23.23,0,0,1-.07-.22C98.1,5.13,98.27,5.05,98.42,5.09Z"/><path class="cls-5" d="M93.91,5.56a.33.33,0,0,1,.24-.1.54.54,0,0,1,.48.21.24.24,0,0,1-.08.33.42.42,0,0,1-.25.06l-.11,0-.08,0,0,0-.06,0a.29.29,0,0,1-.14-.18A.21.21,0,0,1,93.91,5.56Z"/><path class="cls-5" d="M96.45,7.65c-.08.06,0-.06,0,0h0a.33.33,0,0,1,.4,0l0,0,0,0c.07.08.1.17,0,.25a.29.29,0,0,1-.26.08h0a.35.35,0,0,1-.3-.13C96.33,7.8,96.36,7.72,96.45,7.65Z"/><path class="cls-5" d="M92.55,8.41a.4.4,0,0,1,.15-.17l.08,0a.3.3,0,0,1,.19,0c.21,0,.43.12.43.31s-.14.21-.28.24a.6.6,0,0,1-.44,0A.24.24,0,0,1,92.55,8.41Z"/><path class="cls-5" d="M88.31,4.61a1.13,1.13,0,0,1,.66,0l.16.09h0l0,0v0h0a.35.35,0,0,1,.12.36.46.46,0,0,1-.26.29h0l-.05,0a.81.81,0,0,1-.27,0h-.27l-.07,0h0a.58.58,0,0,1-.38-.4A.39.39,0,0,1,88.31,4.61Z"/><path class="cls-5" d="M87.75,7.65A.35.35,0,0,1,88,7.49a.45.45,0,0,1,.2,0c.1,0,.17.09.16.17a.11.11,0,0,1,0,.07.14.14,0,0,1-.09.14.38.38,0,0,1-.37,0C87.77,7.8,87.71,7.72,87.75,7.65Z"/><path class="cls-5" d="M80.82,5c.05-.23.38-.3.65-.26a1,1,0,0,1,.69.11c.31.2.37.55,0,.76a.72.72,0,0,1-.24.1,1,1,0,0,1-1-.18.48.48,0,0,1-.13-.21A.5.5,0,0,1,80.82,5Z"/><path class="cls-5" d="M82.15,6.94a.18.18,0,0,1,0-.07.29.29,0,0,1,.29-.14c.15,0,.27.12.26.23a.33.33,0,0,1-.17.28.32.32,0,0,1-.4-.08A.25.25,0,0,1,82.15,6.94Z"/><path class="cls-5" d="M79.24,5.48a.28.28,0,0,0,.33,0,.11.11,0,0,0,.05-.13.12.12,0,0,0,0-.14.24.24,0,0,0-.26,0l-.07,0A.12.12,0,0,0,79.24,5.48Z"/><path class="cls-5" d="M78.11,7.29a.42.42,0,0,1,.19-.23h0A.67.67,0,0,1,78.88,7l.05,0,.17,0c.33.09.54.32.46.58s-.34.32-.58.36C78.48,8.06,77.92,7.63,78.11,7.29Z"/><path class="cls-5" d="M70.2,5.29c1-.17,1.51.79.86,1.27a1.19,1.19,0,0,1-1.55-.42A.76.76,0,0,1,70.2,5.29Z"/><path class="cls-5" d="M65.26,5.39a.35.35,0,0,1-.05-.47.65.65,0,0,1,.64-.13.54.54,0,0,1,.28.19.34.34,0,0,1,.25.36.46.46,0,0,1-.53.29l-.07,0a.4.4,0,0,1-.47-.19A.18.18,0,0,1,65.26,5.39Z"/><path class="cls-5" d="M64.69,7.75h0a.29.29,0,0,1,.08-.2.4.4,0,0,1,.33-.12.45.45,0,0,1,.26.12l.1.07a.28.28,0,0,1,.08.33c-.08.21-.41.24-.62.13h0A.34.34,0,0,1,64.78,8a.27.27,0,0,1-.09-.22Z"/><path class="cls-5" d="M62.07,5.76c.22,0,.22.27,0,.27S61.83,5.76,62.07,5.76Z"/><path class="cls-5" d="M73.57,5.51a.2.2,0,0,1,.15-.08h0a.33.33,0,0,1,.19,0h0a.25.25,0,0,1,.12.13.19.19,0,0,1-.19.22.36.36,0,0,1-.21,0C73.54,5.71,73.49,5.6,73.57,5.51Z"/><path class="cls-5" d="M73.75,7.68c.37,0,.37.45,0,.45S73.35,7.68,73.75,7.68Z"/><path class="cls-5" d="M56.78,7.7a.5.5,0,0,1,.62-.1.1.1,0,0,1,.05,0l.06,0a.24.24,0,0,1,.12.31.08.08,0,0,1,0,0,.22.22,0,0,1,0,.11.45.45,0,0,1-.4.12.56.56,0,0,1-.36-.15A.29.29,0,0,1,56.78,7.7Z"/><path class="cls-5" d="M59,5a.77.77,0,0,1,.8-.38.86.86,0,0,1,.44.21l.08.06a.29.29,0,0,1,0,.4h0a.48.48,0,0,1-.27.27.83.83,0,0,1-.45.1.73.73,0,0,1-.37-.1A.46.46,0,0,1,59,5Z"/><path class="cls-5" d="M49.23,9.17c.11-.14.34-.13.52-.1l.09,0a.39.39,0,0,1,.26.2h0a.32.32,0,0,1,0,.25.44.44,0,0,1-.25.21.51.51,0,0,1-.4,0,.44.44,0,0,1-.15-.12A.31.31,0,0,1,49.23,9.17Z"/><path class="cls-5" d="M45.81,5.3a.26.26,0,0,1,.27.24c0,.12-.14.18-.29.18a.27.27,0,0,1-.27-.24C45.53,5.36,45.66,5.3,45.81,5.3Z"/><path class="cls-5" d="M40.79,5.73l.08.12a.63.63,0,0,0,.58.14h0a.36.36,0,0,0,.28-.42.47.47,0,0,0-.44-.32h-.14a.46.46,0,0,0-.23,0,.31.31,0,0,0-.21.19A.29.29,0,0,0,40.79,5.73Z"/><path class="cls-5" d="M36,9a.68.68,0,0,0,.68.34c.36,0,.54-.3.4-.54a.63.63,0,0,0-.36-.22l-.15,0H36.4a.4.4,0,0,0-.19.07A.33.33,0,0,0,36,9Z"/><path class="cls-5" d="M31.29,5.39a.81.81,0,0,1,.31,0,1,1,0,0,1,.55.23.46.46,0,0,1,.18.53l0,0a.42.42,0,0,1-.06.08.62.62,0,0,1-.51.19h-.15A1,1,0,0,1,30.87,6C30.72,5.75,30.91,5.45,31.29,5.39Z"/><path class="cls-5" d="M30.11,6.94a.25.25,0,0,0,.15.13h.14c.12,0,.21-.1.18-.2a.27.27,0,0,0-.39-.12A.17.17,0,0,0,30.11,6.94Z"/><path class="cls-5" d="M24.28,4.92a.43.43,0,0,1,.27-.24.75.75,0,0,1,.49,0c.33.07.57.31.5.57s-.45.37-.75.27h0a.41.41,0,0,1-.16,0C24.35,5.37,24.21,5.15,24.28,4.92Z"/><path class="cls-5" d="M21.14,6.52l.09,0a.36.36,0,0,1,.27,0,.24.24,0,0,1,.08.38.29.29,0,0,1-.3.07C21.13,6.9,21,6.84,21,6.7S21.05,6.56,21.14,6.52Z"/><path class="cls-5" d="M22.41,8a.62.62,0,0,1,.46,0l.07,0,0,0h0a.41.41,0,0,1,.11.07.36.36,0,0,1,.11.17.28.28,0,0,1,0,.13c0,.13-.13.22-.28.24l-.12,0a.73.73,0,0,1-.42-.09.42.42,0,0,1-.25-.34A.31.31,0,0,1,22.41,8Z"/><path class="cls-5" d="M12.88,7.5a.32.32,0,0,1,.1-.19L13,7.25a.94.94,0,0,1,.88-.06.4.4,0,0,1,.27.33l0,0a.21.21,0,0,1,0,.26.63.63,0,0,1-.33.18.63.63,0,0,1-.71-.08C13,7.81,12.85,7.67,12.88,7.5Z"/><path class="cls-5" d="M11,5.33a.26.26,0,0,1,.26-.06c.07,0,.15.08.16.15a.17.17,0,0,1,0,.14.2.2,0,0,1-.17.11.38.38,0,0,1-.19,0A.22.22,0,0,1,11,5.54.16.16,0,0,1,11,5.33Z"/><path class="cls-5" d="M6.82,5.74a.28.28,0,0,1,.29-.13c.3,0,.47.27.32.46a.3.3,0,0,1-.25.09.67.67,0,0,1-.26-.1S6.84,6,6.82,6A.21.21,0,0,1,6.82,5.74Z"/><path class="cls-5" d="M4.11,5.61c.27,0,.27.33,0,.33S3.82,5.61,4.11,5.61Z"/><path class="cls-5" d="M1.08,7.31a.47.47,0,0,0,.29.21.61.61,0,0,0,.44,0l.1,0a.25.25,0,0,0,.18-.15C2.14,7.14,2,7,1.85,6.89h0a.47.47,0,0,0-.37-.11H1.36l-.07,0h0l-.05,0a.28.28,0,0,0-.18.11A.29.29,0,0,0,1.08,7.31Z"/><path class="cls-5" d="M10.29,10.62c0-.16.17-.26.37-.28l.13-.05a.5.5,0,0,1,.43.15l0,0c.14.07.23.17.21.31s-.14.23-.3.29a.66.66,0,0,1-.46,0L10.57,11,10.48,11A.45.45,0,0,1,10.29,10.62Z"/></g><path class="cls-6" d="M0,1.42l.5,0,.61,0,.39,0H2c.31,0,.67,0,1.06,0l1.28,0H5.77c.53,0,1.09,0,1.69,0l.23,0,.23,0,.12,0h.33c.3,0,.62,0,1,0,.65,0,1.34,0,2,0l1.09,0c.38,0,.76,0,1.14,0l.58,0,.59,0c.39,0,.79-.08,1.2-.12l1.26-.11c.44,0,.87,0,1.31,0l2.71,0h7.38l1.58,0c.53,0,1.06.07,1.6.1l1.62.08c.54,0,1.09,0,1.64,0,.27,0,.55,0,.82,0l.85-.06c1.13-.07,2.29-.12,3.46-.12,2.35-.05,4.73.3,7.16.22,1.21,0,2.44-.11,3.7-.11s2.52.05,3.78,0l.95,0,1-.05,1-.05h1c1.3,0,2.6.08,3.9.13s2.63.12,3.94.12h2c.33,0,.67,0,1,0l1,0c.67,0,1.33.05,2,0s1.33-.07,2-.11,1.34-.08,2-.07l.51,0,.5,0,.5,0h.51c.67,0,1.35,0,2,0l1,0,1,0,.5,0,.51,0h.51l.52,0c.68,0,1.36.12,2,.16a19.36,19.36,0,0,0,2-.06c.68-.05,1.35-.09,2-.12l1,0h1l1,.05.51,0,.5,0c1.34,0,2.69,0,4-.06.67,0,1.35,0,2,0h1c.33,0,.67,0,1,0,2.65,0,5.3-.13,7.92-.19.66,0,1.3,0,2,0s1.29.13,1.92.17c.32,0,.64,0,1,.06s.63,0,1,0h.47l.47,0,1,0c.31,0,.63,0,1,0h1c.63,0,1.25,0,1.87,0,1.24,0,2.48-.08,3.71-.08h3.19l.46,0,.9,0,.44,0h.44l.43,0h1.3l1.72-.11c.28,0,.58,0,.87,0h.86c1.13,0,2.25,0,3.35,0l1.63,0h.8l.78,0c1.05-.05,2.08-.13,3.1-.18.52,0,1,0,1.53,0h.39l.19,0,.19,0,.72.1c.94.08,1.9.12,2.82.14s1.82,0,2.69,0l.65,0,.64,0,1.26-.07.61,0h.62c.4,0,.8,0,1.18,0s.77.05,1.14.07l.28,0h.27a4.87,4.87,0,0,0,.54,0c.7,0,1.39,0,2-.08l1.87-.09.87,0h.82l1.48,0c.92,0,1.71,0,2.34,0l1.45,0,.37,0h.12l0,0h-.13l-.38,0c-.32,0-.81,0-1.45,0s-1.42,0-2.34,0c-.46,0-1,0-1.48,0l-.82,0-.86,0L164,1.4c-.65,0-1.33.08-2.06.09-.18,0-.36,0-.54,0h-.28l-.28,0c-.37,0-.75-.05-1.13-.05s-.77,0-1.17,0H158l-.61,0-1.25.08-.65,0-.65,0c-.45,0-.89,0-1.34,0h-1.38c-.47,0-.94,0-1.42-.05l-.72,0-.74-.06-.72-.09-.17,0h-.18l-.36,0c-.49,0-1,0-1.49,0-1,0-2,.13-3.1.19l-.81,0h-.81l-1.63,0c-1.1,0-2.21,0-3.34,0h-.84l-.85,0-1.74.12h-1.34l-.45,0h-.44l-.45,0-.88,0-.44,0H127.8c-.61,0-1.21,0-1.82,0-1.22,0-2.45.05-3.7.08-.63,0-1.27,0-1.9,0h-.93l-1,0-1,0c-.16,0-.33,0-.49,0h-.49l-1,0-1-.07c-.65-.05-1.29-.12-1.93-.18s-1.28,0-1.93,0c-2.61,0-5.25.14-7.94.16h-2c-.67,0-1.34,0-2,0-1.34,0-2.69.06-4,0l-.51,0-.51,0-1-.05h-1l-1,0c-.68,0-1.35.06-2,.1a15.66,15.66,0,0,1-2.06.05c-.68-.05-1.35-.14-2-.18a4.13,4.13,0,0,0-.5,0h-.5l-.5,0-.51,0-1,0h-1l-2,0-.5,0-.51,0L77,1.5l-.49,0c-.67,0-1.34,0-2,.07l-2,.11c-.68,0-1.35,0-2,0l-1,0c-.33,0-.66,0-1,0h-2c-1.33,0-2.65-.05-4-.1s-2.61-.1-3.9-.1h-1l-1,0c-.32,0-.64.05-1,.06s-.64,0-1,0c-1.28,0-2.54,0-3.78,0s-2.47.12-3.7.14H45.53c-.31,0-.61,0-.91,0l-.9,0-.45,0-.44,0c-.29,0-.59,0-.88,0s-.59,0-.88,0-.58,0-.87,0c-1.16,0-2.3.05-3.42.13l-.85.06c-.28,0-.56,0-.85,0-.56,0-1.12,0-1.67,0s-1.1-.05-1.64-.09-1.07-.08-1.59-.1-1,0-1.56,0H24.1l-1.45,0-1.4,0-2.71,0c-.44,0-.88,0-1.29,0s-.83.06-1.24.1-.81.1-1.21.11l-.6,0h-.59l-1.14,0H11.38l-2.07,0-1,0-.23,0H8l-.11,0-.22,0-.21,0c-.58,0-1.15,0-1.68,0l-1.48,0L3,1.43c-.39,0-.74,0-1.06,0-.16,0-.31,0-.45,0H1.11l-.61,0H0Z"/><path class="cls-7" d="M5.52.94h0c-.28,0-.73-.05-.87.19s.3.35.54.38.78,0,.91-.2S5.75,1,5.52.94Z"/><path class="cls-7" d="M8.54,1.27a.57.57,0,0,0-.46-.12.8.8,0,0,0-.29.15h0c-.08,0-.2.13-.13.21s.38.07.5.07.36,0,.45-.07S8.63,1.35,8.54,1.27Z"/><path class="cls-7" d="M16.19.92a1.64,1.64,0,0,0-1.45.19c-.11.06-.29.21-.22.33s.31.16.52.15,1.16-.06,1.31-.34C16.44,1.14,16.34,1,16.19.92Z"/><path class="cls-7" d="M22.29.85a.6.6,0,0,0-.66-.29.85.85,0,0,0-.17.06,1.26,1.26,0,0,0-.36.21c-.11.09-.46.32-.25.46a1.92,1.92,0,0,0,.48.07,3.86,3.86,0,0,0,.76,0C22.48,1.32,22.41,1.05,22.29.85Z"/><path class="cls-7" d="M24.31.92a.66.66,0,0,0-.41.1c-.21.06-.37.15-.32.28s.46.11.61.1.64,0,.61-.18S24.51.94,24.31.92Z"/><path class="cls-7" d="M34.67,1.27c-.05-.14-.38-.2-.55-.2l-.22,0a1.35,1.35,0,0,0-.32.09c-.12.05-.43.3-.14.36S34.82,1.65,34.67,1.27Z"/><path class="cls-7" d="M36.59,1.24a.71.71,0,0,0-.72-.11,1.87,1.87,0,0,0-.25.12.34.34,0,0,0-.2.19.07.07,0,0,0,0,.08,1.65,1.65,0,0,0,.83,0C36.53,1.52,36.78,1.44,36.59,1.24Z"/><path class="cls-7" d="M44,.92c-.07-.27-.68-.15-.9-.1s-.3.17-.29.29h0c-.17.28.37.36.63.36a.6.6,0,0,0,.48-.16A.43.43,0,0,0,44,.92Z"/><path class="cls-7" d="M45.43,1.28A.54.54,0,0,0,45,1.11a.4.4,0,0,0-.3.17c-.08.07-.14.2,0,.24a1.52,1.52,0,0,0,.56,0C45.48,1.46,45.5,1.37,45.43,1.28Z"/><path class="cls-7" d="M47.32,1.41c-.08-.14-.32-.2-.47-.27A1,1,0,0,0,46.1,1c-.16.07-.38.2-.38.36s.09.13.19.14a.93.93,0,0,0,.44.08c.25,0,.77.08.94-.1A.06.06,0,0,0,47.32,1.41Z"/><path class="cls-7" d="M50.84,1c-.17-.06-.43-.12-.57,0a.29.29,0,0,0-.08.08A.31.31,0,0,0,50,1.3c0,.19.36.14.52.13s.49,0,.58-.13S51,1,50.84,1Z"/><path class="cls-7" d="M51.8,1a.33.33,0,0,0-.27.22.15.15,0,0,0,0,.11h0c0,.13.23.13.36.13s.45-.06.51-.18C52.58,1,52,.94,51.8,1Z"/><path class="cls-7" d="M66.14,1.11c0-.1-.11-.29-.26-.33a.61.61,0,0,0-.42,0,.79.79,0,0,0-.39.29c-.08.19.09.34.31.38a.8.8,0,0,0,.31,0c.12,0,.34,0,.43-.07S66.18,1.24,66.14,1.11Z"/><path class="cls-7" d="M71.45.39a1.16,1.16,0,0,0-.82-.12c-.28.08-.41.36-.51.54a.45.45,0,0,0,.07.59.85.85,0,0,0,.35.15.83.83,0,0,0,.26.06,2,2,0,0,0,1-.1C72.46,1.21,71.84.6,71.45.39Z"/><path class="cls-7" d="M74.12.65a1.27,1.27,0,0,0-1.35.53c-.11.18,0,.29.24.33a1.91,1.91,0,0,0,.92,0,.58.58,0,0,0,.5-.4A.45.45,0,0,0,74.12.65Z"/><path class="cls-7" d="M81.7.77A1,1,0,0,0,80.44.59c-.27.11-.63.39-.64.64s.17.28.38.29a1.19,1.19,0,0,0,.31.07,2.67,2.67,0,0,0,1.13-.07C82.05,1.34,81.92,1,81.7.77Z"/><path class="cls-7" d="M83.88.85a1.71,1.71,0,0,0-1.6,0c-.13.11-.23.28-.07.41a.81.81,0,0,0,.33.14,3.22,3.22,0,0,0,.88.13C83.9,1.5,84.32,1.15,83.88.85Z"/><path class="cls-7" d="M87.09,1.39A.2.2,0,0,0,87,1.11a.84.84,0,0,0-.8,0,.28.28,0,0,0-.07.29.21.21,0,0,0,.07.16c.16.19.48.13.69,0a.42.42,0,0,0,.2-.17Z"/><path class="cls-7" d="M89.55.61A.52.52,0,0,0,89,.54c-.4.15-1.14.47-.87.88a.34.34,0,0,0,.24.1.34.34,0,0,0,.14.05,2.21,2.21,0,0,0,.81-.07.5.5,0,0,0,.34-.41A.58.58,0,0,0,89.55.61Z"/><path class="cls-7" d="M95.5,1.06A1.25,1.25,0,0,0,95,.8L94.67.72a1.16,1.16,0,0,0-.78,0,.48.48,0,0,0-.23.36c-.06.11-.08.23.07.3a2.51,2.51,0,0,0,.87.12,2,2,0,0,0,.82-.05A.21.21,0,0,0,95.5,1.06Z"/><path class="cls-7" d="M99.51.19a2,2,0,0,0-1.68.52c-.32.39.19.58.64.64a2.34,2.34,0,0,0,.38.09c.54.11,1.27.05,1.54-.36S100.09.26,99.51.19Z"/><path class="cls-7" d="M103.05.49a1.14,1.14,0,0,0-.63.1A1,1,0,0,0,102,1a.22.22,0,0,0,.1.34.76.76,0,0,0,.4.13,1.43,1.43,0,0,0,1.07-.18C103.82,1,103.42.6,103.05.49Z"/><path class="cls-7" d="M113.27.62a1.37,1.37,0,0,0-.64-.1c-.18,0-.58,0-.7.12a.23.23,0,0,0,0,.33.43.43,0,0,0,.28.15,1.51,1.51,0,0,0,.84.1C113.48,1.16,113.68.82,113.27.62Z"/><path class="cls-7" d="M115.58.83c-.38-.38-1-.07-1.29.18-.14.11-.17.26,0,.35a.27.27,0,0,0,.18,0,1.59,1.59,0,0,0,.53,0,1,1,0,0,0,.64-.12C115.83,1.15,115.72,1,115.58.83Z"/><path class="cls-7" d="M120.88,1.16c0-.21-.32-.34-.57-.38a.6.6,0,0,0-.5.17l-.16.08c-.13.08-.4.24-.28.39s.18.07.28.07h.56C120.49,1.48,120.91,1.44,120.88,1.16Z"/><path class="cls-7" d="M126.26.34c-.15-.23-.69-.27-1-.3A2.62,2.62,0,0,0,124,.32c-.31.14-.92.42-.78.76a.6.6,0,0,0,.49.25,3.87,3.87,0,0,0,1.41.1C125.79,1.38,126.68,1,126.26.34Z"/><path class="cls-7" d="M136.37.89A1.11,1.11,0,0,0,136,.74a1.83,1.83,0,0,0-.71-.11c-.25,0-.69.08-.79.29-.22.46.44.49.86.45a2.45,2.45,0,0,0,.9-.11C136.46,1.16,136.53,1,136.37.89Z"/><path class="cls-7" d="M137.82.9c-.17,0-.4.12-.4.27s0,.06.05.09.41.13.54.14.49-.06.55-.22S138.05.84,137.82.9Z"/><path class="cls-7" d="M146.94.66a2.48,2.48,0,0,0-1.07-.55.88.88,0,0,0-.77.3c-.18.17-.45.43-.36.66a.39.39,0,0,0,.36.21,2.45,2.45,0,0,0,.81.07C146.39,1.36,147.59,1.18,146.94.66Z"/><path class="cls-7" d="M148.8.54a.76.76,0,0,0-.82.32c-.13.12-.18.26,0,.35a1.87,1.87,0,0,0,.67.05.9.9,0,0,0,.54-.12C149.56.86,149.11.64,148.8.54Z"/><path class="cls-7" d="M157.78.43A2,2,0,0,0,156.56,0a1.07,1.07,0,0,0-.93.53c-.14.2-.27.49,0,.68a1.76,1.76,0,0,0,.61.14h.08a5.46,5.46,0,0,0,.57,0A1.89,1.89,0,0,0,158,1.18C158.32,1,158,.6,157.78.43Z"/><path class="cls-7" d="M161.88.94c-.14-.54-1-.4-1.45-.19-.22.1-.44.2-.46.41s.07.14.17.17a.87.87,0,0,0,.37.13C161,1.55,162,1.52,161.88.94Z"/><path class="cls-7" d="M165.85.26A2.73,2.73,0,0,0,164,.57c-.32.2-.06.4.27.53a1.15,1.15,0,0,0,.57.16H165a1.31,1.31,0,0,0,.64-.13C166,1,166.48.46,165.85.26Z"/><path class="cls-7" d="M167.62.94a.49.49,0,0,0-.35-.2.58.58,0,0,0-.34.17l-.09.07c-.07.05-.14.22,0,.22S167.7,1.23,167.62.94Z"/><g class="cls-8"><path class="cls-7" d="M6.05,1.12c0,.21-.59.25-.77.24a1,1,0,0,1-.67-.25h0c-.15.25.3.35.54.38s.78,0,.91-.2A.15.15,0,0,0,6.05,1.12Z"/><path class="cls-7" d="M8.54,1.27l0,0c.08.16-.33.23-.47.23a.66.66,0,0,1-.37-.09c0,.05-.06.1,0,.14s.38.07.5.07.36,0,.45-.07S8.63,1.35,8.54,1.27Z"/><path class="cls-7" d="M16.19.92a1.4,1.4,0,0,0-.34-.08.26.26,0,0,1,.2.15c.1.24-.42.33-.63.36s-.71.13-.9,0a.13.13,0,0,0,0,.12c.09.16.31.16.52.15s1.16-.06,1.31-.34C16.44,1.14,16.34,1,16.19.92Z"/><path class="cls-7" d="M22.32.9c0,.18-.31.28-.56.29s-.8,0-.78-.26c-.14.1-.28.26-.13.36a1.92,1.92,0,0,0,.48.07,3.86,3.86,0,0,0,.76,0C22.45,1.33,22.42,1.09,22.32.9Z"/><path class="cls-7" d="M24.73,1.11s0,.07-.09.1a1.09,1.09,0,0,1-.48.1.81.81,0,0,1-.41,0,.18.18,0,0,1-.09-.15c-.07,0-.11.11-.08.18s.46.11.61.1.64,0,.61-.18A.19.19,0,0,0,24.73,1.11Z"/><path class="cls-7" d="M34.67,1.27l-.05-.06c0,.08-.12.18-.26.21s-.77.13-.94-.08c0,0,0,0,0,0s-.15.2,0,.24S34.82,1.65,34.67,1.27Z"/><path class="cls-7" d="M36.59,1.24h0c0,.06,0,.13-.16.18a1,1,0,0,1-.87,0l0-.05a.18.18,0,0,0-.09.12.07.07,0,0,0,0,.08,1.65,1.65,0,0,0,.83,0C36.53,1.52,36.78,1.44,36.59,1.24Z"/><path class="cls-7" d="M43.79,1.23c-.22.13-.72.16-.88-.06a.22.22,0,0,1,0-.31.26.26,0,0,0-.17.25h0c-.17.28.37.36.63.36a.6.6,0,0,0,.48-.16.46.46,0,0,0,.1-.24A.44.44,0,0,1,43.79,1.23Z"/><path class="cls-7" d="M45.43,1.28a.36.36,0,0,0-.09-.08c0,.12-.18.18-.32.2a.39.39,0,0,1-.31-.09c-.07.07-.09.17,0,.21a1.52,1.52,0,0,0,.56,0C45.48,1.46,45.5,1.37,45.43,1.28Z"/><path class="cls-7" d="M47.32,1.41a.75.75,0,0,0-.39-.23c.19.12.13.29-.14.3a2.56,2.56,0,0,1-.62-.06c-.12,0-.28,0-.32-.15a.16.16,0,0,1,0-.09.24.24,0,0,0-.1.18c0,.09.09.13.19.14a.93.93,0,0,0,.44.08c.25,0,.77.08.94-.1A.06.06,0,0,0,47.32,1.41Z"/><path class="cls-7" d="M50.87,1l0,0c.14.18-.12.27-.32.28s-.42,0-.48-.14A.27.27,0,0,0,50,1.3c0,.19.36.14.52.13s.49,0,.58-.13S51,1.06,50.87,1Z"/><path class="cls-7" d="M52.34,1.05c.09.06.12.15,0,.22s-.49.15-.64,0a.32.32,0,0,1-.1-.16h0a.31.31,0,0,0,0,.1.15.15,0,0,0,0,.11h0c0,.13.23.13.36.13s.45-.06.51-.18S52.44,1.09,52.34,1.05Z"/><path class="cls-7" d="M66.1,1h0c.06.12,0,.24-.14.32s-.63,0-.69-.24a.17.17,0,0,1,0-.17.48.48,0,0,0-.22.2c-.08.19.09.34.31.38a.8.8,0,0,0,.31,0c.12,0,.34,0,.43-.07s.06-.23,0-.36A.69.69,0,0,0,66.1,1Z"/><path class="cls-7" d="M72,1c0,.23-.36.39-.68.39s-.94-.11-1-.48a.59.59,0,0,1,0-.35,2.1,2.1,0,0,0-.19.3.45.45,0,0,0,.07.59.85.85,0,0,0,.35.15.83.83,0,0,0,.26.06,2,2,0,0,0,1-.1C72.11,1.37,72.14,1.15,72,1Z"/><path class="cls-7" d="M73.71,1.4c-.38,0-.84-.15-.7-.49a1.17,1.17,0,0,0-.24.27c-.11.18,0,.29.24.33a1.91,1.91,0,0,0,.92,0,.58.58,0,0,0,.5-.4V1A.76.76,0,0,1,73.71,1.4Z"/><path class="cls-7" d="M81.86,1a.64.64,0,0,1-.62.35c-.41,0-1.21,0-1.22-.45V.86a.63.63,0,0,0-.22.37c0,.21.17.28.38.29a1.19,1.19,0,0,0,.31.07,2.67,2.67,0,0,0,1.13-.07C81.92,1.4,82,1.21,81.86,1Z"/><path class="cls-7" d="M83.46,1.29c-.31,0-1-.05-1-.35a.28.28,0,0,1,0-.2l-.18.1c-.13.11-.23.28-.07.41a.81.81,0,0,0,.33.14,3.22,3.22,0,0,0,.88.13c.34,0,.64-.19.64-.4A1,1,0,0,1,83.46,1.29Z"/><path class="cls-7" d="M87.09,1.2a.33.33,0,0,1-.21.19.55.55,0,0,1-.66-.16.3.3,0,0,1,0-.11.27.27,0,0,0-.05.26.21.21,0,0,0,.07.16c.16.19.48.13.69,0a.42.42,0,0,0,.2-.17h0A.17.17,0,0,0,87.09,1.2Z"/><path class="cls-7" d="M89.55.61a.4.4,0,0,0-.22-.12.44.44,0,0,1,.08.29c-.07.35-.42.49-.86.49A1.13,1.13,0,0,1,88,1.14a.29.29,0,0,0,0,.28.34.34,0,0,0,.24.1.34.34,0,0,0,.14.05,2.21,2.21,0,0,0,.81-.07.5.5,0,0,0,.34-.41A.58.58,0,0,0,89.55.61Z"/><path class="cls-7" d="M95,1.32c-.4,0-1,0-1.21-.32a.28.28,0,0,1,0-.12.44.44,0,0,0-.07.19c-.06.11-.08.23.07.3a2.51,2.51,0,0,0,.87.12,2,2,0,0,0,.82-.05c.16-.06.2-.18.15-.29A.85.85,0,0,1,95,1.32Z"/><path class="cls-7" d="M100.46.71h0c0,.54-1,.59-1.53.49S98,1,97.85.69a0,0,0,0,1,0,0c-.32.39.19.58.64.64a2.34,2.34,0,0,0,.38.09c.54.11,1.27.05,1.54-.36A.38.38,0,0,0,100.46.71Z"/><path class="cls-7" d="M103.47.74v0c.1.31-.22.55-.63.53S102,1.21,102,.91A.35.35,0,0,0,102,1a.22.22,0,0,0,.1.34.76.76,0,0,0,.4.13,1.43,1.43,0,0,0,1.07-.18C103.7,1.12,103.63.91,103.47.74Z"/><path class="cls-7" d="M113.34.66a.26.26,0,0,1,0,.25.48.48,0,0,1-.41.11c-.27,0-.73-.1-.82-.34a.18.18,0,0,1,0-.1.17.17,0,0,0-.11.06.23.23,0,0,0,0,.33.43.43,0,0,0,.28.15,1.51,1.51,0,0,0,.84.1C113.45,1.16,113.66.86,113.34.66Z"/><path class="cls-7" d="M115.58.83a.59.59,0,0,0-.33-.17c.2.11.33.33,0,.44a1.36,1.36,0,0,1-1.05,0c-.1.1-.1.22.07.3a.27.27,0,0,0,.18,0,1.59,1.59,0,0,0,.53,0,1,1,0,0,0,.64-.12C115.83,1.15,115.72,1,115.58.83Z"/><path class="cls-7" d="M120.78,1.24a1.71,1.71,0,0,1-.46.1,1,1,0,0,1-.54,0c-.11-.06-.17-.16-.11-.27s0,0,0,0l0,0c-.13.08-.4.24-.28.39s.18.07.28.07h.56c.27,0,.67,0,.67-.29Z"/><path class="cls-7" d="M126.26.34a.29.29,0,0,0-.1-.09c.22.41-.35.68-.84.75s-.83-.18-1.18-.05a.81.81,0,0,1-.63.09c-.18-.07-.25-.17-.25-.27a.28.28,0,0,0-.07.31.6.6,0,0,0,.49.25,3.87,3.87,0,0,0,1.41.1C125.79,1.38,126.68,1,126.26.34Z"/><path class="cls-7" d="M136.29,1.07a1,1,0,0,1-.6,0c-.28-.07-.47.12-.76.09a.49.49,0,0,1-.38-.22h0c-.22.46.44.49.86.45a2.45,2.45,0,0,0,.9-.11c.12-.07.18-.17.15-.26A.48.48,0,0,1,136.29,1.07Z"/><path class="cls-7" d="M138.26,1.26c-.22,0-.59,0-.68-.2s0,0,0-.07a.25.25,0,0,0-.13.18s0,.06.05.09.41.13.54.14.49-.06.55-.22a.2.2,0,0,0,0-.07A.81.81,0,0,1,138.26,1.26Z"/><path class="cls-7" d="M146.94.66l-.25-.18a.32.32,0,0,1-.16.52,1,1,0,0,1-.69,0c-.23,0-.47.11-.69,0a.52.52,0,0,1-.34-.34.38.38,0,0,0-.07.35.39.39,0,0,0,.36.21,2.45,2.45,0,0,0,.81.07C146.39,1.36,147.59,1.18,146.94.66Z"/><path class="cls-7" d="M149,.6c.13.09.2.2.11.31a.9.9,0,0,1-.89.12A.44.44,0,0,1,148,.87c-.12.11-.17.25.05.34a1.87,1.87,0,0,0,.67.05.9.9,0,0,0,.54-.12C149.5.91,149.24.72,149,.6Z"/><path class="cls-7" d="M157.67,1.12c-.36,0-.57-.21-.92-.09a.57.57,0,0,1-.68-.12.39.39,0,0,1,0-.55,1.15,1.15,0,0,1,.55-.36h0a1.07,1.07,0,0,0-.93.53c-.14.2-.27.49,0,.68a1.76,1.76,0,0,0,.61.14h.08a5.46,5.46,0,0,0,.57,0A1.89,1.89,0,0,0,158,1.18a.28.28,0,0,0,.1-.31A.64.64,0,0,1,157.67,1.12Z"/><path class="cls-7" d="M161.88.94s0,0,0,0a.67.67,0,0,1-.47.36A1.16,1.16,0,0,1,160.26,1a.31.31,0,0,1,0-.18c-.13.08-.23.16-.24.3s.07.14.17.17a.87.87,0,0,0,.37.13C161,1.55,162,1.52,161.88.94Z"/><path class="cls-7" d="M165.86.9a1.53,1.53,0,0,1-1.6-.06c-.14-.13-.16-.25-.11-.34L164,.57c-.32.2-.06.4.27.53a1.15,1.15,0,0,0,.57.16H165a1.31,1.31,0,0,0,.64-.13A1.35,1.35,0,0,0,166,.82.7.7,0,0,1,165.86.9Z"/><path class="cls-7" d="M167.62.94a.13.13,0,0,0-.05-.06.44.44,0,0,1-.32.17.53.53,0,0,1-.37-.1l0,0c-.07.05-.14.22,0,.22S167.7,1.23,167.62.94Z"/></g><path class="cls-3" d="M172.88,6.37a10.46,10.46,0,0,0-2.1.2,7.16,7.16,0,0,0-2.13.92,4.88,4.88,0,0,1-2.15.78,16,16,0,0,0-2.5,0c-1,.17-2,.32-3,.52a21.51,21.51,0,0,1-2.78.47,14.52,14.52,0,0,1-3-.05,1.76,1.76,0,0,1-1.48-.94,2,2,0,0,0-.91-.87.78.78,0,0,0-1,.12,2.94,2.94,0,0,1-.53.37l-.43.12c-.21,0-.55.13-.6.32s0,.23-.07.34c-.27.65-1,.07-1.58.07a2.88,2.88,0,0,0-1.33.55,3.06,3.06,0,0,1-.92.26,22.51,22.51,0,0,1-2.47.3,2.72,2.72,0,0,1-.95-.08,5,5,0,0,1-.83-.42,1.57,1.57,0,0,0-1.37-.13,6.94,6.94,0,0,0-.92.66,1.21,1.21,0,0,1-.67.27l-.52,0-3-.21c-.23,0-.43-.29-.49-.43s-.15-.51-.27-.75a1.14,1.14,0,0,0-1.24-.43,8.26,8.26,0,0,1-1.09.27,4.56,4.56,0,0,1-1.28-.12,1.69,1.69,0,0,0-.59,0c-.47.17-.93.39-1.42.54a3.61,3.61,0,0,1-1.93.15A4.75,4.75,0,0,0,125.28,9a2.19,2.19,0,0,1-1.8-.24c-.52-.39-.94-.87-1.79-.69-.64.15-.85.66-1.44.86a2.91,2.91,0,0,1-2.13-.43,6.09,6.09,0,0,1-1-.71,1.64,1.64,0,0,1-.33-.31c-.08-.12-.13-.25-.22-.37-.35-.45-.93-.39-1.51-.43a.8.8,0,0,1-.69-.28c-.07-.08-.23-.34-.4-.29l-.24.07a.71.71,0,0,1-.38,0c-.34-.08-1.08-.41-1.4-.24s-.49.31-.79.19-.21-.24-.49-.25a2.06,2.06,0,0,0-.93.12s-.09,0-.1,0a.92.92,0,0,0-.35-.3l-.21,0a9.21,9.21,0,0,1-2.1,0,16,16,0,0,0-2.29-.24c-1.66,0-2.73,1.14-4.32,1.29a14.89,14.89,0,0,0-2.92.41,5.12,5.12,0,0,1-1.66.47c-.32,0-.43-.09-.62.12a.41.41,0,0,1-.24.13,1.29,1.29,0,0,1-.85-.18c-.43-.21-.8-.48-1.19-.72a6.75,6.75,0,0,0-2.09-.75A9.18,9.18,0,0,0,88,6c-.77.07-1.5.27-2.26.37a3.19,3.19,0,0,1-1.68-.22,5.26,5.26,0,0,0-2.79-.26c-.9.15-1.75.39-2.63.58a6.69,6.69,0,0,1-2.14.27,8.29,8.29,0,0,0-1.32-.09A4.18,4.18,0,0,0,73.85,7c-.44.19-.89.36-1.34.54a12.8,12.8,0,0,1-2.68.9c-1,.12-1.07-.79-1.24-1.28-.44-1.29-2.26-1.56-3.79-1.3-1.32.24-2.53.71-3.84.95-1.6.3-3.51,0-5,.66-1,.43-1.88,1.14-3.12.85A4.68,4.68,0,0,1,52.15,8a1.93,1.93,0,0,0-1.34.12,2.07,2.07,0,0,1-1.39,0,.88.88,0,0,1-.58-.45,2.06,2.06,0,0,0-1.06-1.08A9.14,9.14,0,0,0,43.57,6c-.8.07-1.58.2-2.39.21s-1.5.14-2.26.1a4.24,4.24,0,0,1-3.1-1.52c-.11-.11-.66-.8-.81-.66a1.11,1.11,0,0,1-.47.31,2.7,2.7,0,0,1-.57.08,1.22,1.22,0,0,0-.88.34,1.29,1.29,0,0,1-1.2.41c-.44,0-.67.43-.93.67s-.27.64-.65.71a.89.89,0,0,1-.28,0c-.15,0-.12.38-.13.44,0,.25-.11.51-.17.76a.09.09,0,0,1-.1,0,3.46,3.46,0,0,0-2,.43A2.36,2.36,0,0,1,26,8.27c-.83-.26-1.41-.82-2.2-1.14a9.17,9.17,0,0,0-1.51-.48,5.13,5.13,0,0,1-1-.26c-.78-.34-1.68-1-2.54-.45a.56.56,0,0,1-.73-.06c-.67-.45-1.78,0-2.36.4a12,12,0,0,0-1.22,1,5.33,5.33,0,0,1-2.85,1.36,10.68,10.68,0,0,0-1.26.21A2.38,2.38,0,0,1,9.48,9a1.48,1.48,0,0,1-1-.36c-.1-.13-.15-.29-.26-.42a1.68,1.68,0,0,0-1.21-.39c-.37,0-.78,0-1-.31C5.71,6.9,5,5.59,3.93,5.93a4.52,4.52,0,0,1-1.27.29,2.78,2.78,0,0,1-1.29-.34A1.78,1.78,0,0,0,0,5.73V28.54H173.33V6.39Z"/><path class="cls-3" d="M173.14,15.18c-.47.07-.4-.34-.75-.46-.75-.27-1.5.26-2.24.09-.27-.05-.38-.33-.42-.51s-.15-1-.48-.79a5.22,5.22,0,0,1-1.86,1.17c-1.95.41-3.38-1.51-5.39-1a2.36,2.36,0,0,0-1.34,1,3.51,3.51,0,0,1-1.31,1.11.09.09,0,0,1-.09,0c-.38-.37-.65-.79-1-1.16a1.57,1.57,0,0,0-1.91-.32.08.08,0,0,1-.11-.05,1.22,1.22,0,0,0-.25-.44c-.05-.07-.23,0-.29,0-.29.09-.55.21-.82.32a2.67,2.67,0,0,1-1.38.23c-.73-.06-1,.3-1.53.62a3.63,3.63,0,0,1-1.41.43c-2.06.26-3.8-1-5.53-1.64a1.85,1.85,0,0,1-1.27,1.26,1.41,1.41,0,0,1-1.5-.34,1.57,1.57,0,0,0-.61-.59,2.39,2.39,0,0,0-1.3,0c-.9.16-1.74.46-2.62.67a.08.08,0,0,1-.09,0c-.08-.1-.16-.19-.23-.29a1.13,1.13,0,0,1-1.13.72c-.61,0-1.24-.51-1.87-.39a4.53,4.53,0,0,1-1,.29,1.27,1.27,0,0,1-.82-.28,4.77,4.77,0,0,1-1-1.46c-.44.37-1,1-1.67,1a4.12,4.12,0,0,1-1.33-.2c-.24-.11-.43-.26-.67-.37a1.64,1.64,0,0,0-1.25.07,4.41,4.41,0,0,1-2.65-.34,14.7,14.7,0,0,0-3.39-.29,3.09,3.09,0,0,0-1,0,2.82,2.82,0,0,1-.58.1,1.33,1.33,0,0,1-.84-.28c-.34-.27-.66-.61-1.21-.48a2,2,0,0,0-.79.43,1.74,1.74,0,0,1-1.59.37,4.57,4.57,0,0,1-1.82-1.24,5.5,5.5,0,0,0-1-.77,2.2,2.2,0,0,0-1.19-.36c-.33,0-.63.16-1,.22a12.12,12.12,0,0,1-1.35.15,16.52,16.52,0,0,0-3.69.56,5.51,5.51,0,0,0-1,.48,1.12,1.12,0,0,0-.46.39,2.83,2.83,0,0,1-.16.36c-.38.64-1.3.59-2.08.63a1.87,1.87,0,0,0-1,.24,4.91,4.91,0,0,0-.46.45,2.82,2.82,0,0,1-.76.54,10.38,10.38,0,0,1-1.28.52,3.53,3.53,0,0,0-.87.43,1.47,1.47,0,0,1-1,.11l-.22.18a.1.1,0,0,1-.13,0c-.4-.46-.87-.48-1.54-.54a1.87,1.87,0,0,1-1-.34c-.66-.53-1.39-1.57-2.55-.95a2,2,0,0,1-.91.37,1.8,1.8,0,0,1-.93-.26c-1.12-.5-1.68.73-2.59,1a.08.08,0,0,1-.08,0c-.2-.14-.52-.49-.83-.47s-.47.21-.74.33-.39,0-.55.1l-.38.14c-.83.27-1.44-.47-2.29-.39a1.35,1.35,0,0,1-1.26-.46,4,4,0,0,0-.37-.57.86.86,0,0,0-1.2.1c-.4.36-.64.71-1.31.7s-.72-.38-1.08-.63a1.81,1.81,0,0,0-1.36-.16,2.1,2.1,0,0,1-.79,0c-.93-.14-1.68-.64-2.49,0a.1.1,0,0,1-.13,0c-.79-.78-1.79.12-2.76-.18a2.85,2.85,0,0,1-.74-.37A1.43,1.43,0,0,0,66,13.47s-.11,0-.12,0a.77.77,0,0,0-.53-.6,1.58,1.58,0,0,1-.87-.38c-.14-.12-.15-.22-.34-.09a1.17,1.17,0,0,1-.32.15,1.06,1.06,0,0,1-.61,0,2.63,2.63,0,0,0-1-.26,1.79,1.79,0,0,0-1.17.57,1.92,1.92,0,0,1-1.87.28c-1.12-.24-1.32.49-1.78,1a1.35,1.35,0,0,1-1.22.46c-.62-.15-1-.77-1.74-.63s-1.07.82-1.65,1.17a.09.09,0,0,1-.12,0c-.69-.66-2-.14-2.77.16l-1.28.56a4,4,0,0,1-.86.32c-.54.11-1.35-.23-1.76.15s-.38.77-.58,1.14c-.37.68-1.42,1.07-2.21,1.44a.12.12,0,0,1-.1,0c-.39-.33-.45-.78-.79-1.12s-.59,0-1-.21-.44-.28-.66-.43a2.86,2.86,0,0,0-1.53-.61,4.5,4.5,0,0,0-1.59.51s-.1,0-.11,0a3.2,3.2,0,0,0-.37-.61C37,16.23,37,16,36.82,16c-.52.2-1,.41-1.54.59a5.64,5.64,0,0,1-1.37.27,10.34,10.34,0,0,0-1.85.1.08.08,0,0,1-.09,0,2.69,2.69,0,0,0-1.3-1.78,4,4,0,0,0-2.86.08c-.55.2-1.4.62-2,.33-.38-.18-.72-.42-1.1-.59-.16-.07-.17-.13-.3-.06a3,3,0,0,1-.4.21.85.85,0,0,1-.64.1c-.3-.11-.4-.6-.78-.59s-.57.25-.91.4a1.16,1.16,0,0,1-.78,0,1.52,1.52,0,0,1-.64-.42c-.15-.16-.38-.55-.71-.53-1.17,0-.94,1.36-1.47,1.89A.09.09,0,0,1,18,16c-.47-.29-.76-.76-1.29-1s-.81.41-1.2.64a.84.84,0,0,1-.81-.11c-.15-.11-.26-.24-.41-.35a.85.85,0,0,0-.87,0s-.11,0-.12,0A1.16,1.16,0,0,0,13,14.7s-.08,0-.11.06c-.29.15-.61.24-.87.41,0,0-.12,0-.13,0a2.77,2.77,0,0,0-.67-1c-.21-.24-.8-1-1.3-.85a2.49,2.49,0,0,1-.77.19c-.2,0-.25-.26-.27-.41a1.07,1.07,0,0,1-.79,0,1.53,1.53,0,0,1-.56-.31c-.12-.1-.11-.18-.24-.06a16.22,16.22,0,0,0-1.11,1.4A1.79,1.79,0,0,1,5,14.86a1.16,1.16,0,0,1-1.16-.57,4.45,4.45,0,0,0-.42-.81c-.37-.41-.82-.21-1.25,0a2.75,2.75,0,0,1-1.94.19L0,13.58v15H173.33V15.14Z"/><path class="cls-3" d="M172,19.11a8.48,8.48,0,0,0-4,2.34.12.12,0,0,1-.1,0c-.86-.35-1.49,0-2.34-.07-.23,0-.88-.26-1.06-.14s-.45.28-.69.4a21.92,21.92,0,0,1-4.27,1.57.09.09,0,0,1-.1,0A4.26,4.26,0,0,0,158.23,22c-.26-.24-.35,0-.63.14a2,2,0,0,1-1.46.19,5.33,5.33,0,0,1-2.63-2.29,1,1,0,0,0-.77-.52,6.9,6.9,0,0,1-.93-.36c-1.15-.5-1.86.17-2.74.6a1.9,1.9,0,0,1-1.72.17c-1.2-.58-2.07.39-3,.92a.1.1,0,0,1-.12,0c-.85-1-2.14-.67-3,.12a.09.09,0,0,1-.12,0c-.24-.3-.44-.72-1.06-.51l-1,.34a12.25,12.25,0,0,1-1.48.5,18.53,18.53,0,0,1-3.65.15,16.35,16.35,0,0,1-4.08-.16c-1.14-.25-1.65-1.72-3-.89a.12.12,0,0,1-.1,0,2.13,2.13,0,0,1-.81-.54,2.48,2.48,0,0,0-1.66-.85,11.93,11.93,0,0,0-3.91.15c-.62.16-1.21.38-1.82.55l-.92.25-.39.12c-.31.09-.11.07-.22,0a0,0,0,0,1,0,.09c-1.32.53-2.44,1.65-4,1.77a3.16,3.16,0,0,1-1.94-.25,1.6,1.6,0,0,0-1.37-.49,6.17,6.17,0,0,1-.85.2,2.51,2.51,0,0,1-2.33-2.19c-.08-.43-.4-.13-.8-.1A1.68,1.68,0,0,1,105,19a1.35,1.35,0,0,1-.58-.46c0-.07-.59.3-.7.35a1.29,1.29,0,0,1-.65,0,2.23,2.23,0,0,0-1.37.25c-1,.46-1.92,1-2.9,1.54a6.72,6.72,0,0,1-4.22.51c-.94-.15-1.88-.39-2.84-.45a2.52,2.52,0,0,0-2.21.87c-.33.32-.78.67-1.32.38a2.72,2.72,0,0,0-1.59-.33,3.14,3.14,0,0,1-.75,0A5.82,5.82,0,0,1,84.25,21a7.34,7.34,0,0,0-2.47-.49,4.64,4.64,0,0,1-2-.51c-.26-.18-.22-.24-.54-.13a8.62,8.62,0,0,0-.94.31.09.09,0,0,1-.11,0c-.19-.22-.53-.4-.68-.65s-.7.6-.76.7a3.83,3.83,0,0,1-1.09,1.37.11.11,0,0,1-.11,0c-.09-.07-.64-.49-.7-.4a3.94,3.94,0,0,1-.36.45,4.25,4.25,0,0,1-.81.71.89.89,0,0,1-1.11,0c-.26-.22-.44-.47-.9-.47l-1.38,0a12.74,12.74,0,0,0-3.1.43,20.52,20.52,0,0,1-2.36.47,6.81,6.81,0,0,1-4.21-.46c-.44-.28-.46-.58-1-.24a1.65,1.65,0,0,1-.7.22,2.69,2.69,0,0,1-1.74-.63c-.4-.3-.81-.6-1.17-.93a4.32,4.32,0,0,0-.71-.63L55.17,20a.17.17,0,0,1-.1,0c-.45,0-2-.24-2.24-.61h0a.37.37,0,0,1-.24.13l-.32.2a4,4,0,0,0-.57.51c-.31.34-.73,1.07-1.29,1.28,0,0,0,0,0,0s0,0,0,.05a.1.1,0,0,1-.13,0h0a16.38,16.38,0,0,0-1.61.34,5.9,5.9,0,0,0-.72.2h0s0,.06,0,.08a3.49,3.49,0,0,1-1.54.32c-.58-.2-.86-1.11-1.73-.39a13.94,13.94,0,0,0-1.23,1.33.1.1,0,0,1-.11,0A9.32,9.32,0,0,1,42,22.71a1.57,1.57,0,0,0-2.1.15.12.12,0,0,1-.13,0c-.15-.16-.73-.71-1-.51a2.34,2.34,0,0,1-.79.34c-.52.1-.91-.31-1.4-.28a9,9,0,0,0-1.8.45,3.91,3.91,0,0,1-1.17.27,1.11,1.11,0,0,1-.61-.27c-.21-.19-.57-.87-1.09-.38-.16.15-.33.42-.6.24a6.16,6.16,0,0,1-1-.89s-1.85.57-2.18.57a1.67,1.67,0,0,1-.71-.2c-.25-.15-.89.26-1.08.33a.09.09,0,0,1-.11,0,1.67,1.67,0,0,0-2.68-.1.11.11,0,0,1-.11,0c-1.31-1-2.61-1.4-4.1-.35a.11.11,0,0,1-.11,0c-.35-.25-.77-.45-1.09-.72s-.24-.29-.6-.16a1,1,0,0,1-.82-.08c-.9-.48-1-1.77-2.37-.8a.09.09,0,0,1-.12,0,1.54,1.54,0,0,0-2-.7,7,7,0,0,0-1.35.83.12.12,0,0,1-.13,0,3.51,3.51,0,0,0-.69-.7,1.13,1.13,0,0,1-.15-.14.08.08,0,0,1,0,.06,1.78,1.78,0,0,1-.49.75c-.7.65-1.65,1.1-2.29,1.78a.1.1,0,0,1-.14,0c-.12-.16-.6-.8-.75-.66a6.46,6.46,0,0,1-1,.67.09.09,0,0,1-.13,0c-.1-.32-.5-.49-.68-.77,0-.08-.45.31-.46.32a1.36,1.36,0,0,1-.68.33c-.57,0-.8-.47-1-.8a4.06,4.06,0,0,0-.57-1.09c-.06-.07-.87-.08-1-.17a1,1,0,0,1-.5-.66,3,3,0,0,1-.09-.51.8.8,0,0,0-.15,0v9.72H173.33V18.86Z"/><path class="cls-9" d="M15.62.91A1.31,1.31,0,0,0,15.1,1c-.12.05-.28.12-.33.23s0,0,0,0A2.19,2.19,0,0,1,15.63,1S15.66.91,15.62.91Z"/><path class="cls-9" d="M21.83.66c-.26-.13-.56.08-.69.23a0,0,0,0,0,0,0l.26-.15A1.5,1.5,0,0,1,21.8.72S21.87.68,21.83.66Z"/><path class="cls-9" d="M22.13.72a.22.22,0,0,0-.16,0c-.06,0-.1.08,0,.1l.12,0C22.13.83,22.18.75,22.13.72Z"/><path class="cls-9" d="M24.58,1.07A.51.51,0,0,0,24.21,1a.66.66,0,0,0-.37.16s0,0,0,0,.17-.07.28-.08a1.51,1.51,0,0,1,.37.06S24.61,1.1,24.58,1.07Z"/><path class="cls-9" d="M34.42,1.19a.86.86,0,0,0-.85.11s0,.05,0,0a1.23,1.23,0,0,1,.76-.07C34.42,1.28,34.48,1.22,34.42,1.19Z"/><path class="cls-9" d="M36.46,1.18a.78.78,0,0,0-.85.12s0,.07,0,0a.94.94,0,0,1,.72-.08C36.45,1.28,36.51,1.22,36.46,1.18Z"/><path class="cls-9" d="M43,.93S43,1,43,1a1.93,1.93,0,0,1,.42-.06.49.49,0,0,1,.21,0c.05,0,.06.08.09.11s.11,0,.11,0C43.84.7,43.17.81,43,.93Z"/><path class="cls-9" d="M45.16,1.15a.38.38,0,0,0-.37.11s0,.1.09.05a.38.38,0,0,1,.24-.08C45.18,1.24,45.23,1.17,45.16,1.15Z"/><path class="cls-9" d="M46.64,1.12a.64.64,0,0,0-.64,0s0,.09,0,.07a.72.72,0,0,1,.52,0C46.63,1.23,46.7,1.15,46.64,1.12Z"/><path class="cls-9" d="M46.88,1.21a.15.15,0,0,0-.13,0s-.08,0,0,.07a.14.14,0,0,0,.13,0S46.92,1.24,46.88,1.21Z"/><path class="cls-9" d="M50.77,1c0-.09-.2-.12-.31-.1a.37.37,0,0,0-.27.21s0,.05.05,0a.43.43,0,0,1,.22-.12c.09,0,.16,0,.25.05S50.78,1.07,50.77,1Z"/><path class="cls-9" d="M52.35,1.09a.65.65,0,0,0-.62,0s0,.07,0,.06a.88.88,0,0,1,.28,0,1.68,1.68,0,0,1,.24.06C52.36,1.19,52.39,1.12,52.35,1.09Z"/><path class="cls-9" d="M65.72.83a.38.38,0,0,0-.38.14s0,.05.06,0A.42.42,0,0,1,65.69,1a.71.71,0,0,1,.22.15s.09,0,.09,0S65.86.86,65.72.83Z"/><path class="cls-9" d="M71.73.68c-.33-.36-1-.58-1.4-.12,0,0,0,.07.07,0a.74.74,0,0,1,.72-.12c.19.07.31.22.51.28S71.78.73,71.73.68Z"/><path class="cls-9" d="M71.85.78c-.07-.05-.19,0-.13.09a.16.16,0,0,0,.13.07.06.06,0,0,0,.08,0C71.94.84,71.9.82,71.85.78Z"/><path class="cls-9" d="M74.19.84c-.08-.16-.33-.19-.53-.16A.77.77,0,0,0,73.1,1s0,.05.05,0a1.13,1.13,0,0,1,.46-.2,1,1,0,0,1,.48.09S74.22.88,74.19.84Z"/><path class="cls-9" d="M74.32.94c0-.07-.19,0-.18,0a.13.13,0,0,0,.15.1s.06,0,.07-.05S74.33,1,74.32.94Z"/><path class="cls-9" d="M81.55.79a.71.71,0,0,0-.63-.26,1.09,1.09,0,0,0-.78.34c0,.05,0,.1.09.06a1.05,1.05,0,0,1,.61-.25c.25,0,.4.12.61.18C81.5.88,81.58.84,81.55.79Z"/><path class="cls-9" d="M81.69.89c-.07,0-.2,0-.13.09a.24.24,0,0,0,.13.09s.1,0,.1-.05S81.76.92,81.69.89Z"/><path class="cls-9" d="M83.76.88A1.51,1.51,0,0,0,82.53.81c-.06,0,0,.09,0,.08a1.87,1.87,0,0,1,1.1.1C83.75,1,83.84.93,83.76.88Z"/><path class="cls-9" d="M83.91,1c-.1,0-.19.07-.11.12a.37.37,0,0,0,.11,0s.11,0,.1-.07A.13.13,0,0,0,83.91,1Z"/><path class="cls-9" d="M87,1.17c-.13-.13-.61-.23-.74,0,0,0,0,.06,0,0,.24-.08.4.05.61.09C87,1.27,87.05,1.21,87,1.17Z"/><path class="cls-9" d="M89.21.62a1.24,1.24,0,0,0-1,.44s0,.06.07,0a1.48,1.48,0,0,1,.36-.23c.18-.07.37-.09.54-.16S89.28.62,89.21.62Z"/><path class="cls-9" d="M95.12.94c-.22-.14-1.2-.4-1.27,0,0,0,0,0,.05,0,.23-.23.86,0,1.14.09C95.11,1,95.19,1,95.12.94Z"/><path class="cls-9" d="M95.38,1.05A.24.24,0,0,0,95.3,1c-.09,0-.2.05-.11.1a.43.43,0,0,0,.12,0C95.37,1.15,95.41,1.09,95.38,1.05Z"/><path class="cls-9" d="M100.13.53A2.09,2.09,0,0,0,98,.65s0,.08.06,0a2.42,2.42,0,0,1,2,0C100.12.69,100.19.58,100.13.53Z"/><path class="cls-9" d="M100.29.63c-.07-.06-.2,0-.14.09a.47.47,0,0,1,.06.09.1.1,0,0,0,.16,0A.17.17,0,0,0,100.29.63Z"/><path class="cls-9" d="M103.34.71a.93.93,0,0,0-1.26.22s.06.06.09,0a1,1,0,0,1,.4-.22,1,1,0,0,1,.67.06C103.3.82,103.4.75,103.34.71Z"/><path class="cls-9" d="M125.49.22a2.09,2.09,0,0,0-2,.57s.05.07.09,0A2.14,2.14,0,0,1,124.4.4a4.21,4.21,0,0,1,1.06-.07C125.53.33,125.56.25,125.49.22Z"/><path class="cls-9" d="M125.93.25a.88.88,0,0,0-.15,0c-.1,0-.18.09-.08.12a.46.46,0,0,0,.2,0S126,.27,125.93.25Z"/><path class="cls-9" d="M135.85.79a1.38,1.38,0,0,0-1.14.1s0,.07,0,.06a1.51,1.51,0,0,1,.52-.11c.19,0,.37,0,.56,0S135.89.81,135.85.79Z"/><path class="cls-9" d="M136.24.87A.28.28,0,0,0,136,.8c-.07,0-.13.08-.05.11a.48.48,0,0,0,.2,0C136.24,1,136.27.9,136.24.87Z"/><path class="cls-9" d="M138.3,1a.89.89,0,0,0-.56,0s0,.07,0,.06a1.47,1.47,0,0,1,.51,0C138.32,1.07,138.36,1,138.3,1Z"/><path class="cls-9" d="M146.27.36a1,1,0,0,0-.77-.11.84.84,0,0,0-.52.49s.05,0,.07,0a1.41,1.41,0,0,1,.4-.32c.25-.14.5,0,.76,0C146.28.46,146.32.4,146.27.36Z"/><path class="cls-9" d="M146.64.51c0-.07-.14-.1-.23-.09s-.08,0,0,.07a.27.27,0,0,0,.24.08S146.64.53,146.64.51Z"/><path class="cls-9" d="M148.69.62a.53.53,0,0,0-.33,0,.64.64,0,0,0-.23.2s0,.08.07.05a.74.74,0,0,1,.21-.13,1.09,1.09,0,0,1,.25,0C148.72.71,148.76.64,148.69.62Z"/><path class="cls-9" d="M149,.64a.19.19,0,0,0-.13,0c-.06,0-.1.07-.05.11l.07,0C148.94.79,149,.69,149,.64Z"/><path class="cls-9" d="M157.73.61a1.38,1.38,0,0,0-1.21-.47s-.05,0,0,0a1.81,1.81,0,0,1,1.11.49C157.68.73,157.77.66,157.73.61Z"/><path class="cls-9" d="M157.84.69c-.07,0-.17.05-.11.1s.11.17.21.1S157.92.72,157.84.69Z"/><path class="cls-9" d="M161.56.74a1.13,1.13,0,0,0-1.18.18s0,.06.05,0a3.12,3.12,0,0,1,.43-.15,1.21,1.21,0,0,1,.6,0C161.55.88,161.64.8,161.56.74Z"/><path class="cls-9" d="M161.74.85c-.07-.07-.23,0-.16.08a.13.13,0,0,0,.07.06c.06,0,.15,0,.14-.06A.18.18,0,0,0,161.74.85Z"/><path class="cls-9" d="M166,.46c-.11-.23-.46-.21-.73-.2a2.68,2.68,0,0,0-1,.24c-.07,0,0,.14.07.1a2,2,0,0,1,1.53,0C166,.6,166.06.53,166,.46Z"/><path class="cls-9" d="M165.84.64s0,.06,0,.09.07.07.11,0A.16.16,0,0,0,166,.69C166.06.61,165.89.56,165.84.64Z"/></g></g></g></svg>