<svg xmlns="http://www.w3.org/2000/svg" viewBox="0 0 30.96 30.15"><defs><style>.cls-1{fill:#f28518;}.cls-2{fill:#f69c15;}.cls-3{fill:#fdb90e;}.cls-4{fill:#fdd00a;}.cls-5{fill:#fddd0a;}.cls-6{fill:#fff10a;}.cls-7{fill:#fff478;}.cls-8{fill:#ffe83d;}</style></defs><g id="Layer_2" data-name="Layer 2"><g id="Layer_1-2" data-name="Layer 1"><path class="cls-1" d="M15.2,5.7a1.51,1.51,0,0,1,1-2.09c1.66-.69,2.13-.38,2.64-2.15s1-1.88,1.08-.58.6,2.23-.29,2.66-.61,1.25-.24,2c0,.07.06-.17.2-.41a.68.68,0,0,1,1-.33c1,.46,1.46.3,1.71-.54a2.28,2.28,0,0,1,2-1.57c.78,0-.36.42.17,1.71a2.73,2.73,0,0,1-.5,3.29c1.46-.22,1.77-.07,2.3.45a1.8,1.8,0,0,0,2,.5c.83-.31,1-.21,1.25.15s-1.4-.09-1.81,1.26-.51,1.47-1,1.52.37,0,.94.88.63.62.63.62-.1.42-1.14.27-.2.52.68.57,1.47,1.08,1.73,1.65.53,1.19,1.26,1.19-.67.32-1,.79a1.77,1.77,0,0,1-2.55-.14A1.08,1.08,0,0,0,26,17s1.4.41,1.47,1.56a1.07,1.07,0,0,0,.42.88,4.65,4.65,0,0,0-2.25-.66,1.43,1.43,0,0,1,.85,1.55c0,.52-.3,1.67.74,1.92s1.21.57,1.21.57-3.07,1.27-4.12-.54c-.79-1.25-1.31-.41-1.31-.41a1.6,1.6,0,0,1,.38,2.39,2.19,2.19,0,0,0,1.07,2.81c.84.41-1.51.84-3-.66-.58-.77-.16-1.56-1.42-1.81A1.73,1.73,0,0,1,20.1,27c-.67.68-1.34,1.52-.08,3.08.37.41-3.44-.29-3-2.58.19-1.52-.85-1.87-.85-1.87s0,1.25-.77,1.51-.57,1-.57,1A3.09,3.09,0,0,1,13.94,25c-1,1.05-1.45.53-1.54,2.46S10.64,29.07,10,28.92l-.37.26s.31-.26-.11-.94,0-.88.46-1.1.1-.93-.32-1.4A1.93,1.93,0,0,1,9.2,24.6s-.2.83-1.82.43c-1.35-.25-2.13-.09-2.49.75-.2.47-.25-.1.07-.67a1.55,1.55,0,0,1,1.43-.85c1.4,0,1.14-.48,1.08-1s0-.73.52-.94S6.52,21.55,6.06,22s-.72,1.62-2.49.85c-1.31-.62-2.25-.66-2.61-.19,0,.05,0-.21.24-.46a1.63,1.63,0,0,1,1.89-.34c1.25.46,1.14-.52,1.08-1s0-1.4,1-1.46S6,18.37,5,18.07a1.44,1.44,0,0,0-1.1.11,1.23,1.23,0,0,1-1.14.06c-1-.4-.95-2.18-2.62-2-.73,0,1.81-1.05,2.39-.12s1,.72,1.41,0S4.44,14.79,5.69,15c.47.11-.68-1.34-2-1.33S.48,13.89,1.49,10c.11-.81.08-.4.4,0a1.37,1.37,0,0,0,1.48.41C4.46,10.16,5.71,10.1,6,11c.1.42.61-.78-.53-1.09S5,8.18,5,8.18s.21,1,1.1.82,1.4-.11,1.46.41,1-.74-.33-1.67-1.53-2.38,0-4.11c0,.05,0,.94,1.2.93.89,0,2.08-.33,2.62,1-.06-.84-.12-1.25.3-1.57s.68.73,1.57,1c-.22-.83-.59-2.13.75-3.08,0,0-.3.84.27,1.15S15.2,5.7,15.2,5.7Z"/><path class="cls-2" d="M24,15.58a8.31,8.31,0,1,1-8.36-8.24A8.29,8.29,0,0,1,24,15.58Z"/><path class="cls-3" d="M23.24,15.27A7.79,7.79,0,1,1,15.4,7.55a7.78,7.78,0,0,1,7.84,7.72Z"/><path class="cls-4" d="M22.56,14.81a7.11,7.11,0,1,1-7.16-7,7.1,7.1,0,0,1,7.16,7.05Z"/><path class="cls-5" d="M21.78,14.25A6.33,6.33,0,1,1,15.4,8a6.34,6.34,0,0,1,6.38,6.28Z"/><path class="cls-6" d="M20,13.32A4.87,4.87,0,1,1,15,8.49,4.88,4.88,0,0,1,20,13.32Z"/><path class="cls-7" d="M18.22,12.19a3.46,3.46,0,1,1-3.49-3.44A3.46,3.46,0,0,1,18.22,12.19Z"/><path class="cls-8" d="M15.4,8a6,6,0,0,0-1.28.14h.78c.56,0,1.11,0,1.66,0A6.34,6.34,0,0,0,15.4,8Z"/></g></g></svg>