<svg xmlns="http://www.w3.org/2000/svg" xmlns:xlink="http://www.w3.org/1999/xlink" viewBox="0 0 173.33 37.98"><defs><style>.cls-1{fill:url(#linear-gradient);}.cls-2{fill:#fff;opacity:0.38;}</style><linearGradient id="linear-gradient" x1="86.66" y1="22.23" x2="86.66" y2="49.12" gradientUnits="userSpaceOnUse"><stop offset="0.03" stop-color="#0074bc"/><stop offset="0.33" stop-color="#48b9ff"/><stop offset="0.72" stop-color="#e6fcf6"/><stop offset="0.86" stop-color="#fff"/></linearGradient></defs><g id="Layer_2" data-name="Layer 2"><g id="Layer_1-2" data-name="Layer 1"><rect class="cls-1" width="173.33" height="37.98"/><path class="cls-2" d="M27.43,26.53c-1.68,0-3.37.43-5,0-.81-.22-1.58-.62-2.39-.86a5.87,5.87,0,0,0-2.5-.19,12.94,12.94,0,0,0-2.29.55,11.54,11.54,0,0,1-2.57.65c-1.67.12-3.14-.73-4.73-1.06a3.69,3.69,0,0,0-2.18.17A14.58,14.58,0,0,0,3.61,27s-.1.2,0,.15C4.82,26.44,6,25.73,7.45,26s3,1.16,4.6,1.17,3.17-.83,4.76-1.14a6.28,6.28,0,0,1,2.48,0,19,19,0,0,1,2.4.84c1.84.65,3.69.25,5.57.08C27.39,26.91,27.58,26.53,27.43,26.53Z"/><path class="cls-2" d="M59.89,26.53c-1.69,0-3.38.43-5,0-.82-.22-1.58-.62-2.39-.86a5.87,5.87,0,0,0-2.5-.19,12.94,12.94,0,0,0-2.29.55,11.54,11.54,0,0,1-2.57.65c-1.67.12-3.14-.73-4.74-1.06a3.7,3.7,0,0,0-2.18.17A14.49,14.49,0,0,0,36.07,27s-.1.2,0,.15c1.21-.72,2.43-1.43,3.85-1.17s3,1.16,4.6,1.17,3.17-.83,4.76-1.14a6.27,6.27,0,0,1,2.48,0,18.83,18.83,0,0,1,2.39.84c1.85.65,3.7.25,5.58.08C59.85,26.91,60,26.53,59.89,26.53Z"/><path class="cls-2" d="M43.52,33.65c-1.68,0-3.37.44-5,0-.82-.22-1.58-.61-2.39-.86a5.88,5.88,0,0,0-2.5-.19,13,13,0,0,0-2.29.56,11.65,11.65,0,0,1-2.57.64c-1.67.12-3.14-.72-4.74-1.06a3.78,3.78,0,0,0-2.18.17,15.9,15.9,0,0,0-2.11,1.23c-.05,0-.1.2,0,.15,1.21-.71,2.42-1.42,3.85-1.16s3,1.15,4.6,1.16,3.17-.83,4.76-1.14a6.47,6.47,0,0,1,2.48,0,19.46,19.46,0,0,1,2.39.85c1.85.65,3.7.24,5.58.08C43.49,34,43.67,33.65,43.52,33.65Z"/><path class="cls-2" d="M97,26.53c-1.68,0-3.37.43-5,0-.81-.22-1.58-.62-2.38-.86a5.93,5.93,0,0,0-2.51-.19,13.16,13.16,0,0,0-2.29.55,11.54,11.54,0,0,1-2.57.65c-1.67.12-3.14-.73-4.73-1.06a3.69,3.69,0,0,0-2.18.17A14,14,0,0,0,73.17,27s-.11.2,0,.15c1.22-.72,2.43-1.43,3.85-1.17s3,1.16,4.6,1.17,3.17-.83,4.76-1.14a6.28,6.28,0,0,1,2.48,0,19,19,0,0,1,2.4.84c1.84.65,3.69.25,5.58.08C96.94,26.91,97.13,26.53,97,26.53Z"/><path class="cls-2" d="M80.62,33.65c-1.69,0-3.37.44-5,0-.81-.22-1.58-.61-2.38-.86a5.93,5.93,0,0,0-2.51-.19,13,13,0,0,0-2.29.56,11.51,11.51,0,0,1-2.57.64c-1.67.12-3.14-.72-4.74-1.06a3.74,3.74,0,0,0-2.17.17,16.68,16.68,0,0,0-2.12,1.23s-.1.2,0,.15c1.21-.71,2.43-1.42,3.85-1.16s3,1.15,4.6,1.16,3.17-.83,4.76-1.14a6.47,6.47,0,0,1,2.48,0,19,19,0,0,1,2.4.85c1.84.65,3.69.24,5.57.08C80.58,34,80.76,33.65,80.62,33.65Z"/><path class="cls-2" d="M134.07,26.53c-1.68,0-3.37.43-5,0-.82-.22-1.58-.62-2.39-.86a5.88,5.88,0,0,0-2.5-.19,12.94,12.94,0,0,0-2.29.55,11.62,11.62,0,0,1-2.58.65c-1.66.12-3.13-.73-4.73-1.06a3.7,3.7,0,0,0-2.18.17A14,14,0,0,0,110.26,27c-.05,0-.1.2,0,.15,1.22-.72,2.43-1.43,3.86-1.17s3,1.16,4.6,1.17,3.16-.83,4.76-1.14a6.23,6.23,0,0,1,2.47,0,19,19,0,0,1,2.4.84c1.85.65,3.7.25,5.58.08C134,26.91,134.22,26.53,134.07,26.53Z"/><path class="cls-2" d="M117.71,33.65c-1.68,0-3.37.44-5,0-.81-.22-1.57-.61-2.38-.86a5.91,5.91,0,0,0-2.51-.19,12.86,12.86,0,0,0-2.28.56,11.6,11.6,0,0,1-2.58.64c-1.66.12-3.13-.72-4.73-1.06A3.78,3.78,0,0,0,96,32.9a15.9,15.9,0,0,0-2.11,1.23c-.05,0-.1.2,0,.15,1.22-.71,2.43-1.42,3.86-1.16s3,1.15,4.6,1.16,3.16-.83,4.75-1.14a6.47,6.47,0,0,1,2.48,0A19,19,0,0,1,112,34c1.85.65,3.7.24,5.58.08C117.67,34,117.86,33.65,117.71,33.65Z"/><path class="cls-2" d="M171.17,26.53c-1.69,0-3.38.43-5,0-.82-.22-1.58-.62-2.39-.86a5.87,5.87,0,0,0-2.5-.19A12.94,12.94,0,0,0,159,26a11.54,11.54,0,0,1-2.57.65c-1.67.12-3.14-.73-4.74-1.06a3.7,3.7,0,0,0-2.18.17A15,15,0,0,0,147.35,27s-.1.2,0,.15c1.21-.72,2.43-1.43,3.85-1.17s3,1.16,4.6,1.17,3.17-.83,4.76-1.14A6.27,6.27,0,0,1,163,26a18.3,18.3,0,0,1,2.39.84c1.85.65,3.7.25,5.58.08C171.13,26.91,171.31,26.53,171.17,26.53Z"/><path class="cls-2" d="M154.8,33.65c-1.68,0-3.37.44-5,0-.82-.22-1.58-.61-2.39-.86a5.88,5.88,0,0,0-2.5-.19,13,13,0,0,0-2.29.56,11.51,11.51,0,0,1-2.57.64c-1.67.12-3.14-.72-4.74-1.06a3.78,3.78,0,0,0-2.18.17A15.9,15.9,0,0,0,131,34.13c-.05,0-.1.2,0,.15,1.21-.71,2.42-1.42,3.85-1.16s3,1.15,4.6,1.16,3.17-.83,4.76-1.14a6.47,6.47,0,0,1,2.48,0,18.89,18.89,0,0,1,2.39.85c1.85.65,3.7.24,5.58.08C154.77,34,155,33.65,154.8,33.65Z"/></g></g></svg>